<svg width="19" height="19" viewBox="0 0 19 19" fill="none" xmlns="http://www.w3.org/2000/svg">
<circle cx="13.3537" cy="3.0099" r="2.5099" stroke="#13263D"/>
<circle cx="5.83021" cy="3.0099" r="2.5099" stroke="#13263D"/>
<path d="M8.02344 12.6981C8.02344 9.80542 10.3684 7.46045 13.2611 7.46045C16.1537 7.46045 18.4987 9.80541 18.4987 12.6981V13.3621C18.4987 13.7062 18.2197 13.9852 17.8756 13.9852H8.64653C8.30241 13.9852 8.02344 13.7062 8.02344 13.3621V12.6981Z" stroke="#13263D"/>
<path d="M4.51485 13.9852H4.30774L4.1613 14.1316L0.931002 17.3619C0.771952 17.521 0.5 17.4083 0.5 17.1834V14.4852V12.6981C0.5 9.80542 2.84496 7.46045 5.73762 7.46045C8.63028 7.46045 10.9752 9.80541 10.9752 12.6981V13.3621C10.9752 13.7062 10.6963 13.9852 10.3521 13.9852H4.51485Z" stroke="#13263D"/>
<path d="M8.5 10.5C8.9 9.3 9.33333 9 9.5 9C9.66667 9 10.1 9.2 10.5 10C10.9 10.8 11 12.6667 11 13.5H8C8 13 8.1 11.7 8.5 10.5Z" fill="#13263D"/>
</svg>
