<svg width="361" height="241" viewBox="0 0 361 241" fill="none" xmlns="http://www.w3.org/2000/svg">
<rect x="180.709" y="31.146" width="152.765" height="179.249" rx="4.96013" stroke="#2A0F7F" stroke-width="0.5" stroke-dasharray="2.17 2.17"/>
<g filter="url(#filter0_d_454_173)">
<rect x="12" y="64.3276" width="52.1013" height="26.0506" rx="1.73671" fill="#E4585A"/>
<rect x="12.2171" y="64.5447" width="51.6671" height="25.6165" rx="1.51962" stroke="#FF5F61" stroke-width="0.434177"/>
</g>
<g filter="url(#filter1_d_454_173)">
<rect x="51.9453" y="104.706" width="52.1013" height="26.0506" rx="1.73671" fill="#E4585A"/>
<rect x="52.1624" y="104.923" width="51.6671" height="25.6165" rx="1.51962" stroke="#FF5F61" stroke-width="0.434177"/>
</g>
<g filter="url(#filter2_d_454_173)">
<rect x="81.4668" y="150.295" width="52.1013" height="26.0506" rx="1.73671" fill="#E4585A"/>
<rect x="81.6839" y="150.512" width="51.6671" height="25.6165" rx="1.51962" stroke="#FF5F61" stroke-width="0.434177"/>
</g>
<path d="M18.4842 76.4677C18.1438 76.4677 17.8464 76.3896 17.5919 76.2333C17.3375 76.0735 17.1415 75.853 17.0037 75.5717C16.866 75.2869 16.8003 74.9587 16.8064 74.5871C16.8126 74.2155 16.8892 73.8873 17.0364 73.6025C17.187 73.3177 17.3956 73.0955 17.6622 72.9357C17.9323 72.776 18.248 72.6961 18.6092 72.6961C19.0191 72.6961 19.3579 72.7951 19.6255 72.993C19.8966 73.191 20.0692 73.4636 20.1434 73.8109H19.638C19.593 73.5921 19.4795 73.4185 19.2975 73.29C19.1191 73.1615 18.8874 73.0972 18.6026 73.0972C18.3351 73.0972 18.1014 73.158 17.9014 73.2795C17.7015 73.3976 17.5441 73.5678 17.4292 73.7901C17.3179 74.0123 17.2596 74.278 17.2545 74.5871C17.2494 74.8962 17.2988 75.1619 17.4028 75.3841C17.5068 75.6064 17.6533 75.7783 17.8423 75.8999C18.0314 76.0179 18.2527 76.077 18.5063 76.077C18.8953 76.077 19.1907 75.9641 19.3924 75.7384C19.5942 75.5092 19.7123 75.1966 19.7466 74.8007H18.6942L18.6999 74.4569H20.2004L20.1681 76.4052H19.7669L19.7404 75.8061C19.6049 76.0179 19.4406 76.1812 19.2477 76.2958C19.0548 76.4104 18.8003 76.4677 18.4842 76.4677ZM20.8602 76.4052L20.9206 72.7586H22.0981C22.3829 72.7586 22.6149 72.8055 22.794 72.8992C22.973 72.993 23.1046 73.1215 23.1887 73.2847C23.2729 73.448 23.3133 73.6286 23.31 73.8265C23.3062 74.0557 23.2403 74.2624 23.1122 74.4464C22.9875 74.6305 22.7943 74.7607 22.5326 74.8371L23.3037 76.4052H22.7879L22.073 74.8997H22.0418H21.3228L21.2978 76.4052H20.8602ZM21.3285 74.5558H22.0371C22.3184 74.5558 22.5245 74.4881 22.6552 74.3527C22.786 74.2172 22.8531 74.0436 22.8566 73.8317C22.8602 73.6164 22.7988 73.4462 22.6723 73.3212C22.5494 73.1927 22.3438 73.1285 22.0555 73.1285H21.3522L21.3285 74.5558ZM23.9486 76.4052L24.0091 72.7586H25.1866C25.4714 72.7586 25.7033 72.8055 25.8824 72.8992C26.0614 72.993 26.193 73.1215 26.2772 73.2847C26.3613 73.448 26.4017 73.6286 26.3984 73.8265C26.3946 74.0557 26.3287 74.2624 26.2006 74.4464C26.076 74.6305 25.8828 74.7607 25.621 74.8371L26.3921 76.4052H25.8763L25.1615 74.8997H25.1302H24.4112L24.3862 76.4052H23.9486ZM24.4169 74.5558H25.1255C25.4068 74.5558 25.6129 74.4881 25.7437 74.3527C25.8744 74.2172 25.9416 74.0436 25.9451 73.8317C25.9486 73.6164 25.8872 73.4462 25.7608 73.3212C25.6378 73.1927 25.4322 73.1285 25.144 73.1285H24.4406L24.4169 74.5558ZM28.1866 76.4052L29.5913 72.7586H30.055L31.3335 76.4052H30.8698L30.5519 75.4675H28.9993L28.6451 76.4052H28.1866ZM29.1355 75.1132H30.4276L29.8114 73.3108L29.1355 75.1132ZM33.2343 76.4677C32.8939 76.4677 32.5965 76.3896 32.3421 76.2333C32.0877 76.0735 31.8916 75.853 31.7539 75.5717C31.6162 75.2869 31.5504 74.9587 31.5566 74.5871C31.5628 74.2155 31.6394 73.8873 31.7865 73.6025C31.9371 73.3177 32.1458 73.0955 32.4124 72.9357C32.6825 72.776 32.9982 72.6961 33.3594 72.6961C33.7693 72.6961 34.108 72.7951 34.3757 72.993C34.6468 73.191 34.8194 73.4636 34.8935 73.8109H34.3881C34.3431 73.5921 34.2297 73.4185 34.0477 73.29C33.8692 73.1615 33.6376 73.0972 33.3527 73.0972C33.0853 73.0972 32.8516 73.158 32.6516 73.2795C32.4516 73.3976 32.2942 73.5678 32.1794 73.7901C32.068 74.0123 32.0098 74.278 32.0047 74.5871C31.9995 74.8962 32.049 75.1619 32.153 75.3841C32.257 75.6064 32.4035 75.7783 32.5925 75.8999C32.7816 76.0179 33.0029 76.077 33.2564 76.077C33.6455 76.077 33.9408 75.9641 34.1426 75.7384C34.3444 75.5092 34.4624 75.1966 34.4968 74.8007H33.4443L33.45 74.4569H34.9505L34.9182 76.4052H34.5171L34.4905 75.8061C34.355 76.0179 34.1908 76.1812 33.9979 76.2958C33.8049 76.4104 33.5504 76.4677 33.2343 76.4677ZM35.6103 76.4052L35.6708 72.7586H37.9268L37.9208 73.118H36.1025L36.0814 74.3891H37.7434L37.7376 74.7434H36.0755L36.0539 76.0457H37.8723L37.8663 76.4052H35.6103ZM38.5512 76.4052L38.6117 72.7586H39.0493L40.9442 75.6811L40.9927 72.7586H41.4303L41.3699 76.4052H40.9322L39.0373 73.4827L38.9889 76.4052H38.5512ZM42.9978 76.4052L43.0523 73.118H41.9634L41.9694 72.7586H44.5848L44.5789 73.118H43.49L43.4355 76.4052H42.9978ZM16.8481 84.4041L16.9017 81.1742H17.3967L17.428 81.6431C17.535 81.4694 17.6762 81.3349 17.8515 81.2394C18.0267 81.1439 18.2229 81.0961 18.44 81.0961C18.6962 81.0961 18.9145 81.1482 19.0952 81.2524C19.2801 81.3566 19.4208 81.515 19.5171 81.7277C19.6333 81.5324 19.7899 81.3783 19.9872 81.2654C20.1888 81.1525 20.4046 81.0961 20.6348 81.0961C21.0212 81.0961 21.3275 81.2133 21.5537 81.4477C21.78 81.6778 21.8892 82.0338 21.8812 82.5157L21.8499 84.4041H21.3093L21.3397 82.5743C21.3452 82.24 21.2821 81.9882 21.1503 81.8189C21.0185 81.6496 20.8267 81.565 20.5749 81.565C20.3144 81.565 20.0956 81.667 19.9185 81.871C19.7459 82.0707 19.6565 82.3572 19.6503 82.7306L19.6225 84.4041H19.0755L19.1058 82.5743C19.1114 82.24 19.0482 81.9882 18.9165 81.8189C18.7847 81.6496 18.5929 81.565 18.341 81.565C18.0849 81.565 17.8683 81.667 17.6912 81.871C17.5186 82.0707 17.4292 82.3572 17.423 82.7306L17.3952 84.4041H16.8481ZM23.7472 84.4822C23.478 84.4822 23.2552 84.4366 23.0787 84.3455C22.9022 84.2543 22.7718 84.1328 22.6875 83.9808C22.6031 83.8289 22.5625 83.6639 22.5654 83.4859C22.5709 83.156 22.701 82.902 22.9558 82.724C23.2105 82.5461 23.555 82.4571 23.9892 82.4571H24.8619L24.8625 82.418C24.8672 82.1358 24.7969 81.9231 24.6517 81.7798C24.5065 81.6322 24.3102 81.5584 24.0627 81.5584C23.85 81.5584 23.6645 81.6127 23.5064 81.7212C23.3528 81.8254 23.2547 81.9795 23.2122 82.1836H22.6521C22.6777 81.9491 22.7592 81.7516 22.8964 81.591C23.038 81.4304 23.2115 81.3088 23.417 81.2263C23.6225 81.1395 23.8403 81.0961 24.0704 81.0961C24.5219 81.0961 24.8586 81.2177 25.0803 81.4608C25.3065 81.6995 25.4162 82.0186 25.4096 82.418L25.3767 84.4041H24.8882L24.8653 83.8245C24.7711 84.0069 24.6339 84.1631 24.4537 84.2934C24.278 84.4193 24.0425 84.4822 23.7472 84.4822ZM23.8395 84.0199C24.048 84.0199 24.2269 83.9656 24.3763 83.8571C24.53 83.7486 24.6474 83.6075 24.7285 83.4338C24.8095 83.2602 24.8516 83.0779 24.8548 82.8868L24.8549 82.8803H24.0278C23.7065 82.8803 23.4776 82.9368 23.3411 83.0496C23.2091 83.1582 23.1417 83.2949 23.139 83.4599C23.1361 83.6292 23.1947 83.7659 23.3145 83.8701C23.4388 83.97 23.6138 84.0199 23.8395 84.0199ZM27.681 84.4822C27.3727 84.4822 27.096 84.4128 26.8508 84.2738C26.61 84.1306 26.4201 83.9331 26.281 83.6813C26.1463 83.4251 26.0818 83.1278 26.0874 82.7892C26.093 82.4506 26.1674 82.1554 26.3105 81.9036C26.458 81.6474 26.6545 81.4499 26.8999 81.311C27.1498 81.1677 27.4288 81.0961 27.7371 81.0961C28.1192 81.0961 28.4388 81.196 28.696 81.3956C28.9576 81.5953 29.1203 81.8623 29.1842 82.1966H28.6241C28.584 81.9969 28.4802 81.8428 28.3127 81.7343C28.1452 81.6214 27.9486 81.565 27.7228 81.565C27.5405 81.565 27.3682 81.6105 27.2061 81.7017C27.0439 81.7929 26.9114 81.9296 26.8085 82.1119C26.7056 82.2943 26.6519 82.52 26.6475 82.7892C26.643 83.0583 26.6892 83.2841 26.786 83.4664C26.8829 83.6487 27.0108 83.7876 27.1699 83.8831C27.329 83.9743 27.4998 84.0199 27.6821 84.0199C27.9079 84.0199 28.1063 83.9656 28.2775 83.8571C28.4487 83.7442 28.5577 83.5858 28.6045 83.3817H29.1646C29.094 83.7073 28.9247 83.9721 28.6564 84.1762C28.3882 84.3802 28.063 84.4822 27.681 84.4822ZM32.0139 84.4822C31.5667 84.4822 31.1754 84.3845 30.84 84.1892C30.509 83.9895 30.2509 83.7117 30.0658 83.3557C29.885 82.9997 29.7984 82.5895 29.8061 82.125C29.8138 81.6605 29.914 81.2524 30.1065 80.9008C30.3034 80.5448 30.5707 80.2669 30.9083 80.0672C31.2503 79.8676 31.6449 79.7677 32.0921 79.7677C32.5436 79.7677 32.9349 79.8676 33.2659 80.0672C33.6013 80.2669 33.8593 80.5448 34.0401 80.9008C34.221 81.2524 34.3076 81.6605 34.2999 82.125C34.2922 82.5895 34.192 82.9997 33.9994 83.3557C33.8068 83.7117 33.5395 83.9895 33.1976 84.1892C32.86 84.3845 32.4655 84.4822 32.0139 84.4822ZM32.0219 84.0004C32.3562 84.0004 32.6505 83.9266 32.9048 83.779C33.1635 83.627 33.3646 83.4121 33.5081 83.1343C33.6561 82.8521 33.7333 82.5157 33.7398 82.125C33.7463 81.7343 33.6802 81.4 33.5415 81.1222C33.4072 80.8443 33.2131 80.6316 32.9594 80.484C32.7101 80.3321 32.4183 80.2561 32.084 80.2561C31.7497 80.2561 31.4532 80.3321 31.1945 80.484C30.9402 80.6316 30.7391 80.8443 30.5913 81.1222C30.4477 81.4 30.3727 81.7343 30.3662 82.125C30.3597 82.5157 30.4236 82.8521 30.5579 83.1343C30.6966 83.4121 30.8906 83.627 31.1399 83.779C31.3936 83.9266 31.6876 84.0004 32.0219 84.0004ZM36.5023 84.4822C36.168 84.4822 35.8781 84.4214 35.6326 84.2999C35.3872 84.1783 35.1989 84.009 35.0679 83.792C34.937 83.5749 34.8738 83.3231 34.8786 83.0366H35.4517C35.4487 83.2146 35.4873 83.3796 35.5672 83.5315C35.6473 83.6791 35.7647 83.7985 35.9195 83.8897C36.0787 83.9765 36.2755 84.0199 36.51 84.0199C36.8182 84.0199 37.0583 83.9461 37.23 83.7985C37.4018 83.6509 37.4895 83.4664 37.4932 83.245C37.4962 83.0627 37.4596 82.9172 37.3832 82.8087C37.3069 82.6958 37.2021 82.6047 37.0686 82.5352C36.9395 82.4657 36.7886 82.405 36.6158 82.3529C36.4473 82.3008 36.2703 82.2422 36.0847 82.1771C35.735 82.0555 35.477 81.9057 35.3106 81.7277C35.1443 81.5454 35.0635 81.3088 35.0684 81.018C35.068 80.7749 35.1281 80.56 35.2484 80.3733C35.3688 80.1823 35.5362 80.0347 35.7507 79.9305C35.9696 79.822 36.2266 79.7677 36.5219 79.7677C36.8128 79.7677 37.0637 79.822 37.2746 79.9305C37.4899 80.039 37.6546 80.1888 37.7687 80.3798C37.8871 80.5708 37.9464 80.7879 37.9467 81.031H37.3736C37.3757 80.9051 37.3452 80.7814 37.2821 80.6598C37.219 80.5339 37.1209 80.4319 36.9876 80.3538C36.8586 80.2756 36.6943 80.2366 36.4946 80.2366C36.2472 80.2322 36.042 80.2952 35.8792 80.4254C35.7208 80.5556 35.6396 80.7358 35.6358 80.9659C35.6326 81.1612 35.6844 81.311 35.7912 81.4152C35.9023 81.5194 36.0572 81.6062 36.2558 81.6757C36.4544 81.7408 36.6833 81.8167 36.9423 81.9036C37.1581 81.9817 37.352 82.0729 37.5239 82.1771C37.6959 82.2812 37.8283 82.4158 37.921 82.5808C38.0182 82.7458 38.0646 82.9563 38.0604 83.2124C38.0568 83.4295 37.9969 83.6357 37.8808 83.831C37.7647 84.0221 37.5906 84.1783 37.3585 84.2999C37.1307 84.4214 36.8453 84.4822 36.5023 84.4822Z" fill="white"/>
<path d="M87.9509 162.435C87.6105 162.435 87.3131 162.357 87.0587 162.2C86.8043 162.041 86.6082 161.82 86.4705 161.539C86.3328 161.254 86.267 160.926 86.2732 160.554C86.2794 160.183 86.356 159.854 86.5031 159.57C86.6537 159.285 86.8624 159.063 87.129 158.903C87.3991 158.743 87.7148 158.663 88.076 158.663C88.4859 158.663 88.8246 158.762 89.0923 158.96C89.3634 159.158 89.536 159.431 89.6101 159.778H89.1048C89.0598 159.559 88.9463 159.386 88.7643 159.257C88.5858 159.129 88.3542 159.064 88.0693 159.064C87.8019 159.064 87.5682 159.125 87.3682 159.247C87.1682 159.365 87.0108 159.535 86.896 159.757C86.7846 159.979 86.7264 160.245 86.7213 160.554C86.7161 160.863 86.7656 161.129 86.8696 161.351C86.9736 161.574 87.1201 161.745 87.3091 161.867C87.4982 161.985 87.7195 162.044 87.973 162.044C88.3621 162.044 88.6574 161.931 88.8592 161.706C89.061 161.476 89.179 161.164 89.2134 160.768H88.1609L88.1666 160.424H89.6672L89.6348 162.372H89.2337L89.2071 161.773C89.0716 161.985 88.9074 162.148 88.7145 162.263C88.5215 162.378 88.267 162.435 87.9509 162.435ZM90.3269 162.372L90.3874 158.726H91.5649C91.8497 158.726 92.0817 158.773 92.2607 158.866C92.4398 158.96 92.5714 159.089 92.6555 159.252C92.7396 159.415 92.7801 159.596 92.7768 159.794C92.773 160.023 92.707 160.23 92.5789 160.414C92.4543 160.598 92.2611 160.728 91.9993 160.804L92.7705 162.372H92.2547L91.5398 160.867H91.5086H90.7896L90.7646 162.372H90.3269ZM90.7953 160.523H91.5038C91.7852 160.523 91.9912 160.455 92.122 160.32C92.2528 160.184 92.3199 160.011 92.3234 159.799C92.327 159.584 92.2655 159.413 92.1391 159.288C92.0162 159.16 91.8106 159.096 91.5223 159.096H90.8189L90.7953 160.523ZM93.4154 162.372L93.4758 158.726H94.6533C94.9381 158.726 95.1701 158.773 95.3491 158.866C95.5282 158.96 95.6598 159.089 95.7439 159.252C95.8281 159.415 95.8685 159.596 95.8652 159.794C95.8614 160.023 95.7955 160.23 95.6674 160.414C95.5427 160.598 95.3495 160.728 95.0878 160.804L95.8589 162.372H95.3431L94.6282 160.867H94.597H93.878L93.853 162.372H93.4154ZM93.8837 160.523H94.5923C94.8736 160.523 95.0797 160.455 95.2104 160.32C95.3412 160.184 95.4083 160.011 95.4118 159.799C95.4154 159.584 95.354 159.413 95.2275 159.288C95.1046 159.16 94.899 159.096 94.6107 159.096H93.9073L93.8837 160.523ZM97.6534 162.372L99.0581 158.726H99.5218L100.8 162.372H100.337L100.019 161.435H98.4661L98.1119 162.372H97.6534ZM98.6022 161.08H99.8943L99.2782 159.278L98.6022 161.08ZM102.701 162.435C102.361 162.435 102.063 162.357 101.809 162.2C101.554 162.041 101.358 161.82 101.221 161.539C101.083 161.254 101.017 160.926 101.023 160.554C101.03 160.183 101.106 159.854 101.253 159.57C101.404 159.285 101.613 159.063 101.879 158.903C102.149 158.743 102.465 158.663 102.826 158.663C103.236 158.663 103.575 158.762 103.842 158.96C104.114 159.158 104.286 159.431 104.36 159.778H103.855C103.81 159.559 103.696 159.386 103.514 159.257C103.336 159.129 103.104 159.064 102.82 159.064C102.552 159.064 102.318 159.125 102.118 159.247C101.918 159.365 101.761 159.535 101.646 159.757C101.535 159.979 101.477 160.245 101.471 160.554C101.466 160.863 101.516 161.129 101.62 161.351C101.724 161.574 101.87 161.745 102.059 161.867C102.248 161.985 102.47 162.044 102.723 162.044C103.112 162.044 103.408 161.931 103.609 161.706C103.811 161.476 103.929 161.164 103.964 160.768H102.911L102.917 160.424H104.417L104.385 162.372H103.984L103.957 161.773C103.822 161.985 103.658 162.148 103.465 162.263C103.272 162.378 103.017 162.435 102.701 162.435ZM105.077 162.372L105.138 158.726H107.394L107.388 159.085H105.569L105.548 160.356H107.21L107.204 160.711H105.542L105.521 162.013H107.339L107.333 162.372H105.077ZM108.018 162.372L108.078 158.726H108.516L110.411 161.648L110.459 158.726H110.897L110.837 162.372H110.399L108.504 159.45L108.456 162.372H108.018ZM112.465 162.372L112.519 159.085H111.43L111.436 158.726H114.052L114.046 159.085H112.957L112.902 162.372H112.465ZM87.2852 170.378L86.1105 165.813H86.6966L87.6151 169.727L88.8002 165.813H89.4059L90.4286 169.727L91.4899 165.813H92.076L90.724 170.371H90.0988L89.0736 166.607L87.8975 170.371L87.2852 170.378ZM93.0089 166.425C92.9004 166.425 92.8098 166.39 92.7371 166.321C92.6689 166.247 92.6356 166.156 92.6374 166.047C92.6392 165.943 92.6753 165.856 92.746 165.787C92.8209 165.718 92.9127 165.683 93.0212 165.683C93.1254 165.683 93.2139 165.718 93.2865 165.787C93.3592 165.856 93.3946 165.943 93.3929 166.047C93.3911 166.156 93.3527 166.247 93.2777 166.321C93.2027 166.39 93.1131 166.425 93.0089 166.425ZM92.6699 170.371L92.7235 167.141H93.2706L93.217 170.371H92.6699ZM94.1695 170.371L94.2231 167.141H94.7181L94.741 167.721C94.8486 167.517 95.001 167.356 95.1984 167.239C95.3957 167.122 95.6181 167.063 95.8656 167.063C96.2477 167.063 96.5496 167.18 96.7715 167.415C96.9978 167.645 97.107 168.001 97.099 168.483L97.0677 170.371H96.5206L96.5509 168.541C96.5621 167.869 96.2898 167.532 95.7341 167.532C95.4562 167.532 95.2222 167.634 95.0321 167.838C94.8465 168.038 94.7505 168.324 94.7443 168.698L94.7166 170.371H94.1695ZM99.3606 170.449C99.0393 170.449 98.7583 170.376 98.5176 170.228C98.2812 170.08 98.0979 169.879 97.9675 169.622C97.8415 169.366 97.7812 169.075 97.7866 168.75C97.792 168.424 97.8641 168.136 98.0029 167.884C98.1417 167.628 98.3317 167.428 98.5729 167.285C98.8141 167.137 99.0976 167.063 99.4232 167.063C99.6881 167.063 99.9216 167.118 100.124 167.226C100.326 167.335 100.482 167.487 100.592 167.682L100.625 165.683H101.172L101.094 170.371H100.599L100.556 169.837C100.449 169.994 100.297 170.135 100.1 170.261C99.9022 170.386 99.6558 170.449 99.3606 170.449ZM99.4271 169.974C99.6441 169.974 99.836 169.924 100.003 169.824C100.174 169.72 100.306 169.577 100.401 169.394C100.499 169.212 100.55 168.999 100.554 168.756C100.558 168.513 100.514 168.301 100.422 168.118C100.334 167.936 100.206 167.795 100.038 167.695C99.8747 167.591 99.6845 167.539 99.4674 167.539C99.2547 167.539 99.0628 167.591 98.8917 167.695C98.7251 167.795 98.5925 167.936 98.494 168.118C98.3998 168.301 98.3506 168.513 98.3466 168.756C98.3426 168.999 98.3846 169.212 98.4728 169.394C98.5653 169.577 98.6932 169.72 98.8564 169.824C99.0241 169.924 99.2143 169.974 99.4271 169.974ZM103.457 170.449C103.153 170.449 102.88 170.38 102.639 170.241C102.399 170.102 102.209 169.907 102.07 169.655C101.935 169.399 101.87 169.099 101.876 168.756C101.882 168.413 101.958 168.116 102.106 167.864C102.253 167.608 102.45 167.411 102.695 167.272C102.945 167.133 103.222 167.063 103.526 167.063C103.83 167.063 104.102 167.133 104.343 167.272C104.584 167.411 104.771 167.608 104.906 167.864C105.045 168.116 105.112 168.413 105.106 168.756C105.101 169.099 105.024 169.399 104.876 169.655C104.729 169.907 104.53 170.102 104.281 170.241C104.035 170.38 103.76 170.449 103.457 170.449ZM103.464 169.981C103.651 169.981 103.825 169.935 103.988 169.844C104.15 169.753 104.282 169.616 104.385 169.434C104.488 169.251 104.542 169.025 104.546 168.756C104.551 168.487 104.504 168.261 104.408 168.079C104.315 167.897 104.189 167.76 104.03 167.669C103.871 167.578 103.7 167.532 103.518 167.532C103.331 167.532 103.157 167.578 102.995 167.669C102.833 167.76 102.7 167.897 102.597 168.079C102.494 168.261 102.441 168.487 102.436 168.756C102.432 169.025 102.478 169.251 102.575 169.434C102.672 169.616 102.797 169.753 102.952 169.844C103.111 169.935 103.282 169.981 103.464 169.981ZM106.371 170.371L105.48 167.141H106.027L106.669 169.674L107.466 167.141H108.085L108.805 169.674L109.524 167.141H110.078L109.08 170.371H108.52L107.769 167.708L106.931 170.371H106.371ZM111.865 170.449C111.479 170.449 111.159 170.352 110.906 170.156C110.653 169.961 110.508 169.696 110.47 169.362H111.03C111.062 169.531 111.149 169.679 111.29 169.805C111.436 169.926 111.632 169.987 111.88 169.987C112.11 169.987 112.28 169.939 112.39 169.844C112.5 169.744 112.556 169.627 112.559 169.492C112.562 169.297 112.492 169.167 112.35 169.101C112.212 169.036 112.016 168.978 111.76 168.926C111.587 168.891 111.414 168.841 111.242 168.776C111.069 168.711 110.925 168.62 110.81 168.502C110.695 168.381 110.639 168.222 110.642 168.027C110.647 167.745 110.755 167.515 110.966 167.337C111.182 167.154 111.47 167.063 111.83 167.063C112.173 167.063 112.452 167.15 112.666 167.324C112.885 167.493 113.009 167.736 113.038 168.053H112.498C112.479 167.888 112.409 167.76 112.289 167.669C112.174 167.573 112.016 167.526 111.816 167.526C111.621 167.526 111.468 167.567 111.358 167.649C111.253 167.732 111.199 167.84 111.197 167.975C111.194 168.105 111.26 168.207 111.393 168.281C111.531 168.355 111.717 168.418 111.95 168.47C112.149 168.513 112.337 168.567 112.514 168.633C112.696 168.693 112.842 168.787 112.952 168.913C113.068 169.034 113.123 169.212 113.119 169.447C113.119 169.737 113.004 169.978 112.775 170.169C112.551 170.356 112.247 170.449 111.865 170.449Z" fill="white"/>
<path d="M58.4295 116.846C58.0891 116.846 57.7916 116.768 57.5372 116.612C57.2828 116.452 57.0868 116.232 56.949 115.95C56.8113 115.665 56.7456 115.337 56.7517 114.966C56.7579 114.594 56.8345 114.266 56.9817 113.981C57.1323 113.696 57.3409 113.474 57.6075 113.314C57.8776 113.154 58.1933 113.075 58.5545 113.075C58.9644 113.075 59.3031 113.174 59.5708 113.372C59.8419 113.57 60.0145 113.842 60.0886 114.189H59.5833C59.5383 113.971 59.4248 113.797 59.2428 113.668C59.0643 113.54 58.8327 113.476 58.5479 113.476C58.2804 113.476 58.0467 113.537 57.8467 113.658C57.6467 113.776 57.4894 113.946 57.3745 114.169C57.2632 114.391 57.2049 114.657 57.1998 114.966C57.1947 115.275 57.2441 115.54 57.3481 115.763C57.4521 115.985 57.5986 116.157 57.7876 116.278C57.9767 116.396 58.198 116.456 58.4516 116.456C58.8406 116.456 59.136 116.343 59.3377 116.117C59.5395 115.888 59.6575 115.575 59.6919 115.179H58.6395L58.6452 114.835H60.1457L60.1134 116.784H59.7122L59.6856 116.185C59.5501 116.396 59.3859 116.56 59.193 116.674C59 116.789 58.7455 116.846 58.4295 116.846ZM60.8055 116.784L60.8659 113.137H62.0434C62.3282 113.137 62.5602 113.184 62.7392 113.278C62.9183 113.372 63.0499 113.5 63.134 113.663C63.2182 113.827 63.2586 114.007 63.2553 114.205C63.2515 114.434 63.1855 114.641 63.0574 114.825C62.9328 115.009 62.7396 115.139 62.4779 115.216L63.249 116.784H62.7332L62.0183 115.278H61.9871H61.2681L61.2431 116.784H60.8055ZM61.2738 114.934H61.9823C62.2637 114.934 62.4698 114.867 62.6005 114.731C62.7313 114.596 62.7984 114.422 62.8019 114.21C62.8055 113.995 62.7441 113.825 62.6176 113.7C62.4947 113.571 62.2891 113.507 62.0008 113.507H61.2974L61.2738 114.934ZM63.8939 116.784L63.9543 113.137H65.1318C65.4167 113.137 65.6486 113.184 65.8277 113.278C66.0067 113.372 66.1383 113.5 66.2224 113.663C66.3066 113.827 66.347 114.007 66.3437 114.205C66.3399 114.434 66.274 114.641 66.1459 114.825C66.0213 115.009 65.8281 115.139 65.5663 115.216L66.3374 116.784H65.8216L65.1068 115.278H65.0755H64.3565L64.3315 116.784H63.8939ZM64.3622 114.934H65.0708C65.3521 114.934 65.5582 114.867 65.6889 114.731C65.8197 114.596 65.8868 114.422 65.8904 114.21C65.8939 113.995 65.8325 113.825 65.706 113.7C65.5831 113.571 65.3775 113.507 65.0892 113.507H64.3859L64.3622 114.934ZM68.1319 116.784L69.5366 113.137H70.0003L71.2788 116.784H70.8151L70.4972 115.846H68.9446L68.5904 116.784H68.1319ZM69.0807 115.492H70.3728L69.7567 113.689L69.0807 115.492ZM73.1796 116.846C72.8392 116.846 72.5418 116.768 72.2874 116.612C72.033 116.452 71.8369 116.232 71.6992 115.95C71.5615 115.665 71.4957 115.337 71.5019 114.966C71.508 114.594 71.5847 114.266 71.7318 113.981C71.8824 113.696 72.091 113.474 72.3577 113.314C72.6278 113.154 72.9434 113.075 73.3047 113.075C73.7145 113.075 74.0533 113.174 74.3209 113.372C74.5921 113.57 74.7647 113.842 74.8388 114.189H74.3334C74.2884 113.971 74.1749 113.797 73.993 113.668C73.8145 113.54 73.5828 113.476 73.298 113.476C73.0306 113.476 72.7968 113.537 72.5968 113.658C72.3969 113.776 72.2395 113.946 72.1247 114.169C72.0133 114.391 71.9551 114.657 71.9499 114.966C71.9448 115.275 71.9943 115.54 72.0982 115.763C72.2022 115.985 72.3487 116.157 72.5378 116.278C72.7268 116.396 72.9482 116.456 73.2017 116.456C73.5907 116.456 73.8861 116.343 74.0878 116.117C74.2896 115.888 74.4077 115.575 74.4421 115.179H73.3896L73.3953 114.835H74.8958L74.8635 116.784H74.4623L74.4358 116.185C74.3003 116.396 74.1361 116.56 73.9431 116.674C73.7502 116.789 73.4957 116.846 73.1796 116.846ZM75.5556 116.784L75.6161 113.137H77.8721L77.8661 113.497H76.0478L76.0267 114.768H77.6887L77.6828 115.122H76.0208L75.9992 116.424H77.8176L77.8116 116.784H75.5556ZM78.4965 116.784L78.557 113.137H78.9946L80.8895 116.06L80.938 113.137H81.3756L81.3152 116.784H80.8775L78.9826 113.861L78.9341 116.784H78.4965ZM82.9431 116.784L82.9976 113.497H81.9087L81.9146 113.137H84.5301L84.5242 113.497H83.4352L83.3807 116.784H82.9431ZM56.826 124.783L56.9016 120.224H57.4486L57.3803 124.346H59.5034L59.4962 124.783H56.826ZM60.6127 120.836C60.5042 120.836 60.4136 120.802 60.3409 120.732C60.2727 120.659 60.2394 120.567 60.2412 120.459C60.243 120.355 60.2791 120.268 60.3497 120.198C60.4247 120.129 60.5165 120.094 60.625 120.094C60.7292 120.094 60.8176 120.129 60.8903 120.198C60.963 120.268 60.9984 120.355 60.9967 120.459C60.9949 120.567 60.9565 120.659 60.8814 120.732C60.8065 120.802 60.7169 120.836 60.6127 120.836ZM60.2737 124.783L60.3273 121.553H60.8744L60.8208 124.783H60.2737ZM61.7733 124.783L61.8269 121.553H62.3218L62.3448 122.132C62.4524 121.928 62.6048 121.768 62.8022 121.65C62.9995 121.533 63.2219 121.475 63.4694 121.475C63.8514 121.475 64.1534 121.592 64.3753 121.826C64.6016 122.056 64.7108 122.412 64.7028 122.894L64.6715 124.783H64.1244L64.1547 122.953C64.1659 122.28 63.8936 121.943 63.3379 121.943C63.06 121.943 62.826 122.046 62.6359 122.25C62.4503 122.449 62.3543 122.736 62.3481 123.109L62.3204 124.783H61.7733ZM66.6778 124.861C66.2957 124.861 65.9937 124.746 65.7717 124.516C65.5499 124.281 65.4429 123.923 65.4509 123.441L65.4822 121.553H66.0293L65.9989 123.383C65.9878 124.055 66.2579 124.392 66.8093 124.392C67.0915 124.392 67.3255 124.292 67.5111 124.092C67.7012 123.888 67.7993 123.6 67.8055 123.226L67.8333 121.553H68.3803L68.3268 124.783H67.8318L67.8024 124.203C67.6991 124.407 67.5467 124.568 67.345 124.685C67.1477 124.802 66.9253 124.861 66.6778 124.861ZM68.9016 124.783L70.0486 123.168L68.9552 121.553H69.5478L70.431 122.888L71.3649 121.553H71.951L70.8041 123.168L71.8975 124.783H71.3113L70.4217 123.448L69.4943 124.783H68.9016Z" fill="white"/>
<g filter="url(#filter3_d_454_173)">
<rect x="190.012" y="38.7111" width="134.595" height="156.738" rx="5.21013" fill="url(#paint0_linear_454_173)"/>
</g>
<path d="M198.644 58.1698L198.72 53.6116H201.54L201.532 54.0609H199.259L199.233 55.6498H201.311L201.303 56.0926H199.226L199.199 57.7205H201.472L201.464 58.1698H198.644ZM202.288 58.1698L202.341 54.94H202.836L202.859 55.5195C202.967 55.3155 203.119 55.1549 203.317 55.0377C203.514 54.9205 203.736 54.8619 203.984 54.8619C204.366 54.8619 204.668 54.9791 204.89 55.2135C205.116 55.4436 205.225 55.7995 205.217 56.2814L205.186 58.1698H204.639L204.669 56.34C204.68 55.6671 204.408 55.3307 203.852 55.3307C203.574 55.3307 203.34 55.4327 203.15 55.6368C202.965 55.8364 202.869 56.123 202.863 56.4963L202.835 58.1698H202.288ZM207.479 58.248C207.157 58.248 206.876 58.1742 206.636 58.0266C206.399 57.879 206.216 57.6771 206.086 57.421C205.96 57.1648 205.899 56.874 205.905 56.5484C205.91 56.2228 205.982 55.9341 206.121 55.6823C206.26 55.4262 206.45 55.2265 206.691 55.0833C206.932 54.9357 207.216 54.8619 207.541 54.8619C207.806 54.8619 208.04 54.9161 208.242 55.0246C208.444 55.1332 208.6 55.2851 208.71 55.4805L208.743 53.4814H209.29L209.212 58.1698H208.717L208.674 57.6359C208.567 57.7921 208.415 57.9332 208.218 58.0591C208.02 58.185 207.774 58.248 207.479 58.248ZM207.545 57.7726C207.762 57.7726 207.954 57.7227 208.121 57.6228C208.292 57.5187 208.425 57.3754 208.519 57.1931C208.617 57.0107 208.669 56.798 208.673 56.5549C208.677 56.3118 208.632 56.0991 208.54 55.9168C208.452 55.7344 208.324 55.5933 208.156 55.4935C207.993 55.3893 207.803 55.3372 207.586 55.3372C207.373 55.3372 207.181 55.3893 207.01 55.4935C206.843 55.5933 206.711 55.7344 206.612 55.9168C206.518 56.0991 206.469 56.3118 206.465 56.5549C206.461 56.798 206.503 57.0107 206.591 57.1931C206.683 57.3754 206.811 57.5187 206.975 57.6228C207.142 57.7227 207.332 57.7726 207.545 57.7726ZM210.08 59.6024L210.158 54.94H210.653L210.696 55.474C210.803 55.3177 210.953 55.1766 211.146 55.0507C211.343 54.9248 211.592 54.8619 211.891 54.8619C212.213 54.8619 212.492 54.9357 212.728 55.0833C212.964 55.2309 213.145 55.4327 213.271 55.6888C213.402 55.945 213.464 56.2358 213.459 56.5614C213.453 56.887 213.381 57.1779 213.242 57.434C213.108 57.6858 212.918 57.8855 212.672 58.0331C212.431 58.1763 212.15 58.248 211.829 58.248C211.564 58.248 211.328 58.1937 211.122 58.0852C210.919 57.9766 210.765 57.8247 210.66 57.6294L210.627 59.6024H210.08ZM211.778 57.7726C211.995 57.7726 212.187 57.7227 212.354 57.6228C212.52 57.5187 212.653 57.3754 212.751 57.1931C212.85 57.0107 212.901 56.798 212.905 56.5549C212.909 56.3118 212.865 56.0991 212.773 55.9168C212.68 55.7344 212.552 55.5933 212.389 55.4935C212.226 55.3893 212.035 55.3372 211.818 55.3372C211.601 55.3372 211.409 55.3893 211.243 55.4935C211.076 55.5933 210.943 55.7344 210.845 55.9168C210.746 56.0991 210.695 56.3118 210.691 56.5549C210.687 56.798 210.731 57.0107 210.824 57.1931C210.916 57.3754 211.044 57.5187 211.207 57.6228C211.371 57.7227 211.561 57.7726 211.778 57.7726ZM215.664 58.248C215.36 58.248 215.088 58.1785 214.847 58.0396C214.606 57.9007 214.416 57.7053 214.277 57.4535C214.142 57.1974 214.078 56.8979 214.084 56.5549C214.089 56.212 214.166 55.9146 214.313 55.6628C214.461 55.4067 214.657 55.2091 214.903 55.0702C215.153 54.9313 215.429 54.8619 215.733 54.8619C216.037 54.8619 216.31 54.9313 216.551 55.0702C216.791 55.2091 216.979 55.4067 217.114 55.6628C217.253 55.9146 217.32 56.212 217.314 56.5549C217.308 56.8979 217.232 57.1974 217.084 57.4535C216.937 57.7053 216.738 57.9007 216.488 58.0396C216.243 58.1785 215.968 58.248 215.664 58.248ZM215.672 57.7791C215.859 57.7791 216.033 57.7335 216.195 57.6424C216.357 57.5512 216.49 57.4145 216.593 57.2321C216.696 57.0498 216.749 56.8241 216.754 56.5549C216.758 56.2858 216.712 56.06 216.615 55.8777C216.523 55.6954 216.397 55.5586 216.238 55.4674C216.079 55.3763 215.908 55.3307 215.726 55.3307C215.539 55.3307 215.365 55.3763 215.202 55.4674C215.04 55.5586 214.908 55.6954 214.805 55.8777C214.702 56.06 214.648 56.2858 214.644 56.5549C214.639 56.8241 214.685 57.0498 214.782 57.2321C214.879 57.4145 215.005 57.5512 215.16 57.6424C215.319 57.7335 215.49 57.7791 215.672 57.7791ZM218.445 54.2237C218.337 54.2237 218.246 54.189 218.174 54.1195C218.105 54.0457 218.072 53.9545 218.074 53.846C218.076 53.7418 218.112 53.655 218.182 53.5855C218.257 53.5161 218.349 53.4814 218.458 53.4814C218.562 53.4814 218.65 53.5161 218.723 53.5855C218.796 53.655 218.831 53.7418 218.829 53.846C218.828 53.9545 218.789 54.0457 218.714 54.1195C218.639 54.189 218.55 54.2237 218.445 54.2237ZM218.106 58.1698L218.16 54.94H218.707L218.654 58.1698H218.106ZM219.606 58.1698L219.66 54.94H220.155L220.178 55.5195C220.285 55.3155 220.438 55.1549 220.635 55.0377C220.832 54.9205 221.055 54.8619 221.302 54.8619C221.684 54.8619 221.986 54.9791 222.208 55.2135C222.434 55.4436 222.543 55.7995 222.535 56.2814L222.504 58.1698H221.957L221.987 56.34C221.999 55.6671 221.726 55.3307 221.171 55.3307C220.893 55.3307 220.659 55.4327 220.469 55.6368C220.283 55.8364 220.187 56.123 220.181 56.4963L220.153 58.1698H219.606ZM224.609 58.1698C224.314 58.1698 224.083 58.0982 223.916 57.9549C223.749 57.8117 223.669 57.5534 223.675 57.18L223.705 55.4023H223.144L223.152 54.94H223.712L223.797 54.1651H224.272L224.259 54.94H225.21L225.202 55.4023H224.252L224.222 57.18C224.219 57.3841 224.258 57.523 224.339 57.5968C224.42 57.6663 224.565 57.701 224.774 57.701H225.112L225.104 58.1698H224.609ZM227.575 58.1698L227.629 54.94H228.124L228.155 55.4088C228.262 55.2352 228.403 55.1006 228.578 55.0051C228.754 54.9096 228.95 54.8619 229.167 54.8619C229.423 54.8619 229.642 54.9139 229.822 55.0181C230.007 55.1223 230.148 55.2808 230.244 55.4935C230.36 55.2981 230.517 55.144 230.714 55.0312C230.916 54.9183 231.132 54.8619 231.362 54.8619C231.748 54.8619 232.054 54.9791 232.281 55.2135C232.507 55.4436 232.616 55.7995 232.608 56.2814L232.577 58.1698H232.036L232.067 56.34C232.072 56.0058 232.009 55.754 231.877 55.5847C231.746 55.4154 231.554 55.3307 231.302 55.3307C231.041 55.3307 230.823 55.4327 230.646 55.6368C230.473 55.8364 230.383 56.123 230.377 56.4963L230.35 58.1698H229.802L229.833 56.34C229.838 56.0058 229.775 55.754 229.643 55.5847C229.512 55.4154 229.32 55.3307 229.068 55.3307C228.812 55.3307 228.595 55.4327 228.418 55.6368C228.246 55.8364 228.156 56.123 228.15 56.4963L228.122 58.1698H227.575ZM234.852 58.248C234.544 58.248 234.271 58.1785 234.035 58.0396C233.798 57.8963 233.613 57.6988 233.478 57.447C233.348 57.1952 233.285 56.8979 233.291 56.5549C233.297 56.2163 233.369 55.9211 233.508 55.6693C233.646 55.4132 233.836 55.2157 234.077 55.0767C234.323 54.9335 234.604 54.8619 234.921 54.8619C235.234 54.8619 235.502 54.9335 235.725 55.0767C235.953 55.2157 236.126 55.4002 236.243 55.6302C236.361 55.8603 236.418 56.1078 236.414 56.3726C236.413 56.4203 236.41 56.4681 236.405 56.5158C236.404 56.5636 236.403 56.6179 236.402 56.6786H233.829C233.838 56.9261 233.891 57.1323 233.989 57.2973C234.09 57.4579 234.216 57.5794 234.367 57.6619C234.522 57.7444 234.686 57.7856 234.86 57.7856C235.085 57.7856 235.275 57.7335 235.429 57.6294C235.582 57.5252 235.696 57.3841 235.768 57.2061H236.309C236.217 57.5056 236.045 57.7552 235.795 57.9549C235.548 58.1503 235.234 58.248 234.852 58.248ZM234.9 55.3242C234.64 55.3242 234.406 55.4045 234.2 55.5651C233.997 55.7214 233.878 55.9515 233.843 56.2554H235.875C235.867 55.9645 235.771 55.7366 235.587 55.5716C235.403 55.4067 235.174 55.3242 234.9 55.3242ZM238.277 58.1698C237.982 58.1698 237.751 58.0982 237.584 57.9549C237.417 57.8117 237.337 57.5534 237.343 57.18L237.372 55.4023H236.812L236.82 54.94H237.38L237.464 54.1651H237.94L237.927 54.94H238.878L238.87 55.4023H237.919L237.89 57.18C237.886 57.3841 237.925 57.523 238.007 57.5968C238.088 57.6663 238.233 57.701 238.441 57.701H238.78L238.772 58.1698H238.277ZM240.593 58.248C240.323 58.248 240.101 58.2024 239.924 58.1112C239.748 58.0201 239.617 57.8985 239.533 57.7466C239.448 57.5946 239.408 57.4297 239.411 57.2517C239.416 56.9217 239.546 56.6678 239.801 56.4898C240.056 56.3118 240.4 56.2228 240.835 56.2228H241.707L241.708 56.1837C241.713 55.9016 241.642 55.6888 241.497 55.5456C241.352 55.398 241.156 55.3242 240.908 55.3242C240.695 55.3242 240.51 55.3785 240.352 55.487C240.198 55.5912 240.1 55.7453 240.058 55.9493H239.497C239.523 55.7149 239.604 55.5174 239.742 55.3567C239.883 55.1961 240.057 55.0746 240.262 54.9921C240.468 54.9053 240.686 54.8619 240.916 54.8619C241.367 54.8619 241.704 54.9834 241.926 55.2265C242.152 55.4653 242.262 55.7844 242.255 56.1837L242.222 58.1698H241.734L241.711 57.5903C241.616 57.7726 241.479 57.9289 241.299 58.0591C241.123 58.185 240.888 58.248 240.593 58.248ZM240.685 57.7856C240.893 57.7856 241.072 57.7314 241.222 57.6228C241.375 57.5143 241.493 57.3732 241.574 57.1996C241.655 57.0259 241.697 56.8436 241.7 56.6526L241.7 56.6461H240.873C240.552 56.6461 240.323 56.7025 240.186 56.8154C240.054 56.9239 239.987 57.0607 239.984 57.2256C239.981 57.3949 240.04 57.5317 240.16 57.6359C240.284 57.7357 240.459 57.7856 240.685 57.7856ZM244.507 58.248C244.185 58.248 243.904 58.1742 243.664 58.0266C243.427 57.879 243.244 57.6771 243.114 57.421C242.988 57.1648 242.927 56.874 242.933 56.5484C242.938 56.2228 243.01 55.9341 243.149 55.6823C243.288 55.4262 243.478 55.2265 243.719 55.0833C243.96 54.9357 244.244 54.8619 244.569 54.8619C244.834 54.8619 245.068 54.9161 245.27 55.0246C245.472 55.1332 245.628 55.2851 245.738 55.4805L245.771 53.4814H246.318L246.24 58.1698H245.745L245.702 57.6359C245.595 57.7921 245.443 57.9332 245.246 58.0591C245.048 58.185 244.802 58.248 244.507 58.248ZM244.573 57.7726C244.79 57.7726 244.982 57.7227 245.149 57.6228C245.32 57.5187 245.453 57.3754 245.547 57.1931C245.645 57.0107 245.697 56.798 245.701 56.5549C245.705 56.3118 245.66 56.0991 245.568 55.9168C245.48 55.7344 245.352 55.5933 245.184 55.4935C245.021 55.3893 244.831 55.3372 244.614 55.3372C244.401 55.3372 244.209 55.3893 244.038 55.4935C243.871 55.5933 243.739 55.7344 243.64 55.9168C243.546 56.0991 243.497 56.3118 243.493 56.5549C243.489 56.798 243.531 57.0107 243.619 57.1931C243.711 57.3754 243.839 57.5187 244.003 57.6228C244.17 57.7227 244.361 57.7726 244.573 57.7726ZM248.205 58.248C247.936 58.248 247.713 58.2024 247.537 58.1112C247.36 58.0201 247.23 57.8985 247.146 57.7466C247.061 57.5946 247.021 57.4297 247.024 57.2517C247.029 56.9217 247.159 56.6678 247.414 56.4898C247.669 56.3118 248.013 56.2228 248.447 56.2228H249.32L249.321 56.1837C249.326 55.9016 249.255 55.6888 249.11 55.5456C248.965 55.398 248.768 55.3242 248.521 55.3242C248.308 55.3242 248.123 55.3785 247.965 55.487C247.811 55.5912 247.713 55.7453 247.67 55.9493H247.11C247.136 55.7149 247.217 55.5174 247.355 55.3567C247.496 55.1961 247.67 55.0746 247.875 54.9921C248.081 54.9053 248.299 54.8619 248.529 54.8619C248.98 54.8619 249.317 54.9834 249.539 55.2265C249.765 55.4653 249.875 55.7844 249.868 56.1837L249.835 58.1698H249.347L249.324 57.5903C249.229 57.7726 249.092 57.9289 248.912 58.0591C248.736 58.185 248.501 58.248 248.205 58.248ZM248.298 57.7856C248.506 57.7856 248.685 57.7314 248.835 57.6228C248.988 57.5143 249.106 57.3732 249.187 57.1996C249.268 57.0259 249.31 56.8436 249.313 56.6526L249.313 56.6461H248.486C248.165 56.6461 247.936 56.7025 247.799 56.8154C247.667 56.9239 247.6 57.0607 247.597 57.2256C247.594 57.3949 247.653 57.5317 247.773 57.6359C247.897 57.7357 248.072 57.7856 248.298 57.7856ZM251.843 58.1698C251.548 58.1698 251.317 58.0982 251.15 57.9549C250.983 57.8117 250.902 57.5534 250.909 57.18L250.938 55.4023H250.378L250.386 54.94H250.946L251.03 54.1651H251.506L251.493 54.94H252.444L252.436 55.4023H251.485L251.456 57.18C251.452 57.3841 251.491 57.523 251.573 57.5968C251.654 57.6663 251.799 57.701 252.007 57.701H252.346L252.338 58.1698H251.843ZM254.158 58.248C253.889 58.248 253.666 58.2024 253.49 58.1112C253.313 58.0201 253.183 57.8985 253.099 57.7466C253.014 57.5946 252.974 57.4297 252.977 57.2517C252.982 56.9217 253.112 56.6678 253.367 56.4898C253.622 56.3118 253.966 56.2228 254.4 56.2228H255.273L255.274 56.1837C255.278 55.9016 255.208 55.6888 255.063 55.5456C254.918 55.398 254.721 55.3242 254.474 55.3242C254.261 55.3242 254.076 55.3785 253.918 55.487C253.764 55.5912 253.666 55.7453 253.623 55.9493H253.063C253.089 55.7149 253.17 55.5174 253.308 55.3567C253.449 55.1961 253.623 55.0746 253.828 54.9921C254.034 54.9053 254.252 54.8619 254.482 54.8619C254.933 54.8619 255.27 54.9834 255.492 55.2265C255.718 55.4653 255.827 55.7844 255.821 56.1837L255.788 58.1698H255.299L255.277 57.5903C255.182 57.7726 255.045 57.9289 254.865 58.0591C254.689 58.185 254.454 58.248 254.158 58.248ZM254.251 57.7856C254.459 57.7856 254.638 57.7314 254.788 57.6228C254.941 57.5143 255.059 57.3732 255.14 57.1996C255.221 57.0259 255.263 56.8436 255.266 56.6526L255.266 56.6461H254.439C254.118 56.6461 253.889 56.7025 253.752 56.8154C253.62 56.9239 253.553 57.0607 253.55 57.2256C253.547 57.3949 253.606 57.5317 253.726 57.6359C253.85 57.7357 254.025 57.7856 254.251 57.7856Z" fill="white"/>
<path d="M198.5 102.022L198.575 97.4635H201.35L201.342 97.9128H199.115L199.088 99.5147H200.983L200.976 99.9575H199.081L199.047 102.022H198.5ZM202.344 98.0756C202.235 98.0756 202.144 98.0409 202.072 97.9714C202.004 97.8976 201.97 97.8065 201.972 97.6979C201.974 97.5938 202.01 97.5069 202.081 97.4375C202.156 97.368 202.247 97.3333 202.356 97.3333C202.46 97.3333 202.549 97.368 202.621 97.4375C202.694 97.5069 202.729 97.5938 202.728 97.6979C202.726 97.8065 202.687 97.8976 202.612 97.9714C202.537 98.0409 202.448 98.0756 202.344 98.0756ZM202.005 102.022L202.058 98.7919H202.605L202.552 102.022H202.005ZM203.504 102.022L203.582 97.3333H204.129L204.051 102.022H203.504ZM206.399 102.1C206.091 102.1 205.818 102.03 205.582 101.892C205.345 101.748 205.16 101.551 205.025 101.299C204.895 101.047 204.832 100.75 204.838 100.407C204.844 100.068 204.916 99.773 205.055 99.5212C205.193 99.2651 205.383 99.0676 205.624 98.9287C205.87 98.7854 206.151 98.7138 206.468 98.7138C206.781 98.7138 207.049 98.7854 207.272 98.9287C207.5 99.0676 207.673 99.2521 207.79 99.4822C207.908 99.7123 207.965 99.9597 207.961 100.225C207.96 100.272 207.957 100.32 207.952 100.368C207.951 100.416 207.95 100.47 207.949 100.531H205.376C205.385 100.778 205.438 100.984 205.536 101.149C205.637 101.31 205.763 101.431 205.914 101.514C206.069 101.596 206.233 101.638 206.407 101.638C206.632 101.638 206.822 101.585 206.976 101.481C207.13 101.377 207.243 101.236 207.315 101.058H207.856C207.764 101.358 207.592 101.607 207.342 101.807C207.095 102.002 206.781 102.1 206.399 102.1ZM206.447 99.1761C206.187 99.1761 205.953 99.2564 205.747 99.4171C205.544 99.5733 205.425 99.8034 205.39 100.107H207.422C207.414 99.8164 207.318 99.5885 207.134 99.4236C206.95 99.2586 206.721 99.1761 206.447 99.1761ZM209.892 102.1C209.506 102.1 209.186 102.002 208.933 101.807C208.68 101.612 208.535 101.347 208.497 101.012H209.057C209.089 101.182 209.175 101.329 209.316 101.455C209.462 101.577 209.659 101.638 209.906 101.638C210.136 101.638 210.306 101.59 210.416 101.494C210.527 101.394 210.583 101.277 210.585 101.143C210.588 100.947 210.519 100.817 210.377 100.752C210.239 100.687 210.042 100.628 209.787 100.576C209.614 100.541 209.441 100.491 209.268 100.426C209.096 100.361 208.952 100.27 208.837 100.153C208.721 100.031 208.665 99.8729 208.669 99.6775C208.673 99.3953 208.781 99.1653 208.993 98.9873C209.208 98.8049 209.497 98.7138 209.857 98.7138C210.2 98.7138 210.479 98.8006 210.693 98.9743C210.911 99.1436 211.035 99.3867 211.065 99.7036H210.524C210.505 99.5386 210.436 99.4105 210.316 99.3194C210.2 99.2239 210.042 99.1761 209.843 99.1761C209.647 99.1761 209.495 99.2174 209.385 99.2998C209.279 99.3823 209.225 99.4909 209.223 99.6254C209.221 99.7557 209.287 99.8577 209.42 99.9315C209.558 100.005 209.743 100.068 209.977 100.12C210.176 100.164 210.364 100.218 210.541 100.283C210.722 100.344 210.868 100.437 210.979 100.563C211.094 100.685 211.15 100.863 211.146 101.097C211.145 101.388 211.031 101.629 210.802 101.82C210.577 102.007 210.274 102.1 209.892 102.1ZM212.1 103.454L212.93 101.709H212.741L211.507 98.7919H212.099L213.126 101.305L214.301 98.7919H214.867L212.673 103.454H212.1ZM216.436 102.1C216.05 102.1 215.73 102.002 215.477 101.807C215.224 101.612 215.079 101.347 215.041 101.012H215.601C215.633 101.182 215.72 101.329 215.861 101.455C216.007 101.577 216.203 101.638 216.451 101.638C216.681 101.638 216.851 101.59 216.961 101.494C217.071 101.394 217.127 101.277 217.13 101.143C217.133 100.947 217.063 100.817 216.921 100.752C216.783 100.687 216.587 100.628 216.331 100.576C216.158 100.541 215.985 100.491 215.813 100.426C215.64 100.361 215.496 100.27 215.381 100.153C215.266 100.031 215.21 99.8729 215.213 99.6775C215.218 99.3953 215.326 99.1653 215.537 98.9873C215.753 98.8049 216.041 98.7138 216.401 98.7138C216.744 98.7138 217.023 98.8006 217.237 98.9743C217.456 99.1436 217.58 99.3867 217.609 99.7036H217.069C217.05 99.5386 216.98 99.4105 216.86 99.3194C216.745 99.2239 216.587 99.1761 216.387 99.1761C216.192 99.1761 216.039 99.2174 215.929 99.2998C215.824 99.3823 215.77 99.4909 215.768 99.6254C215.765 99.7557 215.831 99.8577 215.964 99.9315C216.102 100.005 216.288 100.068 216.521 100.12C216.72 100.164 216.908 100.218 217.085 100.283C217.267 100.344 217.413 100.437 217.523 100.563C217.639 100.685 217.694 100.863 217.69 101.097C217.69 101.388 217.575 101.629 217.346 101.82C217.122 102.007 216.818 102.1 216.436 102.1ZM219.587 102.022C219.292 102.022 219.06 101.95 218.894 101.807C218.727 101.664 218.646 101.405 218.652 101.032L218.682 99.2543H218.122L218.129 98.7919H218.69L218.774 98.017H219.249L219.237 98.7919H220.187L220.18 99.2543H219.229L219.199 101.032C219.196 101.236 219.235 101.375 219.316 101.449C219.398 101.518 219.542 101.553 219.751 101.553H220.09L220.082 102.022H219.587ZM222.191 102.1C221.883 102.1 221.61 102.03 221.374 101.892C221.137 101.748 220.952 101.551 220.817 101.299C220.687 101.047 220.624 100.75 220.63 100.407C220.635 100.068 220.708 99.773 220.846 99.5212C220.985 99.2651 221.175 99.0676 221.416 98.9287C221.662 98.7854 221.943 98.7138 222.26 98.7138C222.573 98.7138 222.841 98.7854 223.064 98.9287C223.292 99.0676 223.465 99.2521 223.582 99.4822C223.7 99.7123 223.757 99.9597 223.752 100.225C223.752 100.272 223.749 100.32 223.744 100.368C223.743 100.416 223.742 100.47 223.741 100.531H221.168C221.177 100.778 221.23 100.984 221.327 101.149C221.429 101.31 221.555 101.431 221.706 101.514C221.861 101.596 222.025 101.638 222.199 101.638C222.424 101.638 222.614 101.585 222.768 101.481C222.921 101.377 223.035 101.236 223.107 101.058H223.647C223.556 101.358 223.384 101.607 223.134 101.807C222.887 102.002 222.573 102.1 222.191 102.1ZM222.239 99.1761C221.979 99.1761 221.745 99.2564 221.539 99.4171C221.336 99.5733 221.217 99.8034 221.182 100.107H223.214C223.206 99.8164 223.11 99.5885 222.926 99.4236C222.742 99.2586 222.513 99.1761 222.239 99.1761ZM224.448 102.022L224.501 98.7919H224.996L225.028 99.2608C225.135 99.0871 225.276 98.9525 225.451 98.857C225.626 98.7615 225.823 98.7138 226.04 98.7138C226.296 98.7138 226.514 98.7659 226.695 98.8701C226.88 98.9743 227.02 99.1327 227.117 99.3454C227.233 99.1501 227.39 98.996 227.587 98.8831C227.788 98.7702 228.004 98.7138 228.234 98.7138C228.621 98.7138 228.927 98.831 229.153 99.0654C229.38 99.2955 229.489 99.6515 229.481 100.133L229.449 102.022H228.909L228.939 100.192C228.945 99.8577 228.882 99.6059 228.75 99.4366C228.618 99.2673 228.426 99.1826 228.174 99.1826C227.914 99.1826 227.695 99.2846 227.518 99.4887C227.346 99.6884 227.256 99.9749 227.25 100.348L227.222 102.022H226.675L226.705 100.192C226.711 99.8577 226.648 99.6059 226.516 99.4366C226.384 99.2673 226.192 99.1826 225.941 99.1826C225.684 99.1826 225.468 99.2846 225.291 99.4887C225.118 99.6884 225.029 99.9749 225.023 100.348L224.995 102.022H224.448ZM233.07 102.1C232.801 102.1 232.578 102.054 232.402 101.963C232.225 101.872 232.095 101.75 232.011 101.598C231.926 101.447 231.886 101.282 231.889 101.104C231.894 100.774 232.024 100.52 232.279 100.342C232.534 100.164 232.878 100.075 233.312 100.075H234.185L234.186 100.036C234.19 99.7535 234.12 99.5408 233.975 99.3975C233.83 99.2499 233.633 99.1761 233.386 99.1761C233.173 99.1761 232.988 99.2304 232.83 99.3389C232.676 99.4431 232.578 99.5972 232.535 99.8012H231.975C232.001 99.5668 232.082 99.3693 232.22 99.2087C232.361 99.0481 232.535 98.9265 232.74 98.844C232.946 98.7572 233.163 98.7138 233.394 98.7138C233.845 98.7138 234.182 98.8353 234.403 99.0784C234.63 99.3172 234.739 99.6363 234.733 100.036L234.7 102.022H234.211L234.188 101.442C234.094 101.625 233.957 101.781 233.777 101.911C233.601 102.037 233.366 102.1 233.07 102.1ZM233.163 101.638C233.371 101.638 233.55 101.583 233.699 101.475C233.853 101.366 233.971 101.225 234.052 101.052C234.133 100.878 234.175 100.696 234.178 100.505L234.178 100.498H233.351C233.03 100.498 232.801 100.554 232.664 100.667C232.532 100.776 232.465 100.913 232.462 101.078C232.459 101.247 232.518 101.384 232.638 101.488C232.762 101.588 232.937 101.638 233.163 101.638ZM235.521 102.022L235.574 98.7919H236.069L236.092 99.3715C236.2 99.1674 236.352 99.0068 236.549 98.8896C236.747 98.7724 236.969 98.7138 237.217 98.7138C237.599 98.7138 237.901 98.831 238.123 99.0654C238.349 99.2955 238.458 99.6515 238.45 100.133L238.419 102.022H237.872L237.902 100.192C237.913 99.5191 237.641 99.1826 237.085 99.1826C236.807 99.1826 236.573 99.2846 236.383 99.4887C236.197 99.6884 236.102 99.9749 236.095 100.348L236.068 102.022H235.521ZM240.321 102.1C240.052 102.1 239.829 102.054 239.652 101.963C239.476 101.872 239.345 101.75 239.261 101.598C239.177 101.447 239.136 101.282 239.139 101.104C239.144 100.774 239.275 100.52 239.529 100.342C239.784 100.164 240.129 100.075 240.563 100.075H241.436L241.436 100.036C241.441 99.7535 241.371 99.5408 241.225 99.3975C241.08 99.2499 240.884 99.1761 240.636 99.1761C240.424 99.1761 240.238 99.2304 240.08 99.3389C239.926 99.4431 239.828 99.5972 239.786 99.8012H239.226C239.251 99.5668 239.333 99.3693 239.47 99.2087C239.612 99.0481 239.785 98.9265 239.991 98.844C240.196 98.7572 240.414 98.7138 240.644 98.7138C241.096 98.7138 241.432 98.8353 241.654 99.0784C241.88 99.3172 241.99 99.6363 241.983 100.036L241.95 102.022H241.462L241.439 101.442C241.345 101.625 241.207 101.781 241.027 101.911C240.852 102.037 240.616 102.1 240.321 102.1ZM240.413 101.638C240.622 101.638 240.8 101.583 240.95 101.475C241.104 101.366 241.221 101.225 241.302 101.052C241.383 100.878 241.425 100.696 241.428 100.505L241.428 100.498H240.601C240.28 100.498 240.051 100.554 239.915 100.667C239.783 100.776 239.715 100.913 239.713 101.078C239.71 101.247 239.768 101.384 239.888 101.488C240.012 101.588 240.187 101.638 240.413 101.638ZM242.771 102.022L242.849 97.3333H243.396L243.318 102.022H242.771ZM244.543 103.454L245.373 101.709H245.184L243.949 98.7919H244.542L245.568 101.305L246.743 98.7919H247.31L245.116 103.454H244.543ZM248.879 102.1C248.492 102.1 248.173 102.002 247.92 101.807C247.667 101.612 247.522 101.347 247.484 101.012H248.044C248.076 101.182 248.162 101.329 248.303 101.455C248.449 101.577 248.646 101.638 248.893 101.638C249.123 101.638 249.293 101.59 249.403 101.494C249.514 101.394 249.57 101.277 249.572 101.143C249.575 100.947 249.506 100.817 249.364 100.752C249.226 100.687 249.029 100.628 248.774 100.576C248.601 100.541 248.428 100.491 248.255 100.426C248.083 100.361 247.939 100.27 247.824 100.153C247.708 100.031 247.652 99.8729 247.656 99.6775C247.66 99.3953 247.768 99.1653 247.98 98.9873C248.195 98.8049 248.483 98.7138 248.844 98.7138C249.187 98.7138 249.465 98.8006 249.68 98.9743C249.898 99.1436 250.022 99.3867 250.052 99.7036H249.511C249.492 99.5386 249.423 99.4105 249.303 99.3194C249.187 99.2239 249.029 99.1761 248.83 99.1761C248.634 99.1761 248.482 99.2174 248.372 99.2998C248.266 99.3823 248.212 99.4909 248.21 99.6254C248.208 99.7557 248.273 99.8577 248.407 99.9315C248.545 100.005 248.73 100.068 248.964 100.12C249.163 100.164 249.351 100.218 249.528 100.283C249.709 100.344 249.855 100.437 249.966 100.563C250.081 100.685 250.137 100.863 250.133 101.097C250.132 101.388 250.018 101.629 249.789 101.82C249.564 102.007 249.261 102.1 248.879 102.1ZM251.297 98.0756C251.188 98.0756 251.098 98.0409 251.025 97.9714C250.957 97.8976 250.923 97.8065 250.925 97.6979C250.927 97.5938 250.963 97.5069 251.034 97.4375C251.109 97.368 251.2 97.3333 251.309 97.3333C251.413 97.3333 251.502 97.368 251.574 97.4375C251.647 97.5069 251.682 97.5938 251.681 97.6979C251.679 97.8065 251.64 97.8976 251.565 97.9714C251.49 98.0409 251.401 98.0756 251.297 98.0756ZM250.958 102.022L251.011 98.7919H251.558L251.505 102.022H250.958ZM253.693 102.1C253.307 102.1 252.987 102.002 252.734 101.807C252.481 101.612 252.336 101.347 252.298 101.012H252.858C252.89 101.182 252.977 101.329 253.118 101.455C253.264 101.577 253.46 101.638 253.708 101.638C253.938 101.638 254.108 101.59 254.218 101.494C254.328 101.394 254.384 101.277 254.387 101.143C254.39 100.947 254.32 100.817 254.178 100.752C254.04 100.687 253.844 100.628 253.588 100.576C253.415 100.541 253.242 100.491 253.07 100.426C252.897 100.361 252.753 100.27 252.638 100.153C252.523 100.031 252.467 99.8729 252.47 99.6775C252.475 99.3953 252.583 99.1653 252.794 98.9873C253.01 98.8049 253.298 98.7138 253.658 98.7138C254.001 98.7138 254.28 98.8006 254.494 98.9743C254.713 99.1436 254.837 99.3867 254.866 99.7036H254.326C254.307 99.5386 254.237 99.4105 254.117 99.3194C254.002 99.2239 253.844 99.1761 253.644 99.1761C253.449 99.1761 253.296 99.2174 253.186 99.2998C253.081 99.3823 253.027 99.4909 253.025 99.6254C253.022 99.7557 253.088 99.8577 253.221 99.9315C253.359 100.005 253.545 100.068 253.778 100.12C253.977 100.164 254.165 100.218 254.342 100.283C254.524 100.344 254.67 100.437 254.78 100.563C254.896 100.685 254.951 100.863 254.947 101.097C254.947 101.388 254.832 101.629 254.603 101.82C254.379 102.007 254.075 102.1 253.693 102.1Z" fill="white"/>
<path d="M198.5 144.137L198.575 139.579H199.213L200.802 142.756L202.483 139.579H203.128L203.052 144.137H202.505L202.564 140.555L200.992 143.486H200.581L199.106 140.562L199.047 144.137H198.5ZM205.432 144.215C205.124 144.215 204.852 144.146 204.615 144.007C204.379 143.863 204.193 143.666 204.058 143.414C203.928 143.162 203.866 142.865 203.871 142.522C203.877 142.183 203.949 141.888 204.088 141.636C204.227 141.38 204.417 141.183 204.658 141.044C204.903 140.901 205.184 140.829 205.501 140.829C205.814 140.829 206.082 140.901 206.305 141.044C206.533 141.183 206.706 141.367 206.824 141.597C206.942 141.827 206.998 142.075 206.994 142.34C206.993 142.387 206.99 142.435 206.985 142.483C206.984 142.531 206.983 142.585 206.982 142.646H204.41C204.419 142.893 204.472 143.099 204.569 143.264C204.67 143.425 204.796 143.546 204.947 143.629C205.102 143.711 205.266 143.753 205.44 143.753C205.666 143.753 205.855 143.701 206.009 143.596C206.163 143.492 206.276 143.351 206.348 143.173H206.889C206.797 143.473 206.626 143.722 206.375 143.922C206.129 144.117 205.814 144.215 205.432 144.215ZM205.481 141.291C205.22 141.291 204.987 141.372 204.78 141.532C204.578 141.688 204.459 141.919 204.423 142.222H206.455C206.447 141.932 206.351 141.704 206.167 141.539C205.983 141.374 205.754 141.291 205.481 141.291ZM207.689 144.137L207.743 140.907H208.238L208.269 141.376C208.376 141.202 208.517 141.068 208.692 140.972C208.868 140.877 209.064 140.829 209.281 140.829C209.537 140.829 209.756 140.881 209.936 140.985C210.121 141.089 210.262 141.248 210.358 141.461C210.474 141.265 210.631 141.111 210.828 140.998C211.03 140.885 211.246 140.829 211.476 140.829C211.862 140.829 212.168 140.946 212.395 141.181C212.621 141.411 212.73 141.767 212.722 142.248L212.691 144.137H212.15L212.181 142.307C212.186 141.973 212.123 141.721 211.991 141.552C211.859 141.382 211.668 141.298 211.416 141.298C211.155 141.298 210.937 141.4 210.76 141.604C210.587 141.803 210.497 142.09 210.491 142.463L210.464 144.137H209.916L209.947 142.307C209.952 141.973 209.889 141.721 209.757 141.552C209.626 141.382 209.434 141.298 209.182 141.298C208.926 141.298 208.709 141.4 208.532 141.604C208.36 141.803 208.27 142.09 208.264 142.463L208.236 144.137H207.689ZM214.985 144.215C214.682 144.215 214.409 144.146 214.168 144.007C213.927 143.868 213.738 143.672 213.598 143.421C213.464 143.164 213.399 142.865 213.405 142.522C213.411 142.179 213.487 141.882 213.635 141.63C213.782 141.374 213.979 141.176 214.224 141.037C214.474 140.898 214.751 140.829 215.055 140.829C215.359 140.829 215.631 140.898 215.872 141.037C216.113 141.176 216.3 141.374 216.435 141.63C216.574 141.882 216.641 142.179 216.635 142.522C216.629 142.865 216.553 143.164 216.405 143.421C216.258 143.672 216.059 143.868 215.81 144.007C215.564 144.146 215.289 144.215 214.985 144.215ZM214.993 143.746C215.18 143.746 215.354 143.701 215.517 143.609C215.679 143.518 215.811 143.382 215.914 143.199C216.017 143.017 216.071 142.791 216.075 142.522C216.08 142.253 216.033 142.027 215.937 141.845C215.844 141.662 215.718 141.526 215.559 141.434C215.4 141.343 215.229 141.298 215.047 141.298C214.86 141.298 214.686 141.343 214.524 141.434C214.361 141.526 214.229 141.662 214.126 141.845C214.023 142.027 213.969 142.253 213.965 142.522C213.961 142.791 214.007 143.017 214.104 143.199C214.2 143.382 214.326 143.518 214.481 143.609C214.64 143.701 214.811 143.746 214.993 143.746ZM217.369 144.137L217.423 140.907H217.918L217.953 141.526C218.056 141.313 218.211 141.144 218.417 141.018C218.623 140.892 218.876 140.829 219.176 140.829L219.166 141.402H219.017C218.825 141.402 218.649 141.437 218.487 141.506C218.326 141.571 218.196 141.684 218.097 141.845C217.999 142.005 217.948 142.227 217.943 142.509L217.916 144.137H217.369ZM220.063 145.569L220.893 143.824H220.704L219.469 140.907H220.062L221.088 143.421L222.263 140.907H222.83L220.636 145.569H220.063ZM225.253 144.137L225.299 141.369H224.811L224.818 140.907H225.307L225.316 140.347C225.321 140.034 225.403 139.807 225.562 139.663C225.721 139.52 225.95 139.448 226.249 139.448H226.575L226.567 139.917H226.326C226.161 139.917 226.043 139.952 225.973 140.021C225.902 140.087 225.866 140.199 225.863 140.36L225.854 140.907H226.648L226.641 141.369H225.846L225.8 144.137H225.253ZM228.59 144.215C228.286 144.215 228.013 144.146 227.772 144.007C227.532 143.868 227.342 143.672 227.202 143.421C227.068 143.164 227.003 142.865 227.009 142.522C227.015 142.179 227.091 141.882 227.239 141.63C227.386 141.374 227.583 141.176 227.828 141.037C228.078 140.898 228.355 140.829 228.659 140.829C228.963 140.829 229.235 140.898 229.476 141.037C229.717 141.176 229.904 141.374 230.039 141.63C230.178 141.882 230.245 142.179 230.239 142.522C230.234 142.865 230.157 143.164 230.009 143.421C229.862 143.672 229.663 143.868 229.414 144.007C229.168 144.146 228.893 144.215 228.59 144.215ZM228.597 143.746C228.784 143.746 228.958 143.701 229.121 143.609C229.283 143.518 229.415 143.382 229.518 143.199C229.621 143.017 229.675 142.791 229.679 142.522C229.684 142.253 229.637 142.027 229.541 141.845C229.448 141.662 229.322 141.526 229.163 141.434C229.004 141.343 228.833 141.298 228.651 141.298C228.464 141.298 228.29 141.343 228.128 141.434C227.965 141.526 227.833 141.662 227.73 141.845C227.627 142.027 227.574 142.253 227.569 142.522C227.565 142.791 227.611 143.017 227.708 143.199C227.804 143.382 227.93 143.518 228.085 143.609C228.244 143.701 228.415 143.746 228.597 143.746ZM230.973 144.137L231.027 140.907H231.522L231.557 141.526C231.66 141.313 231.815 141.144 232.021 141.018C232.227 140.892 232.48 140.829 232.78 140.829L232.77 141.402H232.621C232.43 141.402 232.253 141.437 232.091 141.506C231.93 141.571 231.8 141.684 231.701 141.845C231.603 142.005 231.552 142.227 231.547 142.509L231.52 144.137H230.973ZM234.669 144.215C234.361 144.215 234.089 144.146 233.852 144.007C233.616 143.863 233.43 143.666 233.295 143.414C233.165 143.162 233.103 142.865 233.108 142.522C233.114 142.183 233.186 141.888 233.325 141.636C233.464 141.38 233.654 141.183 233.895 141.044C234.14 140.901 234.421 140.829 234.738 140.829C235.051 140.829 235.319 140.901 235.542 141.044C235.77 141.183 235.943 141.367 236.061 141.597C236.179 141.827 236.235 142.075 236.231 142.34C236.23 142.387 236.227 142.435 236.222 142.483C236.221 142.531 236.22 142.585 236.219 142.646H233.647C233.656 142.893 233.709 143.099 233.806 143.264C233.907 143.425 234.033 143.546 234.184 143.629C234.339 143.711 234.503 143.753 234.677 143.753C234.903 143.753 235.092 143.701 235.246 143.596C235.4 143.492 235.513 143.351 235.585 143.173H236.126C236.034 143.473 235.863 143.722 235.612 143.922C235.366 144.117 235.051 144.215 234.669 144.215ZM234.718 141.291C234.457 141.291 234.224 141.372 234.017 141.532C233.815 141.688 233.696 141.919 233.66 142.222H235.692C235.684 141.932 235.588 141.704 235.404 141.539C235.22 141.374 234.991 141.291 234.718 141.291ZM236.926 144.137L236.98 140.907H237.475L237.498 141.487C237.605 141.283 237.758 141.122 237.955 141.005C238.152 140.887 238.375 140.829 238.622 140.829C239.004 140.829 239.306 140.946 239.528 141.181C239.754 141.411 239.864 141.767 239.856 142.248L239.824 144.137H239.277L239.308 142.307C239.319 141.634 239.046 141.298 238.491 141.298C238.213 141.298 237.979 141.4 237.789 141.604C237.603 141.803 237.507 142.09 237.501 142.463L237.473 144.137H236.926ZM241.889 144.215C241.503 144.215 241.183 144.117 240.93 143.922C240.677 143.727 240.532 143.462 240.494 143.128H241.054C241.086 143.297 241.173 143.444 241.314 143.57C241.459 143.692 241.656 143.753 241.903 143.753C242.133 143.753 242.304 143.705 242.414 143.609C242.524 143.51 242.58 143.392 242.582 143.258C242.586 143.062 242.516 142.932 242.374 142.867C242.236 142.802 242.04 142.743 241.784 142.691C241.611 142.657 241.438 142.607 241.266 142.541C241.093 142.476 240.949 142.385 240.834 142.268C240.719 142.146 240.663 141.988 240.666 141.793C240.671 141.51 240.779 141.28 240.99 141.102C241.206 140.92 241.494 140.829 241.854 140.829C242.197 140.829 242.476 140.916 242.69 141.089C242.909 141.259 243.033 141.502 243.062 141.819H242.522C242.503 141.654 242.433 141.526 242.313 141.434C242.197 141.339 242.04 141.291 241.84 141.291C241.645 141.291 241.492 141.332 241.382 141.415C241.276 141.497 241.223 141.606 241.22 141.741C241.218 141.871 241.284 141.973 241.417 142.047C241.555 142.12 241.741 142.183 241.974 142.235C242.173 142.279 242.361 142.333 242.538 142.398C242.719 142.459 242.865 142.552 242.976 142.678C243.091 142.8 243.147 142.978 243.143 143.212C243.143 143.503 243.028 143.744 242.799 143.935C242.575 144.122 242.271 144.215 241.889 144.215ZM244.307 140.191C244.198 140.191 244.108 140.156 244.035 140.087C243.967 140.013 243.934 139.922 243.936 139.813C243.937 139.709 243.973 139.622 244.044 139.553C244.119 139.483 244.211 139.448 244.319 139.448C244.424 139.448 244.512 139.483 244.585 139.553C244.657 139.622 244.693 139.709 244.691 139.813C244.689 139.922 244.651 140.013 244.576 140.087C244.501 140.156 244.411 140.191 244.307 140.191ZM243.968 144.137L244.022 140.907H244.569L244.515 144.137H243.968ZM246.951 144.215C246.643 144.215 246.366 144.146 246.121 144.007C245.88 143.863 245.69 143.666 245.551 143.414C245.417 143.158 245.352 142.861 245.358 142.522C245.363 142.183 245.438 141.888 245.581 141.636C245.728 141.38 245.925 141.183 246.17 141.044C246.42 140.901 246.699 140.829 247.007 140.829C247.389 140.829 247.709 140.929 247.966 141.128C248.228 141.328 248.391 141.595 248.454 141.929H247.894C247.854 141.73 247.75 141.576 247.583 141.467C247.415 141.354 247.219 141.298 246.993 141.298C246.811 141.298 246.638 141.343 246.476 141.434C246.314 141.526 246.182 141.662 246.079 141.845C245.976 142.027 245.922 142.253 245.918 142.522C245.913 142.791 245.959 143.017 246.056 143.199C246.153 143.382 246.281 143.52 246.44 143.616C246.599 143.707 246.77 143.753 246.952 143.753C247.178 143.753 247.377 143.698 247.548 143.59C247.719 143.477 247.828 143.319 247.875 143.115H248.435C248.364 143.44 248.195 143.705 247.927 143.909C247.658 144.113 247.333 144.215 246.951 144.215ZM250.418 144.215C250.032 144.215 249.712 144.117 249.459 143.922C249.206 143.727 249.061 143.462 249.023 143.128H249.583C249.615 143.297 249.701 143.444 249.843 143.57C249.988 143.692 250.185 143.753 250.432 143.753C250.662 143.753 250.832 143.705 250.943 143.609C251.053 143.51 251.109 143.392 251.111 143.258C251.114 143.062 251.045 142.932 250.903 142.867C250.765 142.802 250.568 142.743 250.313 142.691C250.14 142.657 249.967 142.607 249.794 142.541C249.622 142.476 249.478 142.385 249.363 142.268C249.247 142.146 249.191 141.988 249.195 141.793C249.199 141.51 249.307 141.28 249.519 141.102C249.735 140.92 250.023 140.829 250.383 140.829C250.726 140.829 251.005 140.916 251.219 141.089C251.437 141.259 251.561 141.502 251.591 141.819H251.05C251.031 141.654 250.962 141.526 250.842 141.434C250.726 141.339 250.569 141.291 250.369 141.291C250.173 141.291 250.021 141.332 249.911 141.415C249.805 141.497 249.751 141.606 249.749 141.741C249.747 141.871 249.813 141.973 249.946 142.047C250.084 142.12 250.269 142.183 250.503 142.235C250.702 142.279 250.89 142.333 251.067 142.398C251.248 142.459 251.394 142.552 251.505 142.678C251.62 142.8 251.676 142.978 251.672 143.212C251.672 143.503 251.557 143.744 251.328 143.935C251.103 144.122 250.8 144.215 250.418 144.215Z" fill="white"/>
<rect x="211.723" y="202.83" width="91.1772" height="15.1962" rx="7.5981" fill="#2A0F7F"/>
<path d="M236.037 212.171L236.06 210.785L234.91 208.525H235.405L236.286 210.369L237.228 208.525H237.718L236.498 210.785L236.475 212.171H236.037ZM239.706 212.234C239.348 212.234 239.035 212.156 238.767 211.999C238.502 211.84 238.295 211.617 238.147 211.332C238.003 211.048 237.933 210.719 237.94 210.348C237.946 209.976 238.026 209.65 238.18 209.369C238.337 209.084 238.551 208.861 238.821 208.702C239.095 208.542 239.411 208.462 239.768 208.462C240.13 208.462 240.443 208.542 240.707 208.702C240.976 208.861 241.182 209.084 241.327 209.369C241.471 209.65 241.541 209.976 241.535 210.348C241.528 210.719 241.448 211.048 241.294 211.332C241.14 211.617 240.926 211.84 240.653 211.999C240.383 212.156 240.067 212.234 239.706 212.234ZM239.712 211.848C239.98 211.848 240.215 211.789 240.418 211.671C240.625 211.55 240.786 211.378 240.901 211.155C241.019 210.93 241.081 210.66 241.086 210.348C241.092 210.035 241.039 209.768 240.928 209.546C240.82 209.323 240.665 209.153 240.462 209.035C240.263 208.914 240.029 208.853 239.762 208.853C239.494 208.853 239.257 208.914 239.05 209.035C238.847 209.153 238.686 209.323 238.568 209.546C238.453 209.768 238.393 210.035 238.388 210.348C238.382 210.66 238.434 210.93 238.541 211.155C238.652 211.378 238.807 211.55 239.006 211.671C239.209 211.789 239.445 211.848 239.712 211.848ZM243.609 212.234C243.359 212.234 243.132 212.185 242.929 212.088C242.729 211.987 242.57 211.833 242.452 211.624C242.334 211.416 242.278 211.15 242.283 210.827L242.321 208.525H242.759L242.721 210.832C242.715 211.187 242.795 211.444 242.963 211.603C243.131 211.763 243.352 211.843 243.626 211.843C243.9 211.843 244.122 211.763 244.292 211.603C244.461 211.444 244.549 211.187 244.554 210.832L244.593 208.525H245.03L244.992 210.827C244.987 211.15 244.922 211.416 244.797 211.624C244.672 211.833 244.506 211.987 244.299 212.088C244.093 212.185 243.863 212.234 243.609 212.234ZM245.867 212.171L245.928 208.525H247.105C247.39 208.525 247.622 208.571 247.801 208.665C247.98 208.759 248.112 208.888 248.196 209.051C248.28 209.214 248.321 209.395 248.317 209.593C248.313 209.822 248.247 210.028 248.119 210.212C247.995 210.397 247.802 210.527 247.54 210.603L248.311 212.171H247.795L247.08 210.666H247.049H246.33L246.305 212.171H245.867ZM246.336 210.322H247.044C247.326 210.322 247.532 210.254 247.662 210.119C247.793 209.983 247.86 209.81 247.864 209.598C247.867 209.382 247.806 209.212 247.68 209.087C247.557 208.959 247.351 208.894 247.063 208.894H246.359L246.336 210.322ZM252.214 212.234C251.874 212.234 251.577 212.156 251.322 211.999C251.068 211.84 250.872 211.619 250.734 211.338C250.596 211.053 250.531 210.725 250.537 210.353C250.543 209.981 250.62 209.653 250.767 209.369C250.917 209.084 251.126 208.861 251.393 208.702C251.663 208.542 251.978 208.462 252.34 208.462C252.749 208.462 253.088 208.561 253.356 208.759C253.627 208.957 253.8 209.23 253.874 209.577H253.368C253.323 209.358 253.21 209.184 253.028 209.056C252.849 208.927 252.618 208.863 252.333 208.863C252.065 208.863 251.832 208.924 251.632 209.046C251.432 209.164 251.274 209.334 251.16 209.556C251.048 209.778 250.99 210.044 250.985 210.353C250.98 210.662 251.029 210.928 251.133 211.15C251.237 211.372 251.384 211.544 251.573 211.666C251.762 211.784 251.983 211.843 252.237 211.843C252.626 211.843 252.921 211.73 253.123 211.504C253.325 211.275 253.443 210.963 253.477 210.567H252.424L252.43 210.223H253.931L253.898 212.171H253.497L253.471 211.572C253.335 211.784 253.171 211.947 252.978 212.062C252.785 212.176 252.531 212.234 252.214 212.234ZM254.747 212.171L254.807 208.525H255.985C256.27 208.525 256.502 208.571 256.681 208.665C256.86 208.759 256.991 208.888 257.075 209.051C257.159 209.214 257.2 209.395 257.197 209.593C257.193 209.822 257.127 210.028 256.999 210.212C256.874 210.397 256.681 210.527 256.419 210.603L257.19 212.171H256.675L255.96 210.666H255.928H255.209L255.184 212.171H254.747ZM255.215 210.322H255.924C256.205 210.322 256.411 210.254 256.542 210.119C256.673 209.983 256.74 209.81 256.743 209.598C256.747 209.382 256.685 209.212 256.559 209.087C256.436 208.959 256.23 208.894 255.942 208.894H255.239L255.215 210.322ZM257.992 212.171L258.052 208.525H259.229C259.514 208.525 259.746 208.571 259.925 208.665C260.104 208.759 260.236 208.888 260.32 209.051C260.404 209.214 260.445 209.395 260.441 209.593C260.438 209.822 260.372 210.028 260.244 210.212C260.119 210.397 259.926 210.527 259.664 210.603L260.435 212.171H259.919L259.204 210.666H259.173H258.454L258.429 212.171H257.992ZM258.46 210.322H259.168C259.45 210.322 259.656 210.254 259.787 210.119C259.917 209.983 259.984 209.81 259.988 209.598C259.992 209.382 259.93 209.212 259.804 209.087C259.681 208.959 259.475 208.894 259.187 208.894H258.484L258.46 210.322ZM263.932 212.234C263.665 212.234 263.433 212.185 263.236 212.088C263.04 211.991 262.89 211.855 262.785 211.682C262.68 211.508 262.629 211.306 262.633 211.077H263.092C263.089 211.22 263.12 211.352 263.184 211.473C263.248 211.591 263.342 211.687 263.466 211.76C263.593 211.829 263.751 211.864 263.938 211.864C264.185 211.864 264.377 211.805 264.514 211.687C264.652 211.569 264.722 211.421 264.725 211.244C264.727 211.098 264.698 210.982 264.637 210.895C264.576 210.805 264.492 210.732 264.385 210.676C264.282 210.621 264.161 210.572 264.023 210.53C263.888 210.489 263.747 210.442 263.598 210.39C263.318 210.292 263.112 210.173 262.979 210.03C262.846 209.884 262.781 209.695 262.785 209.462C262.785 209.268 262.833 209.096 262.929 208.947C263.025 208.794 263.159 208.676 263.331 208.592C263.506 208.505 263.712 208.462 263.948 208.462C264.181 208.462 264.381 208.505 264.55 208.592C264.722 208.679 264.854 208.799 264.945 208.952C265.04 209.105 265.088 209.278 265.088 209.473H264.629C264.631 209.372 264.607 209.273 264.556 209.176C264.506 209.075 264.427 208.993 264.32 208.931C264.217 208.868 264.086 208.837 263.926 208.837C263.728 208.834 263.564 208.884 263.434 208.988C263.307 209.092 263.242 209.237 263.239 209.421C263.236 209.577 263.278 209.697 263.363 209.78C263.452 209.863 263.576 209.933 263.735 209.988C263.894 210.041 264.077 210.101 264.284 210.171C264.457 210.233 264.612 210.306 264.75 210.39C264.887 210.473 264.993 210.581 265.067 210.713C265.145 210.845 265.182 211.013 265.179 211.218C265.176 211.392 265.128 211.556 265.035 211.713C264.942 211.866 264.803 211.991 264.617 212.088C264.435 212.185 264.207 212.234 263.932 212.234ZM265.94 212.171L266 208.525H268.256L268.25 208.884H266.432L266.411 210.155H268.073L268.067 210.509H266.405L266.383 211.812H268.202L268.196 212.171H265.94ZM269.037 212.171L269.097 208.525H270.275C270.56 208.525 270.792 208.571 270.971 208.665C271.15 208.759 271.281 208.888 271.366 209.051C271.45 209.214 271.49 209.395 271.487 209.593C271.483 209.822 271.417 210.028 271.289 210.212C271.164 210.397 270.971 210.527 270.709 210.603L271.481 212.171H270.965L270.25 210.666H270.219H269.5L269.475 212.171H269.037ZM269.505 210.322H270.214C270.495 210.322 270.701 210.254 270.832 210.119C270.963 209.983 271.03 209.81 271.033 209.598C271.037 209.382 270.976 209.212 270.849 209.087C270.726 208.959 270.521 208.894 270.232 208.894H269.529L269.505 210.322ZM273.228 212.171L271.919 208.525H272.393L273.491 211.708L274.706 208.525H275.17L273.739 212.171H273.228ZM275.766 212.171L275.826 208.525H278.082L278.076 208.884H276.258L276.237 210.155H277.899L277.893 210.509H276.231L276.209 211.812H278.028L278.022 212.171H275.766ZM278.863 212.171L278.923 208.525H280.101C280.386 208.525 280.617 208.571 280.797 208.665C280.976 208.759 281.107 208.888 281.191 209.051C281.275 209.214 281.316 209.395 281.313 209.593C281.309 209.822 281.243 210.028 281.115 210.212C280.99 210.397 280.797 210.527 280.535 210.603L281.306 212.171H280.791L280.076 210.666H280.044H279.325L279.3 212.171H278.863ZM279.331 210.322H280.04C280.321 210.322 280.527 210.254 280.658 210.119C280.789 209.983 280.856 209.81 280.859 209.598C280.863 209.382 280.801 209.212 280.675 209.087C280.552 208.959 280.346 208.894 280.058 208.894H279.355L279.331 210.322Z" fill="white"/>
<rect x="198.045" y="185.246" width="71.6393" height="3.03924" rx="1.51962" stroke="white" stroke-width="0.434177"/>
<rect x="293.131" y="185.246" width="9.98608" height="3.03924" rx="1.51962" stroke="white" stroke-width="0.434177"/>
<rect x="306.155" y="185.246" width="9.98608" height="3.03924" rx="1.51962" stroke="white" stroke-width="0.434177"/>
<rect x="197.83" y="62.5908" width="118.53" height="29.0899" rx="1.73671" fill="white"/>
<rect x="213.895" y="84.2997" width="2.17089" height="14.3279" rx="1.08544" transform="rotate(-180 213.895 84.2997)" fill="#2A0F7F"/>
<rect x="209.986" y="84.2997" width="2.17089" height="14.3279" rx="1.08544" transform="rotate(-180 209.986 84.2997)" fill="#2A0F7F"/>
<rect x="205.645" y="84.2997" width="2.17089" height="14.3279" rx="1.08544" transform="rotate(-180 205.645 84.2997)" fill="#2A0F7F"/>
<rect x="304.637" y="71.7085" width="5.21013" height="4.34177" rx="1.73671" fill="#2A0F7F"/>
<rect x="304.637" y="78.2212" width="5.21013" height="4.34177" rx="1.73671" fill="#E2E7FF"/>
<rect x="295.953" y="71.7085" width="5.21013" height="4.34177" rx="1.73671" fill="#E2E7FF"/>
<rect x="295.953" y="78.2212" width="5.21013" height="4.34177" rx="1.73671" fill="#2A0F7F"/>
<line x1="222.796" y1="74.9648" x2="287.054" y2="74.9648" stroke="#D8DEFF" stroke-width="1.30253" stroke-linecap="round"/>
<line x1="222.796" y1="80.1749" x2="287.054" y2="80.1749" stroke="#D8DEFF" stroke-width="1.30253" stroke-linecap="round"/>
<rect x="197.83" y="106.009" width="118.53" height="29.0899" rx="1.73671" fill="white"/>
<rect x="213.895" y="127.717" width="2.17089" height="14.3279" rx="1.08544" transform="rotate(-180 213.895 127.717)" fill="#2A0F7F"/>
<rect x="209.986" y="127.717" width="2.17089" height="14.3279" rx="1.08544" transform="rotate(-180 209.986 127.717)" fill="#2A0F7F"/>
<rect x="205.645" y="127.717" width="2.17089" height="14.3279" rx="1.08544" transform="rotate(-180 205.645 127.717)" fill="#2A0F7F"/>
<rect x="304.637" y="115.126" width="5.21013" height="4.34177" rx="1.73671" fill="#2A0F7F"/>
<rect x="304.637" y="121.639" width="5.21013" height="4.34177" rx="1.73671" fill="#E2E7FF"/>
<rect x="295.953" y="115.126" width="5.21013" height="4.34177" rx="1.73671" fill="#E2E7FF"/>
<rect x="295.953" y="121.639" width="5.21013" height="4.34177" rx="1.73671" fill="#2A0F7F"/>
<line x1="222.796" y1="118.383" x2="287.054" y2="118.383" stroke="#D8DEFF" stroke-width="1.30253" stroke-linecap="round"/>
<line x1="222.796" y1="123.593" x2="287.054" y2="123.593" stroke="#D8DEFF" stroke-width="1.30253" stroke-linecap="round"/>
<rect x="197.83" y="148.124" width="118.53" height="29.0899" rx="1.73671" fill="white"/>
<rect x="213.895" y="169.833" width="2.17089" height="14.3279" rx="1.08544" transform="rotate(-180 213.895 169.833)" fill="#2A0F7F"/>
<rect x="209.986" y="169.833" width="2.17089" height="14.3279" rx="1.08544" transform="rotate(-180 209.986 169.833)" fill="#2A0F7F"/>
<rect x="205.645" y="169.833" width="2.17089" height="14.3279" rx="1.08544" transform="rotate(-180 205.645 169.833)" fill="#2A0F7F"/>
<rect x="304.637" y="157.241" width="5.21013" height="4.34177" rx="1.73671" fill="#2A0F7F"/>
<rect x="304.637" y="163.754" width="5.21013" height="4.34177" rx="1.73671" fill="#E2E7FF"/>
<rect x="295.953" y="157.241" width="5.21013" height="4.34177" rx="1.73671" fill="#E2E7FF"/>
<rect x="295.953" y="163.754" width="5.21013" height="4.34177" rx="1.73671" fill="#2A0F7F"/>
<line x1="222.796" y1="160.498" x2="287.054" y2="160.498" stroke="#D8DEFF" stroke-width="1.30253" stroke-linecap="round"/>
<line x1="222.796" y1="165.708" x2="287.054" y2="165.708" stroke="#D8DEFF" stroke-width="1.30253" stroke-linecap="round"/>
<g filter="url(#filter4_d_454_173)">
<path d="M275.763 27.8566C275.763 38.0477 267.501 46.3092 257.31 46.3092C247.119 46.3092 238.858 38.0477 238.858 27.8566C238.858 17.6656 247.119 9.4041 257.31 9.4041C267.501 9.4041 275.763 17.6656 275.763 27.8566Z" fill="white" stroke="white" stroke-width="0.434177"/>
<path d="M257.219 45.0415C266.76 45.0415 274.495 37.3068 274.495 27.7655C274.495 18.2243 266.76 10.4896 257.219 10.4896C247.678 10.4896 239.943 18.2243 239.943 27.7655C239.943 37.3068 247.678 45.0415 257.219 45.0415Z" fill="url(#paint1_linear_454_173)"/>
<path d="M262.523 28.356L261.398 27.2359C261.081 26.9233 260.656 26.7452 260.213 26.7452H256.991C256.609 26.7452 256.414 27.2055 256.678 27.479L257.165 27.987L262.783 33.6052H264.598C265.145 33.6052 265.592 33.1624 265.592 32.611V31.8208C265.592 31.5559 265.488 31.3041 265.301 31.1174L262.527 28.356H262.523Z" fill="white"/>
<path d="M266.447 25.282L263.394 22.2298C263.208 22.0431 262.956 21.9389 262.691 21.9389H260.125V21.9302H251.841C251.58 21.9302 251.333 22.03 251.146 22.2124L248.003 25.282C247.812 25.4687 247.703 25.7249 247.703 25.9941V29.5543C247.703 29.8192 247.807 30.071 247.994 30.2577L251.046 33.31C251.233 33.4967 251.485 33.6009 251.745 33.6009H256.66V33.6095H262.496L257.329 28.4428C257.086 28.1997 256.751 28.0608 256.408 28.0608H254.576L254.29 27.7742L257.216 24.8435H258.71C259.009 24.8435 259.296 24.9564 259.513 25.1561L262.305 27.7699H265.735C266.282 27.7699 266.729 27.327 266.729 26.7756V25.9854C266.729 25.7205 266.625 25.4687 266.438 25.282H266.447Z" fill="white"/>
</g>
<path d="M74.3031 66.9327C74.3031 72.5678 69.735 77.1359 64.0999 77.1359C58.4649 77.1359 53.8968 72.5678 53.8968 66.9327C53.8968 61.2977 58.4649 56.7295 64.0999 56.7295C69.735 56.7295 74.3031 61.2977 74.3031 66.9327Z" fill="white" stroke="white" stroke-width="0.434177"/>
<path d="M64.0479 76.6459C69.4408 76.6459 73.8126 72.2741 73.8126 66.8812C73.8126 61.4884 69.4408 57.1166 64.0479 57.1166C58.6551 57.1166 54.2833 61.4884 54.2833 66.8812C54.2833 72.2741 58.6551 76.6459 64.0479 76.6459Z" fill="url(#paint2_linear_454_173)"/>
<path d="M67.0439 67.215L66.4084 66.5819C66.2292 66.4052 65.9887 66.3046 65.7384 66.3046H63.9175C63.7015 66.3046 63.5911 66.5647 63.7408 66.7193L64.0157 67.0064L67.1912 70.182H68.217C68.5262 70.182 68.779 69.9316 68.779 69.62V69.1733C68.779 69.0236 68.7201 68.8813 68.6145 68.7758L67.0464 67.215H67.0439Z" fill="white"/>
<path d="M69.2621 65.4775L67.537 63.7523C67.4314 63.6468 67.2891 63.5879 67.1394 63.5879H65.6891V63.583H61.0067C60.8595 63.583 60.7196 63.6395 60.6141 63.7425L58.8374 65.4775C58.7294 65.5831 58.668 65.7278 58.668 65.88V67.8923C58.668 68.042 58.7269 68.1843 58.8325 68.2899L60.5576 70.0151C60.6632 70.1206 60.8055 70.1795 60.9527 70.1795H63.7307V70.1844H67.029L64.1086 67.2641C63.9712 67.1266 63.7823 67.0481 63.5884 67.0481H62.5528L62.3908 66.8862L64.0448 65.2297H64.889C65.0584 65.2297 65.2203 65.2935 65.343 65.4064L66.921 66.8837H68.8597C69.1689 66.8837 69.4217 66.6334 69.4217 66.3217V65.8751C69.4217 65.7254 69.3628 65.5831 69.2572 65.4775H69.2621Z" fill="white"/>
<path d="M114.248 107.311C114.248 112.946 109.68 117.514 104.045 117.514C98.4102 117.514 93.8421 112.946 93.8421 107.311C93.8421 101.676 98.4102 97.108 104.045 97.108C109.68 97.108 114.248 101.676 114.248 107.311Z" fill="white" stroke="white" stroke-width="0.434177"/>
<path d="M103.993 117.024C109.386 117.024 113.758 112.653 113.758 107.26C113.758 101.867 109.386 97.495 103.993 97.495C98.6004 97.495 94.2286 101.867 94.2286 107.26C94.2286 112.653 98.6004 117.024 103.993 117.024Z" fill="url(#paint3_linear_454_173)"/>
<path d="M106.991 107.593L106.356 106.96C106.176 106.783 105.936 106.683 105.686 106.683H103.865C103.649 106.683 103.538 106.943 103.688 107.098L103.963 107.385L107.138 110.56H108.164C108.473 110.56 108.726 110.31 108.726 109.998V109.552C108.726 109.402 108.667 109.26 108.562 109.154L106.994 107.593H106.991Z" fill="white"/>
<path d="M109.209 105.856L107.484 104.131C107.379 104.025 107.236 103.966 107.087 103.966H105.636V103.961H100.954C100.807 103.961 100.667 104.018 100.561 104.121L98.7846 105.856C98.6766 105.961 98.6152 106.106 98.6152 106.258V108.271C98.6152 108.42 98.6741 108.563 98.7797 108.668L100.505 110.393C100.61 110.499 100.753 110.558 100.9 110.558H103.678V110.563H106.976L104.056 107.642C103.918 107.505 103.729 107.426 103.536 107.426H102.5L102.338 107.264L103.992 105.608H104.836C105.006 105.608 105.168 105.672 105.29 105.785L106.868 107.262H108.807C109.116 107.262 109.369 107.012 109.369 106.7V106.253C109.369 106.104 109.31 105.961 109.204 105.856H109.209Z" fill="white"/>
<path d="M143.772 152.9C143.772 158.535 139.204 163.103 133.569 163.103C127.934 163.103 123.366 158.535 123.366 152.9C123.366 147.265 127.934 142.697 133.569 142.697C139.204 142.697 143.772 147.265 143.772 152.9Z" fill="white" stroke="white" stroke-width="0.434177"/>
<path d="M133.517 162.613C138.91 162.613 143.281 158.241 143.281 152.848C143.281 147.455 138.91 143.084 133.517 143.084C128.124 143.084 123.752 147.455 123.752 152.848C123.752 158.241 128.124 162.613 133.517 162.613Z" fill="url(#paint4_linear_454_173)"/>
<path d="M136.511 153.182L135.875 152.549C135.696 152.372 135.455 152.271 135.205 152.271H133.384C133.168 152.271 133.058 152.532 133.208 152.686L133.482 152.973L136.658 156.149H137.684C137.993 156.149 138.246 155.899 138.246 155.587V155.14C138.246 154.991 138.187 154.848 138.081 154.743L136.513 153.182H136.511Z" fill="white"/>
<path d="M138.731 151.445L137.006 149.719C136.9 149.614 136.758 149.555 136.608 149.555H135.158V149.55H130.475C130.328 149.55 130.188 149.606 130.083 149.71L128.306 151.445C128.198 151.55 128.137 151.695 128.137 151.847V153.859C128.137 154.009 128.196 154.151 128.301 154.257L130.026 155.982C130.132 156.088 130.274 156.147 130.421 156.147H133.199V156.151H136.498L133.577 153.231C133.44 153.094 133.251 153.015 133.057 153.015H132.021L131.86 152.853L133.514 151.197H134.358C134.527 151.197 134.689 151.261 134.812 151.373L136.39 152.851H138.328C138.638 152.851 138.89 152.6 138.89 152.289V151.842C138.89 151.692 138.831 151.55 138.726 151.445H138.731Z" fill="white"/>
<path d="M175.827 81.2606L174.384 79.8173L172.94 81.2606L174.384 82.704L175.827 81.2606ZM66.2734 81.5106L67.3545 81.5106L67.3545 81.0106L66.2734 81.0106L66.2734 81.5106ZM69.5167 81.5106L71.6789 81.5106L71.6789 81.0106L69.5167 81.0106L69.5167 81.5106ZM73.8411 81.5106L76.0034 81.5106L76.0034 81.0106L73.8411 81.0106L73.8411 81.5106ZM78.1656 81.5106L80.3278 81.5106L80.3278 81.0106L78.1656 81.0106L78.1656 81.5106ZM82.49 81.5106L84.6522 81.5106L84.6522 81.0106L82.49 81.0106L82.49 81.5106ZM86.8144 81.5106L88.9766 81.5106L88.9766 81.0106L86.8144 81.0106L86.8144 81.5106ZM91.1388 81.5106L93.301 81.5106L93.301 81.0106L91.1388 81.0106L91.1388 81.5106ZM95.4632 81.5106L97.6254 81.5106L97.6254 81.0106L95.4632 81.0106L95.4632 81.5106ZM99.7876 81.5106L101.95 81.5106L101.95 81.0106L99.7876 81.0106L99.7876 81.5106ZM104.112 81.5106L106.274 81.5106L106.274 81.0106L104.112 81.0106L104.112 81.5106ZM108.436 81.5106L110.599 81.5106L110.599 81.0106L108.436 81.0106L108.436 81.5106ZM112.761 81.5106L114.923 81.5106L114.923 81.0106L112.761 81.0106L112.761 81.5106ZM117.085 81.5106L119.247 81.5106L119.247 81.0106L117.085 81.0106L117.085 81.5106ZM121.41 81.5106L123.572 81.5106L123.572 81.0106L121.41 81.0106L121.41 81.5106ZM125.734 81.5106L127.896 81.5106L127.896 81.0106L125.734 81.0106L125.734 81.5106ZM130.058 81.5106L132.221 81.5106L132.221 81.0106L130.058 81.0106L130.058 81.5106ZM134.383 81.5106L136.545 81.5106L136.545 81.0106L134.383 81.0106L134.383 81.5106ZM138.707 81.5106L140.869 81.5106L140.869 81.0106L138.707 81.0106L138.707 81.5106ZM143.032 81.5106L145.194 81.5106L145.194 81.0106L143.032 81.0106L143.032 81.5106ZM147.356 81.5106L149.518 81.5106L149.518 81.0106L147.356 81.0106L147.356 81.5106ZM151.68 81.5106L153.843 81.5106L153.843 81.0106L151.68 81.0106L151.68 81.5106ZM156.005 81.5106L158.167 81.5106L158.167 81.0106L156.005 81.0106L156.005 81.5106ZM160.329 81.5106L162.491 81.5106L162.491 81.0106L160.329 81.0106L160.329 81.5106ZM164.654 81.5106L166.816 81.5106L166.816 81.0106L164.654 81.0106L164.654 81.5106ZM168.978 81.5106L171.14 81.5106L171.14 81.0106L168.978 81.0106L168.978 81.5106ZM173.302 81.5106L174.384 81.5106L174.384 81.0106L173.302 81.0106L173.302 81.5106Z" fill="#2A0F7F"/>
<path d="M175.825 121.639L174.381 120.196L172.938 121.639L174.381 123.082L175.825 121.639ZM105.781 121.889L106.853 121.889L106.853 121.389L105.781 121.389L105.781 121.889ZM108.997 121.889L111.141 121.889L111.141 121.389L108.997 121.389L108.997 121.889ZM113.284 121.889L115.428 121.889L115.428 121.389L113.284 121.389L113.284 121.889ZM117.572 121.889L119.716 121.889L119.716 121.389L117.572 121.389L117.572 121.889ZM121.859 121.889L124.003 121.889L124.003 121.389L121.859 121.389L121.859 121.889ZM126.147 121.889L128.291 121.889L128.291 121.389L126.147 121.389L126.147 121.889ZM130.434 121.889L132.578 121.889L132.578 121.389L130.434 121.389L130.434 121.889ZM134.722 121.889L136.866 121.889L136.866 121.389L134.722 121.389L134.722 121.889ZM139.009 121.889L141.153 121.889L141.153 121.389L139.009 121.389L139.009 121.889ZM143.297 121.889L145.441 121.889L145.441 121.389L143.297 121.389L143.297 121.889ZM147.584 121.889L149.728 121.889L149.728 121.389L147.584 121.389L147.584 121.889ZM151.872 121.889L154.016 121.889L154.016 121.389L151.872 121.389L151.872 121.889ZM156.159 121.889L158.303 121.889L158.303 121.389L156.159 121.389L156.159 121.889ZM160.447 121.889L162.591 121.889L162.591 121.389L160.447 121.389L160.447 121.889ZM164.734 121.889L166.878 121.889L166.878 121.389L164.734 121.389L164.734 121.889ZM169.022 121.889L171.166 121.889L171.166 121.389L169.022 121.389L169.022 121.889ZM173.309 121.889L174.381 121.889L174.381 121.389L173.309 121.389L173.309 121.889Z" fill="#2A0F7F"/>
<path d="M175.825 168.53L174.382 167.087L172.939 168.53L174.382 169.974L175.825 168.53ZM135.74 168.78L136.814 168.78L136.814 168.28L135.74 168.28L135.74 168.78ZM138.96 168.78L141.107 168.78L141.107 168.28L138.96 168.28L138.96 168.78ZM143.254 168.78L145.401 168.78L145.401 168.28L143.254 168.28L143.254 168.78ZM147.547 168.78L149.694 168.78L149.694 168.28L147.547 168.28L147.547 168.78ZM151.841 168.78L153.988 168.78L153.988 168.28L151.841 168.28L151.841 168.78ZM156.135 168.78L158.281 168.78L158.281 168.28L156.135 168.28L156.135 168.78ZM160.428 168.78L162.575 168.78L162.575 168.28L160.428 168.28L160.428 168.78ZM164.722 168.78L166.868 168.78L166.868 168.28L164.722 168.28L164.722 168.78ZM169.015 168.78L171.162 168.78L171.162 168.28L169.015 168.28L169.015 168.78ZM173.309 168.78L174.382 168.78L174.382 168.28L173.309 168.28L173.309 168.78Z" fill="#2A0F7F"/>
<rect x="213.893" y="31.2556" width="3.14344" height="3.14344" transform="rotate(-45 213.893 31.2556)" fill="#2A0F7F"/>
<rect x="331.555" y="200.711" width="3.14344" height="3.14344" transform="rotate(-45 331.555 200.711)" fill="#2A0F7F"/>
<rect x="178.291" y="143.834" width="3.14344" height="3.14344" transform="rotate(-45 178.291 143.834)" fill="#2A0F7F"/>
<defs>
<filter id="filter0_d_454_173" x="0.277213" y="51.3023" width="93.7823" height="67.7317" filterUnits="userSpaceOnUse" color-interpolation-filters="sRGB">
<feFlood flood-opacity="0" result="BackgroundImageFix"/>
<feColorMatrix in="SourceAlpha" type="matrix" values="0 0 0 0 0 0 0 0 0 0 0 0 0 0 0 0 0 0 127 0" result="hardAlpha"/>
<feOffset dx="9.11772" dy="7.81519"/>
<feGaussianBlur stdDeviation="10.4203"/>
<feComposite in2="hardAlpha" operator="out"/>
<feColorMatrix type="matrix" values="0 0 0 0 0.8875 0 0 0 0 0.473333 0 0 0 0 0.47925 0 0 0 0.6 0"/>
<feBlend mode="normal" in2="BackgroundImageFix" result="effect1_dropShadow_454_173"/>
<feBlend mode="normal" in="SourceGraphic" in2="effect1_dropShadow_454_173" result="shape"/>
</filter>
<filter id="filter1_d_454_173" x="40.2225" y="91.6807" width="93.7823" height="67.7317" filterUnits="userSpaceOnUse" color-interpolation-filters="sRGB">
<feFlood flood-opacity="0" result="BackgroundImageFix"/>
<feColorMatrix in="SourceAlpha" type="matrix" values="0 0 0 0 0 0 0 0 0 0 0 0 0 0 0 0 0 0 127 0" result="hardAlpha"/>
<feOffset dx="9.11772" dy="7.81519"/>
<feGaussianBlur stdDeviation="10.4203"/>
<feComposite in2="hardAlpha" operator="out"/>
<feColorMatrix type="matrix" values="0 0 0 0 0.8875 0 0 0 0 0.473333 0 0 0 0 0.47925 0 0 0 0.6 0"/>
<feBlend mode="normal" in2="BackgroundImageFix" result="effect1_dropShadow_454_173"/>
<feBlend mode="normal" in="SourceGraphic" in2="effect1_dropShadow_454_173" result="shape"/>
</filter>
<filter id="filter2_d_454_173" x="69.744" y="137.269" width="93.7823" height="67.7317" filterUnits="userSpaceOnUse" color-interpolation-filters="sRGB">
<feFlood flood-opacity="0" result="BackgroundImageFix"/>
<feColorMatrix in="SourceAlpha" type="matrix" values="0 0 0 0 0 0 0 0 0 0 0 0 0 0 0 0 0 0 127 0" result="hardAlpha"/>
<feOffset dx="9.11772" dy="7.81519"/>
<feGaussianBlur stdDeviation="10.4203"/>
<feComposite in2="hardAlpha" operator="out"/>
<feColorMatrix type="matrix" values="0 0 0 0 0.8875 0 0 0 0 0.473333 0 0 0 0 0.47925 0 0 0 0.6 0"/>
<feBlend mode="normal" in2="BackgroundImageFix" result="effect1_dropShadow_454_173"/>
<feBlend mode="normal" in="SourceGraphic" in2="effect1_dropShadow_454_173" result="shape"/>
</filter>
<filter id="filter3_d_454_173" x="164.829" y="12.2262" width="205.8" height="227.943" filterUnits="userSpaceOnUse" color-interpolation-filters="sRGB">
<feFlood flood-opacity="0" result="BackgroundImageFix"/>
<feColorMatrix in="SourceAlpha" type="matrix" values="0 0 0 0 0 0 0 0 0 0 0 0 0 0 0 0 0 0 127 0" result="hardAlpha"/>
<feOffset dx="10.4203" dy="9.11772"/>
<feGaussianBlur stdDeviation="17.8013"/>
<feComposite in2="hardAlpha" operator="out"/>
<feColorMatrix type="matrix" values="0 0 0 0 0.886275 0 0 0 0 0.47451 0 0 0 0 0.478431 0 0 0 0.8 0"/>
<feBlend mode="normal" in2="BackgroundImageFix" result="effect1_dropShadow_454_173"/>
<feBlend mode="normal" in="SourceGraphic" in2="effect1_dropShadow_454_173" result="shape"/>
</filter>
<filter id="filter4_d_454_173" x="227.786" y="0.069288" width="59.0481" height="59.0481" filterUnits="userSpaceOnUse" color-interpolation-filters="sRGB">
<feFlood flood-opacity="0" result="BackgroundImageFix"/>
<feColorMatrix in="SourceAlpha" type="matrix" values="0 0 0 0 0 0 0 0 0 0 0 0 0 0 0 0 0 0 127 0" result="hardAlpha"/>
<feOffset dy="1.73671"/>
<feGaussianBlur stdDeviation="5.42722"/>
<feComposite in2="hardAlpha" operator="out"/>
<feColorMatrix type="matrix" values="0 0 0 0 0.0901961 0 0 0 0 0.160784 0 0 0 0 0.45098 0 0 0 0.25 0"/>
<feBlend mode="normal" in2="BackgroundImageFix" result="effect1_dropShadow_454_173"/>
<feBlend mode="normal" in="SourceGraphic" in2="effect1_dropShadow_454_173" result="shape"/>
</filter>
<linearGradient id="paint0_linear_454_173" x1="281.623" y1="146.946" x2="136.813" y2="-15.7292" gradientUnits="userSpaceOnUse">
<stop stop-color="#FF5F61"/>
<stop offset="0.620473" stop-color="#092184"/>
</linearGradient>
<linearGradient id="paint1_linear_454_173" x1="250.863" y1="22.69" x2="279.888" y2="45.862" gradientUnits="userSpaceOnUse">
<stop stop-color="#FF5F61"/>
<stop offset="1" stop-color="#2A0F7F"/>
</linearGradient>
<linearGradient id="paint2_linear_454_173" x1="60.4552" y1="64.0124" x2="76.8605" y2="77.1097" gradientUnits="userSpaceOnUse">
<stop stop-color="#FF5F61"/>
<stop offset="1" stop-color="#2A0F7F"/>
</linearGradient>
<linearGradient id="paint3_linear_454_173" x1="100.401" y1="104.391" x2="116.806" y2="117.488" gradientUnits="userSpaceOnUse">
<stop stop-color="#FF5F61"/>
<stop offset="1" stop-color="#2A0F7F"/>
</linearGradient>
<linearGradient id="paint4_linear_454_173" x1="129.924" y1="149.979" x2="146.329" y2="163.077" gradientUnits="userSpaceOnUse">
<stop stop-color="#FF5F61"/>
<stop offset="1" stop-color="#2A0F7F"/>
</linearGradient>
</defs>
</svg>
