<svg width="82" height="72" viewBox="0 0 82 72" fill="none" xmlns="http://www.w3.org/2000/svg">
<g clip-path="url(#clip0_408_176)">
<path d="M18.1425 68.2915L1.57208 39.5898C0.275454 37.3439 0.275454 34.5769 1.57208 32.3311L18.1425 3.62968C19.4394 1.38346 21.8361 0 24.4297 0H57.5705C60.1641 0 62.5604 1.38379 63.857 3.62968L80.4274 32.3307C81.7244 34.5766 81.7244 37.3442 80.4274 39.5901L63.857 68.2911C62.5601 70.537 60.1637 71.9202 57.5705 71.9202H24.4297C21.8361 71.9202 19.4391 70.5367 18.1425 68.2905V68.2911V68.2915Z" fill="url(#paint0_linear_408_176)"/>
<path opacity="0.07" d="M74.8918 49.1797L51.4949 25.7815L41.0003 22.9731L31.5739 26.4765L27.9336 35.9613L30.8606 46.5215L56.287 71.9478L58.1447 71.7957C60.5673 71.5975 62.7382 70.223 63.954 68.1183L74.8918 49.1797Z" fill="black"/>
<path d="M40.9955 21.3179C32.9092 21.3179 26.3535 27.8736 26.3535 35.9606C26.3535 44.0476 32.9092 50.6026 40.9955 50.6026C49.0819 50.6026 55.6369 44.0469 55.6369 35.9606C55.6369 27.8742 49.0812 21.3179 40.9955 21.3179ZM40.9955 47.0697C34.8598 47.0697 29.8854 42.0953 29.8854 35.9596C29.8854 29.8238 34.8598 24.8501 40.9955 24.8501C47.1313 24.8501 52.1057 29.8245 52.1057 35.9602C52.1057 42.096 47.1313 47.0704 40.9955 47.0704" fill="white"/>
<path d="M34.0449 35.3945V39.9459C34.7184 41.102 35.6684 42.0728 36.8099 42.7708V35.3948H34.0449V35.3945ZM39.5274 31.5576V43.8109C39.9977 43.8974 40.4787 43.9498 40.9728 43.9498C41.4236 43.9498 41.8628 43.9024 42.294 43.8305V31.5576H39.5271H39.5274ZM45.2661 37.2857V42.6906C46.4258 41.9531 47.3777 40.932 48.0323 39.7238V37.2867L45.2661 37.286V37.2857ZM51.5311 44.9789L50.0141 46.497C49.7466 46.7651 49.7466 47.199 50.0141 47.4671L55.768 53.219C56.0361 53.4865 56.47 53.4865 56.7381 53.219L58.2552 51.7027C58.521 51.4342 58.521 51.0017 58.2552 50.7332L52.5006 44.9786C52.2325 44.7121 51.7992 44.7121 51.5311 44.9786" fill="white"/>
</g>
<defs>
<linearGradient id="paint0_linear_408_176" x1="41.0451" y1="-0.254933" x2="41.0451" y2="71.5677" gradientUnits="userSpaceOnUse">
<stop stop-color="#4387FD"/>
<stop offset="1" stop-color="#4683EA"/>
</linearGradient>
<clipPath id="clip0_408_176">
<rect width="80.8006" height="71.9473" fill="white" transform="translate(0.599609)"/>
</clipPath>
</defs>
</svg>
