<svg width="67" height="66" viewBox="0 0 67 66" fill="none" xmlns="http://www.w3.org/2000/svg">
<g clip-path="url(#clip0_408_123)">
<path d="M32.933 0C16.1296 1.19888e-06 17.1789 7.28694 17.1789 7.28694L17.1977 14.8361H33.2327V17.1028H10.8286C10.8286 17.1028 0.0761719 15.8833 0.0761719 32.838C0.0761707 49.7928 9.46115 49.1915 9.46115 49.1915H15.0622V41.3239C15.0622 41.3239 14.7603 31.9389 24.2973 31.9389C33.8343 31.9389 40.2012 31.9389 40.2012 31.9389C40.2012 31.9389 49.1366 32.0833 49.1366 23.3032C49.1366 14.5231 49.1366 8.78554 49.1366 8.78554C49.1366 8.78553 50.4932 0 32.933 0ZM24.0912 5.0765C25.6866 5.0765 26.976 6.36594 26.976 7.96131C26.976 9.55667 25.6866 10.8461 24.0912 10.8461C22.4959 10.8461 21.2064 9.55667 21.2064 7.96131C21.2064 6.36594 22.4959 5.0765 24.0912 5.0765Z" fill="url(#paint0_linear_408_123)"/>
<path d="M33.4115 65.846C50.2148 65.846 49.1655 58.5591 49.1655 58.5591L49.1468 51.0099H33.1118V48.7432H55.5158C55.5158 48.7432 66.2683 49.9627 66.2683 33.008C66.2683 16.0532 56.8833 16.6545 56.8833 16.6545H51.2823V24.5221C51.2823 24.5221 51.5842 33.9071 42.0472 33.9071C32.5101 33.9071 26.1433 33.9071 26.1433 33.9071C26.1433 33.9071 17.2079 33.7627 17.2079 42.5428C17.2079 51.3229 17.2079 57.0605 17.2079 57.0605C17.2079 57.0605 15.8513 65.846 33.4115 65.846ZM42.2532 60.7695C40.6579 60.7695 39.3684 59.4801 39.3684 57.8847C39.3684 56.2893 40.6579 54.9999 42.2532 54.9999C43.8486 54.9999 45.138 56.2893 45.138 57.8847C45.138 59.4801 43.8486 60.7695 42.2532 60.7695Z" fill="url(#paint1_linear_408_123)"/>
</g>
<defs>
<linearGradient id="paint0_linear_408_123" x1="6.43723" y1="5.75553" x2="39.1666" y2="38.5944" gradientUnits="userSpaceOnUse">
<stop stop-color="#387EB8"/>
<stop offset="1" stop-color="#366994"/>
</linearGradient>
<linearGradient id="paint1_linear_408_123" x1="26.5723" y1="26.6461" x2="61.7238" y2="60.323" gradientUnits="userSpaceOnUse">
<stop stop-color="#FFE052"/>
<stop offset="1" stop-color="#FFC331"/>
</linearGradient>
<clipPath id="clip0_408_123">
<rect width="66.1908" height="65.8461" fill="white" transform="translate(0.078125)"/>
</clipPath>
</defs>
</svg>
