<svg width="19" height="18" viewBox="0 0 19 18" fill="none" xmlns="http://www.w3.org/2000/svg">
<path fill-rule="evenodd" clip-rule="evenodd" d="M9.11153 0C4.07754 0 0 4.07754 0 9.11153C0 13.1387 2.61208 16.5507 6.23097 17.7588C6.68403 17.8427 6.85183 17.563 6.85183 17.3169C6.85183 17.0988 6.84623 16.5283 6.84064 15.7676C4.30686 16.3157 3.7699 14.5482 3.7699 14.5482C3.356 13.4967 2.75751 13.217 2.75751 13.217C1.9297 12.6521 2.81904 12.6633 2.81904 12.6633C3.73075 12.7304 4.21737 13.603 4.21737 13.603C5.0284 14.9957 6.34843 14.593 6.86861 14.3581C6.95251 13.7708 7.18743 13.3681 7.44472 13.1387C5.41993 12.9094 3.29447 12.1263 3.29447 8.6361C3.29447 7.64048 3.64685 6.82945 4.23415 6.19181C4.13906 5.96249 3.82584 5.03399 4.32364 3.78109C4.32364 3.78109 5.08993 3.53498 6.82945 4.71518C7.55659 4.51382 8.33406 4.41314 9.11153 4.40754C9.88341 4.40754 10.6665 4.51382 11.3936 4.71518C13.1331 3.53498 13.8994 3.78109 13.8994 3.78109C14.3972 5.03399 14.084 5.96249 13.9889 6.19181C14.5706 6.82945 14.923 7.64048 14.923 8.6361C14.923 12.1375 12.7919 12.9038 10.7616 13.1331C11.086 13.4128 11.3824 13.9721 11.3824 14.8223C11.3824 16.0417 11.3712 17.0205 11.3712 17.3225C11.3712 17.5686 11.5334 17.8483 11.9977 17.7588C15.6166 16.5507 18.2231 13.1387 18.2231 9.11712C18.2231 4.07754 14.1455 0 9.11153 0Z" fill="#13263D"/>
</svg>
