<svg width="217" height="89" viewBox="0 0 217 89" fill="none" xmlns="http://www.w3.org/2000/svg">
<g clip-path="url(#clip0_454_286)">
<path d="M175.266 66.488L152.674 43.8956C149.632 40.8539 151.792 35.6525 156.089 35.6525H193.392C194.67 35.6525 195.891 36.1613 196.796 37.0546L213.531 53.7331C214.436 54.6377 214.956 55.8703 214.956 57.1593V63.0844C214.956 65.753 212.796 67.9127 210.127 67.9127H178.681C177.404 67.9127 176.171 67.4039 175.266 66.4993V66.488Z" fill="#2A0F7F"/>
<path d="M214.876 19.7543L196.694 1.57184C195.755 0.633323 194.489 0.113178 193.166 0.101871L156.235 0.0566406C151.78 0.0566406 149.541 5.43901 152.696 8.59379L165.394 21.2921H169.816C171.093 21.2921 172.315 21.7783 173.242 22.649L185.33 33.9678H211.348C214.107 33.9678 216.346 31.7289 216.346 28.9699V23.2822C216.346 21.9592 215.815 20.6815 214.876 19.743V19.7543Z" fill="#2A0F7F"/>
<path d="M86.1296 37.3146V37.292L79.5826 30.8128C77.7508 28.9923 75.2631 27.9746 72.6737 27.9859L58.0419 28.0312C54.2765 28.0312 52.3655 32.5655 54.9775 35.268L87.7127 67.8109L98.2513 67.777C101.44 67.777 104.018 65.1763 104.007 61.9875V57.3967C103.984 55.8589 103.374 54.3889 102.277 53.3147L86.107 37.3033L86.1296 37.3146Z" fill="#2A0F7F"/>
<path d="M108.891 19.3697L91.1044 1.68477C90.0189 0.610559 88.5489 -4.50509e-05 87.0224 -4.50509e-05L72.0965 0.0225699L72.1305 -0.0113525L23.9606 0.135645C22.4567 0.135645 21.0093 0.734942 19.9351 1.78654L1.73005 19.675C0.621912 20.7605 0 22.2531 0 23.8135L0.0565374 44.5062C0.0565374 46.0327 0.678449 47.5027 1.76397 48.5882L19.5506 66.2731C20.6362 67.3474 22.1061 67.958 23.6327 67.9467L52.2067 67.8901L52.2293 67.9127L86.1291 67.811L55.7685 37.6313C54.4908 36.3648 52.7607 35.6525 50.9629 35.6525L39.9833 35.6864L38.3098 34.0129L55.2823 16.9386L55.3049 16.9612V16.9273L63.9778 16.9046C65.7078 16.9046 67.3813 17.5492 68.6478 18.7365L84.9192 33.8772L104.854 33.8207C108.043 33.8207 110.621 31.2199 110.61 28.0312V23.4404C110.587 21.9139 109.977 20.4439 108.891 19.3584V19.3697Z" fill="#2A0F7F"/>
<path d="M31.2193 79.0847V80.2832C31.2193 83.8677 29.9076 85.4395 26.832 85.4395C23.7563 85.4395 22.162 83.7773 22.162 79.1751C22.162 74.573 23.7111 72.9108 26.8207 72.9108C29.1839 72.9108 30.8688 73.8154 31.0723 76.9362C31.0949 77.1285 31.0158 77.2302 30.8348 77.2302H29.6136C29.4553 77.2302 29.3536 77.1624 29.3309 76.9928C29.0935 75.0818 28.1097 74.6747 26.8207 74.6747C25.0793 74.6747 23.9599 75.455 23.9599 79.1638C23.9599 82.8727 25.0906 83.6529 26.8659 83.6529C28.6412 83.6529 29.4779 83.0083 29.4779 80.3059V80.2832H26.4928C26.3345 80.2832 26.2214 80.1815 26.2214 80.0119V79.0733C26.2214 78.915 26.3345 78.802 26.4928 78.802H30.9479C31.1062 78.802 31.2193 78.915 31.2193 79.0733V79.0847Z" fill="black"/>
<path d="M33.8642 85.1568C33.7059 85.1568 33.5928 85.0438 33.5928 84.8855V73.3518C33.5928 73.1935 33.7059 73.0804 33.8642 73.0804H37.9914C40.9653 73.0804 42.2091 74.607 42.2091 77.0381C42.2091 78.8473 41.5193 80.1589 39.9137 80.713L42.0847 84.8402C42.1865 85.0325 42.0847 85.1568 41.8812 85.1568H40.5582C40.4112 85.1568 40.3094 85.089 40.2416 84.9646L38.1836 81.007H35.4585V84.8968C35.4585 85.0551 35.3454 85.1682 35.1871 85.1682H33.8755L33.8642 85.1568ZM35.4472 79.3222H37.8331C39.4501 79.3222 40.4225 78.7681 40.4225 77.0381C40.4225 75.308 39.4614 74.7653 37.8331 74.7653H35.4472V79.3222Z" fill="black"/>
<path d="M44.9365 85.1568C44.7782 85.1568 44.6652 85.0438 44.6652 84.8855V73.3518C44.6652 73.1935 44.7782 73.0804 44.9365 73.0804H49.0638C52.0376 73.0804 53.2815 74.607 53.2815 77.0381C53.2815 78.8473 52.5917 80.1589 50.986 80.713L53.1571 84.8402C53.2589 85.0325 53.1571 85.1568 52.9536 85.1568H51.6306C51.4836 85.1568 51.3818 85.089 51.314 84.9646L49.256 81.007H46.5309V84.8968C46.5309 85.0551 46.4178 85.1682 46.2595 85.1682H44.9478L44.9365 85.1568ZM46.5196 79.3222H48.9055C50.5224 79.3222 51.4949 78.7681 51.4949 77.0381C51.4949 75.308 50.5337 74.7653 48.9055 74.7653H46.5196V79.3222Z" fill="black"/>
<path d="M67.0756 85.1568C66.9173 85.1568 66.8042 85.0438 66.8042 84.8855V73.3518C66.8042 73.1935 66.9173 73.0804 67.0756 73.0804H71.2028C74.1767 73.0804 75.4205 74.607 75.4205 77.0381C75.4205 78.8473 74.7307 80.1589 73.1251 80.713L75.2961 84.8402C75.3979 85.0325 75.2961 85.1568 75.0926 85.1568H73.7696C73.6226 85.1568 73.5208 85.089 73.453 84.9646L71.395 81.007H68.6699V84.8968C68.6699 85.0551 68.5569 85.1682 68.3986 85.1682H67.0869L67.0756 85.1568ZM68.6586 79.3222H71.0445C72.6615 79.3222 73.6339 78.7681 73.6339 77.0381C73.6339 75.308 72.6728 74.7653 71.0445 74.7653H68.6586V79.3222Z" fill="black"/>
<path d="M86.5128 84.467V84.6819C86.5128 85.1455 86.0718 85.3038 85.6534 85.3038C84.8619 85.3038 84.2852 84.7723 84.2852 83.7886V83.4607H84.2174C83.8329 84.5236 82.6682 85.3829 80.9269 85.3829H80.4859C78.6315 85.3829 77.5912 84.3653 77.5912 82.7596C77.5912 81.3122 78.4279 80.3172 80.3276 80.2041L84.0591 79.9666V79.3786C84.0591 77.9878 83.505 77.5468 81.9106 77.5468C80.599 77.5468 79.8753 77.8408 79.7735 78.7454C79.7509 78.8698 79.6605 78.9377 79.5021 78.9377H78.3262C78.1679 78.9377 78.0548 78.8472 78.0661 78.6663C78.1453 76.7553 79.6378 76.0656 81.9446 76.0656C84.9297 76.0656 85.823 77.2755 85.823 79.3673V82.8953C85.823 83.5737 85.9135 83.7999 86.1736 83.9469C86.3997 84.0826 86.5128 84.1843 86.5128 84.467ZM81.3566 83.9582C82.6682 83.9582 84.0704 83.4041 84.0704 81.8663V81.1539L80.8138 81.3914C79.6378 81.4705 79.3438 82.0359 79.3438 82.6578C79.3438 83.4267 79.8075 83.9582 81.0513 83.9582H81.3566Z" fill="black"/>
<path d="M97.6385 80.7243C97.6385 83.4042 96.0781 85.3943 93.5339 85.3943C92.0187 85.3943 91.0801 84.6932 90.6278 83.7999H90.4243V88.3229C90.4243 88.4812 90.3112 88.5943 90.1529 88.5943H88.977C88.8186 88.5943 88.7056 88.4925 88.7056 88.3229V76.5292C88.7056 76.3709 88.8186 76.2578 88.977 76.2578H90.2208C90.3791 76.2578 90.4922 76.3709 90.4922 76.5292V77.626H90.6392C91.1028 76.7667 92.03 76.0769 93.5452 76.0769C96.0894 76.0769 97.6498 78.0557 97.6498 80.7356L97.6385 80.7243ZM95.8971 80.7243C95.8971 78.8925 94.8342 77.7052 93.1381 77.7052C91.442 77.7052 90.3678 78.8925 90.3678 80.7243C90.3678 82.5561 91.442 83.7547 93.1381 83.7547C94.8342 83.7547 95.8971 82.5561 95.8971 80.7243Z" fill="black"/>
<path d="M106.877 83.6529C107.035 83.6529 107.148 83.7659 107.148 83.9242V84.8967C107.148 85.055 107.035 85.1681 106.877 85.1681H104.74C103.1 85.1681 102.23 84.2069 102.23 82.5673V77.7617H99.2444C99.0861 77.7617 98.973 77.6486 98.973 77.4903V76.5178C98.973 76.3595 99.0861 76.2465 99.2444 76.2465H103.733C103.892 76.2465 104.005 76.3595 104.005 76.5178V82.296C104.005 83.2006 104.457 83.6529 105.35 83.6529H106.866H106.877ZM101.709 72.7072C101.709 72.0288 102.241 71.4973 102.919 71.4973C103.598 71.4973 104.141 72.0288 104.141 72.7072C104.141 73.3857 103.609 73.9284 102.919 73.9284C102.23 73.9284 101.709 73.3857 101.709 72.7072Z" fill="black"/>
<path d="M117.031 72.549C117.189 72.549 117.302 72.662 117.302 72.8203V84.8854C117.302 85.0437 117.189 85.1568 117.031 85.1568H115.934C115.776 85.1568 115.685 85.0437 115.674 84.8854L115.572 83.472H115.369C114.905 84.5575 113.887 85.3829 112.316 85.3829C109.873 85.3829 108.324 83.3928 108.324 80.7469C108.324 78.1009 109.986 76.0656 112.643 76.0656C114.125 76.0656 115.029 76.6988 115.516 77.3546V72.8203C115.516 72.662 115.629 72.549 115.787 72.549H117.031ZM115.617 80.7129C115.617 78.8811 114.532 77.7052 112.847 77.7052C111.162 77.7052 110.077 78.8811 110.077 80.7129C110.077 82.5448 111.162 83.7321 112.847 83.7321C114.532 83.7321 115.617 82.5448 115.617 80.7129Z" fill="black"/>
<path d="M131.324 85.1568C131.165 85.1568 131.052 85.0438 131.052 84.8855V73.3518C131.052 73.1935 131.165 73.0804 131.324 73.0804H135.451C138.425 73.0804 139.668 74.607 139.668 77.0381C139.668 78.8473 138.979 80.1589 137.373 80.713L139.544 84.8402C139.646 85.0325 139.544 85.1568 139.341 85.1568H138.018C137.871 85.1568 137.769 85.089 137.701 84.9646L135.643 81.007H132.918V84.8968C132.918 85.0551 132.805 85.1682 132.646 85.1682H131.335L131.324 85.1568ZM132.907 79.3222H135.292C136.909 79.3222 137.882 78.7681 137.882 77.0381C137.882 75.308 136.921 74.7653 135.292 74.7653H132.907V79.3222Z" fill="black"/>
<path d="M149.892 81.1653H143.548C143.616 82.884 144.814 83.913 146.737 83.913C147.709 83.913 148.512 83.6529 149.077 83.3137C149.315 83.1554 149.451 83.2006 149.722 83.5172C149.993 83.8452 150.05 84.06 149.79 84.3088C149.089 84.9759 147.913 85.3943 146.578 85.3943C143.729 85.3943 141.852 83.5059 141.852 80.713C141.852 77.92 143.661 76.0769 146.375 76.0769C149.089 76.0769 150.627 77.9087 150.627 80.3511C150.627 80.8826 150.536 81.1766 149.892 81.1766V81.1653ZM143.627 79.8762H149.055C148.919 78.4402 147.924 77.5921 146.375 77.6034C144.86 77.626 143.876 78.4515 143.627 79.8762Z" fill="black"/>
<path d="M160.667 82.6805C160.667 84.3314 159.355 85.383 156.596 85.383C154.38 85.383 152.684 84.6932 152.503 83.0649C152.48 82.884 152.593 82.7935 152.751 82.7935H153.95C154.108 82.7935 154.187 82.8614 154.221 82.9858C154.414 83.6529 155.284 83.9469 156.596 83.9469C158.077 83.9469 158.914 83.5738 158.914 82.6805C158.914 81.7872 158.043 81.5723 156.449 81.3801C154.606 81.154 152.661 80.7808 152.661 78.7228C152.661 77.1059 153.905 76.043 156.528 76.043C158.597 76.043 160.282 76.7101 160.463 78.3271C160.486 78.508 160.361 78.5985 160.203 78.5985H159.016C158.857 78.5985 158.767 78.5306 158.744 78.3949C158.609 77.7843 157.681 77.4564 156.46 77.4564C155.239 77.4564 154.402 77.8069 154.402 78.6776C154.402 79.5483 155.205 79.8197 156.698 80.0006C158.541 80.2267 160.655 80.5207 160.655 82.6465L160.667 82.6805Z" fill="black"/>
<path d="M171.876 80.7243C171.876 83.4042 170.315 85.3943 167.771 85.3943C166.256 85.3943 165.317 84.6932 164.865 83.7999H164.662V88.3229C164.662 88.4812 164.549 88.5943 164.39 88.5943H163.214C163.056 88.5943 162.943 88.4925 162.943 88.3229V76.5292C162.943 76.3709 163.056 76.2578 163.214 76.2578H164.458C164.616 76.2578 164.729 76.3709 164.729 76.5292V77.626H164.876C165.34 76.7667 166.267 76.0769 167.782 76.0769C170.327 76.0769 171.887 78.0557 171.887 80.7356L171.876 80.7243ZM170.134 80.7243C170.134 78.8925 169.072 77.7052 167.375 77.7052C165.679 77.7052 164.605 78.8925 164.605 80.7243C164.605 82.5561 165.679 83.7547 167.375 83.7547C169.072 83.7547 170.134 82.5561 170.134 80.7243Z" fill="black"/>
<path d="M173.808 80.7242C173.808 78.067 175.719 76.0656 178.354 76.0656C180.989 76.0656 182.9 78.067 182.9 80.7242C182.9 83.3815 180.989 85.3942 178.354 85.3942C175.719 85.3942 173.808 83.3815 173.808 80.7242ZM181.17 80.7242C181.17 78.9377 179.994 77.7165 178.354 77.7165C176.714 77.7165 175.55 78.9377 175.55 80.7242C175.55 82.5108 176.726 83.7433 178.354 83.7433C179.982 83.7433 181.17 82.5221 181.17 80.7242Z" fill="black"/>
<path d="M193.514 79.7517V84.8853C193.514 85.0436 193.401 85.1567 193.242 85.1567H191.999C191.84 85.1567 191.727 85.0436 191.727 84.8853V80.0797C191.727 78.6549 190.879 77.7051 189.443 77.7051C188.007 77.7051 187.114 78.6549 187.114 80.0797V84.8853C187.114 85.0436 187.001 85.1567 186.842 85.1567H185.599C185.44 85.1567 185.327 85.0436 185.327 84.8853V76.5065C185.327 76.3482 185.44 76.2351 185.599 76.2351H186.775C186.933 76.2351 187.035 76.3482 187.046 76.5065L187.114 77.7842H187.34C187.781 76.7779 188.799 76.0542 190.178 76.0542C192.1 76.0542 193.514 77.3998 193.514 79.7517Z" fill="black"/>
<path d="M203.853 82.6805C203.853 84.3314 202.541 85.383 199.782 85.383C197.566 85.383 195.87 84.6932 195.689 83.0649C195.666 82.884 195.779 82.7935 195.938 82.7935H197.136C197.295 82.7935 197.374 82.8614 197.408 82.9858C197.6 83.6529 198.471 83.9469 199.782 83.9469C201.264 83.9469 202.1 83.5738 202.1 82.6805C202.1 81.7872 201.23 81.5723 199.635 81.3801C197.792 81.154 195.847 80.7808 195.847 78.7228C195.847 77.1059 197.091 76.043 199.714 76.043C201.784 76.043 203.468 76.7101 203.649 78.3271C203.672 78.508 203.548 78.5985 203.389 78.5985H202.202C202.044 78.5985 201.953 78.5306 201.931 78.3949C201.795 77.7843 200.868 77.4564 199.647 77.4564C198.425 77.4564 197.589 77.8069 197.589 78.6776C197.589 79.5483 198.391 79.8197 199.884 80.0006C201.727 80.2267 203.842 80.5207 203.842 82.6465L203.853 82.6805Z" fill="black"/>
<path d="M214.141 81.1653H207.798C207.866 82.884 209.064 83.913 210.986 83.913C211.959 83.913 212.762 83.6529 213.327 83.3137C213.565 83.1554 213.7 83.2006 213.972 83.5172C214.243 83.8452 214.299 84.06 214.039 84.3088C213.338 84.9759 212.162 85.3943 210.828 85.3943C207.979 85.3943 206.102 83.5059 206.102 80.713C206.102 77.92 207.911 76.0769 210.625 76.0769C213.338 76.0769 214.876 77.9087 214.876 80.3511C214.876 80.8826 214.786 81.1766 214.141 81.1766V81.1653ZM207.877 79.8762H213.304C213.169 78.4402 212.174 77.5921 210.625 77.6034C209.109 77.626 208.126 78.4515 207.877 79.8762Z" fill="black"/>
<path d="M122.393 66.488L99.8003 43.8956C96.7585 40.8539 98.9183 35.6525 103.215 35.6525H140.519C141.796 35.6525 143.017 36.1613 143.922 37.0546L160.657 53.7331C161.562 54.6377 162.082 55.8703 162.082 57.1593V63.0844C162.082 65.753 159.922 67.9127 157.254 67.9127H125.807C124.53 67.9127 123.297 67.4039 122.393 66.4993V66.488Z" fill="#2A0F7F"/>
<path d="M162.035 19.7543L143.853 1.57184C142.914 0.633323 141.648 0.113178 140.325 0.101871L103.395 0.0566406C98.9394 0.0566406 96.7005 5.43901 99.8553 8.59379L112.554 21.2921H116.975C118.253 21.2921 119.474 21.7783 120.401 22.649L132.489 33.9678H158.507C161.266 33.9678 163.505 31.7289 163.505 28.9699V23.2822C163.505 21.9592 162.974 20.6815 162.035 19.743V19.7543Z" fill="#2A0F7F"/>
</g>
<defs>
<clipPath id="clip0_454_286">
<rect width="216.346" height="88.5829" fill="white"/>
</clipPath>
</defs>
</svg>
