<svg width="74" height="74" viewBox="0 0 74 74" fill="none" xmlns="http://www.w3.org/2000/svg">
<mask id="mask0_408_58" style="mask-type:alpha" maskUnits="userSpaceOnUse" x="0" y="0" width="74" height="74">
<path d="M37 74C57.4408 74 74 57.4408 74 37C74 16.5592 57.4408 0 37 0C16.5592 0 0 16.5592 0 37C0 57.4408 16.5592 74 37 74Z" fill="url(#paint0_linear_408_58)"/>
</mask>
<g mask="url(#mask0_408_58)">
<path d="M37 74C57.4408 74 74 57.4408 74 37C74 16.5592 57.4408 0 37 0C16.5592 0 0 16.5592 0 37C0 57.4408 16.5592 74 37 74Z" fill="url(#paint1_linear_408_58)"/>
<path opacity="0.2" fill-rule="evenodd" clip-rule="evenodd" d="M43.7992 12.7752L34.3328 19.2536L13.166 -11.6309L22.6324 -18.1094L43.7992 12.7752Z" fill="url(#paint2_linear_408_58)"/>
<path opacity="0.2" fill-rule="evenodd" clip-rule="evenodd" d="M18.2602 19.3655L8.79375 25.844L-12.373 -5.02659L-2.89267 -11.519L18.2602 19.3655Z" fill="url(#paint3_linear_408_58)"/>
<path opacity="0.2" fill-rule="evenodd" clip-rule="evenodd" d="M26.4298 16.7268L16.9634 23.2053L-4.18945 -7.67922L5.27696 -14.1577L26.4298 16.7268Z" fill="url(#paint4_linear_408_58)"/>
<path opacity="0.2" fill-rule="evenodd" clip-rule="evenodd" d="M35.9513 18.905L26.4849 25.3835L5.33203 -5.48704L14.7984 -11.9795L35.9513 18.905Z" fill="url(#paint5_linear_408_58)"/>
<path opacity="0.2" fill-rule="evenodd" clip-rule="evenodd" d="M62.1739 15.6799L52.7075 22.1584L31.5547 -8.7261L41.0211 -15.2046L62.1739 15.6799Z" fill="url(#paint6_linear_408_58)"/>
<path opacity="0.2" fill-rule="evenodd" clip-rule="evenodd" d="M39.4012 12.7752L29.9348 19.2537L8.93555 -11.4214L18.402 -17.8999L39.4012 12.7752Z" fill="url(#paint7_linear_408_58)"/>
<path opacity="0.2" fill-rule="evenodd" clip-rule="evenodd" d="M79.1105 53.9915L69.6441 60.47L48.6309 29.7949L58.0973 23.3164L79.1105 53.9915Z" fill="url(#paint8_linear_408_58)"/>
<path opacity="0.44" fill-rule="evenodd" clip-rule="evenodd" d="M43.1284 24.4341L33.662 30.9265L4.64844 -11.449L14.1149 -17.9414L43.1284 24.4341Z" fill="url(#paint9_linear_408_58)"/>
<path opacity="0.44" fill-rule="evenodd" clip-rule="evenodd" d="M68.5835 96.0041L59.1171 102.483L30.1035 60.1211L39.5699 53.6426L68.5835 96.0041Z" fill="url(#paint10_linear_408_58)"/>
<path opacity="0.2" fill-rule="evenodd" clip-rule="evenodd" d="M71.4288 83.9272L61.9624 90.4057L40.9492 59.7446L50.4156 53.2661L71.4288 83.9272Z" fill="url(#paint11_linear_408_58)"/>
<path opacity="0.44" fill-rule="evenodd" clip-rule="evenodd" d="M26.247 22.6183L16.7806 29.0967L-12.2051 -13.2368L-2.73866 -19.7153L26.247 22.6183Z" fill="url(#paint12_linear_408_58)"/>
<path opacity="0.44" fill-rule="evenodd" clip-rule="evenodd" d="M92.2883 54.9273L82.8219 61.4058L53.8223 19.0722L63.2887 12.5938L92.2883 54.9273Z" fill="url(#paint13_linear_408_58)"/>
<path opacity="0.44" fill-rule="evenodd" clip-rule="evenodd" d="M17.3684 43.7154L7.90197 50.1939L-21.0977 7.86033L-11.6312 1.38184L17.3684 43.7154Z" fill="url(#paint14_linear_408_58)"/>
<path opacity="0.44" fill-rule="evenodd" clip-rule="evenodd" d="M94.4406 65.5523L84.9742 72.0308L55.9746 29.6972L65.441 23.2188L94.4406 65.5523Z" fill="url(#paint15_linear_408_58)"/>
<path opacity="0.44" fill-rule="evenodd" clip-rule="evenodd" d="M53.4035 12.887L43.9371 19.3655L14.9375 -22.982L24.4039 -29.4604L53.4035 12.887Z" fill="url(#paint16_linear_408_58)"/>
<path opacity="0.44" fill-rule="evenodd" clip-rule="evenodd" d="M56.6731 88.9679L47.2067 95.4463L18.207 53.1128L27.6734 46.6343L56.6731 88.9679Z" fill="url(#paint17_linear_408_58)"/>
<path opacity="0.44" fill-rule="evenodd" clip-rule="evenodd" d="M42.6672 12.2169L33.2008 18.6954L4.20117 -23.6382L13.6676 -30.1167L42.6672 12.2169Z" fill="url(#paint18_linear_408_58)"/>
<path opacity="0.44" fill-rule="evenodd" clip-rule="evenodd" d="M20.0903 73.6511L10.6239 80.1296L-9.60742 50.5854L-0.141006 44.1069L20.0903 73.6511Z" fill="url(#paint19_linear_408_58)"/>
<path opacity="0.4" fill-rule="evenodd" clip-rule="evenodd" d="M87.655 51.1579L78.1886 57.6503L57.0078 26.7099L66.4742 20.2314L87.655 51.1579Z" fill="url(#paint20_linear_408_58)"/>
<path opacity="0.4" fill-rule="evenodd" clip-rule="evenodd" d="M45.8522 86.0637L36.3858 92.5422L15.2051 61.6157L24.6715 55.1372L45.8522 86.0637Z" fill="url(#paint21_linear_408_58)"/>
<path d="M17.0597 39.3032C17.0597 39.6662 16.9899 40.0013 16.8363 40.2945C16.6827 40.6017 16.4733 40.853 16.194 41.0764C15.9148 41.2858 15.5936 41.4534 15.2167 41.579C14.8397 41.7047 14.4348 41.7606 13.988 41.7606C13.4574 41.7606 12.9687 41.6907 12.5499 41.5372C12.131 41.3975 11.6982 41.1462 11.2793 40.8111L11.9774 39.6662C12.3125 39.9455 12.6197 40.1549 12.8989 40.2806C13.1642 40.4062 13.4434 40.476 13.7367 40.476C14.0857 40.476 14.365 40.3923 14.5744 40.2108C14.7838 40.0293 14.8955 39.7919 14.8955 39.4847C14.8955 39.3591 14.8816 39.2334 14.8397 39.1217C14.7978 39.01 14.728 38.8843 14.6302 38.7727C14.5325 38.647 14.3929 38.5213 14.2114 38.3817C14.0299 38.2421 13.8065 38.0606 13.5133 37.8511C13.2899 37.6976 13.0804 37.544 12.871 37.3764C12.6616 37.2089 12.4801 37.0413 12.3125 36.8459C12.145 36.6644 12.0053 36.4549 11.9076 36.2176C11.8099 35.9942 11.754 35.7289 11.754 35.4357C11.754 35.1006 11.8238 34.7934 11.9634 34.5142C12.1031 34.2349 12.2985 33.9976 12.5359 33.8021C12.7733 33.6066 13.0665 33.4531 13.4155 33.3414C13.7506 33.2297 14.1276 33.1738 14.5325 33.1738C14.9374 33.1738 15.3702 33.2297 15.7612 33.3414C16.1661 33.4531 16.5291 33.6206 16.8642 33.83L16.2219 34.8632C15.7891 34.5561 15.3284 34.4025 14.8536 34.4025C14.5604 34.4025 14.3231 34.4723 14.1276 34.6259C13.9321 34.7795 13.8484 34.9749 13.8484 35.1983C13.8484 35.4217 13.9321 35.6172 14.0997 35.7847C14.2672 35.9663 14.5604 36.2036 14.9653 36.5247C15.3842 36.8319 15.7333 37.0972 15.9985 37.3345C16.2778 37.5579 16.4872 37.7813 16.6408 37.9768C16.7944 38.1862 16.9061 38.3817 16.9759 38.5911C17.0318 38.8285 17.0597 39.0519 17.0597 39.3032ZM24.2921 37.3764C24.2921 37.6976 24.2642 38.0327 24.1944 38.3957C24.1246 38.7587 24.0129 39.1077 23.8593 39.4149C23.7057 39.7221 23.4963 39.9874 23.231 40.1828C22.9657 40.3923 22.6446 40.49 22.2536 40.49C21.5974 40.49 21.0808 40.2247 20.6899 39.7081C20.3129 39.1776 20.1174 38.4655 20.1174 37.544C20.1174 36.6225 20.3129 35.8546 20.6899 35.31C21.0668 34.7515 21.5974 34.4863 22.2536 34.4863C22.9099 34.4863 23.3706 34.7515 23.7336 35.2681C24.1106 35.7847 24.2921 36.4829 24.2921 37.3764ZM26.5819 37.2927C26.5819 36.6783 26.4982 36.1198 26.3167 35.6312C26.1351 35.1285 25.8978 34.6957 25.5767 34.3327C25.2555 33.9697 24.8646 33.6904 24.4318 33.495C23.985 33.2995 23.4963 33.1878 22.9657 33.1878C22.3793 33.1878 21.8627 33.2995 21.4019 33.5229C20.9551 33.7463 20.5363 34.0953 20.1593 34.584L20.1453 33.3972H18.037V45.656H20.1453V40.476C20.3548 40.7134 20.5502 40.9228 20.7457 41.0764C20.9412 41.244 21.1367 41.3696 21.3321 41.4813C21.5276 41.579 21.737 41.6628 21.9604 41.7047C22.1838 41.7466 22.4212 41.7745 22.6725 41.7745C23.231 41.7745 23.7476 41.6628 24.2363 41.4394C24.711 41.216 25.1299 40.9089 25.4789 40.504C25.828 40.0991 26.1072 39.6243 26.3027 39.0938C26.4842 38.5353 26.5819 37.9489 26.5819 37.2927ZM27.5174 41.5651H29.6816V29.5576H27.5174V41.5651ZM38.8827 41.5651V33.3833H36.7185V37.7953C36.7185 38.1862 36.7046 38.4934 36.6767 38.7028C36.6487 38.9123 36.5929 39.1077 36.5091 39.2893C36.2019 39.9594 35.6435 40.3085 34.8336 40.3085C34.2053 40.3085 33.7585 40.0851 33.5072 39.6243C33.4095 39.4568 33.3397 39.2474 33.2978 39.0379C33.2559 38.8145 33.2419 38.5074 33.2419 38.0885V33.4112H31.0778V38.0606C31.0778 38.3817 31.0778 38.647 31.0918 38.8704C31.0918 39.0938 31.1057 39.2893 31.1336 39.4568C31.1616 39.6243 31.1755 39.7779 31.2035 39.9036C31.2314 40.0292 31.2733 40.1549 31.3291 40.2806C31.5246 40.7832 31.8457 41.1602 32.2925 41.4255C32.7393 41.6768 33.2838 41.8024 33.9261 41.8024C34.4985 41.8024 35.0152 41.7047 35.448 41.4953C35.8808 41.2858 36.3136 40.9647 36.7325 40.504V41.593L38.8827 41.5651ZM48.1816 41.5651V36.9296C48.1816 36.6085 48.1816 36.3432 48.1676 36.1198C48.1676 35.8964 48.1536 35.701 48.1257 35.5334C48.0978 35.3659 48.0838 35.2263 48.0419 35.1006C48.014 34.9749 47.9721 34.8493 47.9302 34.7376C47.7348 34.2489 47.4136 33.8719 46.9669 33.6066C46.5201 33.3414 45.9755 33.2017 45.3333 33.2017C44.7608 33.2017 44.2442 33.2995 43.8114 33.5089C43.3785 33.7183 42.9457 34.0395 42.5268 34.5002V33.4112H40.3487V41.579H42.5268V37.167C42.5268 36.79 42.5408 36.4829 42.5687 36.2734C42.5967 36.064 42.6525 35.8685 42.7223 35.6731C42.8619 35.3519 43.0853 35.1006 43.3646 34.9331C43.6578 34.7655 44.0069 34.6817 44.4118 34.6817C45.0401 34.6817 45.4869 34.9051 45.7382 35.3659C45.8359 35.5334 45.9057 35.7429 45.9476 35.9523C45.9895 36.1757 46.0035 36.4829 46.0035 36.9017V41.579L48.1816 41.5651ZM57.1174 41.0206L53.8363 36.9296L56.6148 33.9557L54.9812 33.2576L52.091 36.6085H51.8676V29.5576H49.6895V41.5651H51.8676V37.2089L55.1208 41.7187L57.1174 41.0206ZM65.5227 38.0885V36.7481L58.9884 33.467V34.9331L64.0567 37.4044L58.9884 39.9036V41.3417L65.5227 38.0885ZM59.6167 31.3448C59.2118 31.3448 58.8906 31.6659 58.8906 32.0848C58.8906 32.5036 59.2118 32.8248 59.6167 32.8248C60.0216 32.8248 60.3427 32.5036 60.3427 32.0848C60.3427 31.6659 60.0216 31.3448 59.6167 31.3448ZM59.6167 31.4704C59.9378 31.4704 60.2031 31.7497 60.2031 32.0987C60.2031 32.4478 59.9378 32.727 59.6167 32.7131C59.2955 32.7131 59.0303 32.4338 59.0303 32.0848C59.0303 31.7357 59.2955 31.4704 59.6167 31.4704ZM59.477 32.1546H59.5608C59.6725 32.1546 59.7144 32.1965 59.7423 32.2942C59.7563 32.4059 59.7842 32.4757 59.7982 32.5036H59.9378C59.9238 32.4757 59.9099 32.4338 59.8819 32.2942C59.868 32.1685 59.8121 32.1127 59.7423 32.0987V32.0848C59.8261 32.0568 59.8959 31.987 59.8959 31.8893C59.8959 31.8055 59.868 31.7497 59.8261 31.7218C59.7702 31.6799 59.7004 31.6659 59.5748 31.6659C59.477 31.6659 59.4072 31.6799 59.3374 31.6799V32.5036H59.4631L59.477 32.1546ZM59.477 31.7776C59.505 31.7776 59.5329 31.7636 59.5748 31.7636C59.7144 31.7636 59.7702 31.8335 59.7702 31.9033C59.7702 32.001 59.6725 32.0429 59.5748 32.0429H59.477V31.7776Z" fill="white"/>
</g>
<defs>
<linearGradient id="paint0_linear_408_58" x1="67.6123" y1="17.4961" x2="7.71694" y2="55.6564" gradientUnits="userSpaceOnUse">
<stop stop-color="#EC0677"/>
<stop offset="0.16" stop-color="#F05A22"/>
<stop offset="0.25" stop-color="#F26A21"/>
<stop offset="0.37" stop-color="#F58A1F"/>
<stop offset="0.44" stop-color="#F37720"/>
<stop offset="0.54" stop-color="#F16222"/>
<stop offset="0.61" stop-color="#F05A22"/>
<stop offset="0.67" stop-color="#F05627"/>
<stop offset="0.73" stop-color="#EF4934"/>
<stop offset="0.8" stop-color="#EE334A"/>
<stop offset="0.86" stop-color="#ED1669"/>
<stop offset="0.9" stop-color="#EC0080"/>
</linearGradient>
<linearGradient id="paint1_linear_408_58" x1="67.6123" y1="17.4961" x2="7.71694" y2="55.6564" gradientUnits="userSpaceOnUse">
<stop stop-color="#EC0677"/>
<stop offset="0.16" stop-color="#F05A22"/>
<stop offset="0.25" stop-color="#F26A21"/>
<stop offset="0.37" stop-color="#F58A1F"/>
<stop offset="0.44" stop-color="#F37720"/>
<stop offset="0.54" stop-color="#F16222"/>
<stop offset="0.61" stop-color="#F05A22"/>
<stop offset="0.67" stop-color="#F05627"/>
<stop offset="0.73" stop-color="#EF4934"/>
<stop offset="0.8" stop-color="#EE334A"/>
<stop offset="0.86" stop-color="#ED1669"/>
<stop offset="0.9" stop-color="#EC0080"/>
</linearGradient>
<linearGradient id="paint2_linear_408_58" x1="17.9523" y1="-14.7291" x2="39.0953" y2="15.9935" gradientUnits="userSpaceOnUse">
<stop offset="0.5" stop-color="#E20782"/>
<stop offset="1" stop-color="white" stop-opacity="0"/>
</linearGradient>
<linearGradient id="paint3_linear_408_58" x1="-3.28641" y1="-1.90184" x2="13.4753" y2="22.4567" gradientUnits="userSpaceOnUse">
<stop offset="0.04" stop-color="#E20782" stop-opacity="0.1"/>
<stop offset="1" stop-color="#E20782"/>
</linearGradient>
<linearGradient id="paint4_linear_408_58" x1="4.88323" y1="-4.53911" x2="21.6463" y2="19.8181" gradientUnits="userSpaceOnUse">
<stop offset="0.04" stop-color="#E20782" stop-opacity="0.1"/>
<stop offset="1" stop-color="#E20782"/>
</linearGradient>
<linearGradient id="paint5_linear_408_58" x1="14.4047" y1="-2.36089" x2="31.1678" y2="21.9963" gradientUnits="userSpaceOnUse">
<stop offset="0.04" stop-color="#E20782" stop-opacity="0.1"/>
<stop offset="1" stop-color="#E20782"/>
</linearGradient>
<linearGradient id="paint6_linear_408_58" x1="40.6246" y1="-5.58878" x2="57.3877" y2="18.7684" gradientUnits="userSpaceOnUse">
<stop offset="0.04" stop-color="#E20782" stop-opacity="0.1"/>
<stop offset="1" stop-color="#E20782"/>
</linearGradient>
<linearGradient id="paint7_linear_408_58" x1="13.6464" y1="-14.6132" x2="34.5395" y2="15.7478" gradientUnits="userSpaceOnUse">
<stop stop-color="#E20782"/>
<stop offset="0.77" stop-color="#E20782" stop-opacity="0.1"/>
</linearGradient>
<linearGradient id="paint8_linear_408_58" x1="53.3459" y1="26.6003" x2="74.2404" y2="56.9613" gradientUnits="userSpaceOnUse">
<stop offset="0.21" stop-color="#E20782" stop-opacity="0.1"/>
<stop offset="1" stop-color="#E20782"/>
</linearGradient>
<linearGradient id="paint9_linear_408_58" x1="9.34116" y1="-14.6072" x2="38.2375" y2="27.3047" gradientUnits="userSpaceOnUse">
<stop stop-color="#F89E1C" stop-opacity="0.2"/>
<stop offset="0.45" stop-color="#F89E1C"/>
<stop offset="1" stop-color="#F89E1C" stop-opacity="0.15"/>
</linearGradient>
<linearGradient id="paint10_linear_408_58" x1="34.7948" y1="56.96" x2="63.6911" y2="98.8733" gradientUnits="userSpaceOnUse">
<stop stop-color="#F89E1C" stop-opacity="0.2"/>
<stop offset="0.55" stop-color="#F89E1C" stop-opacity="0.5"/>
<stop offset="1" stop-color="#F89E1C" stop-opacity="0.15"/>
</linearGradient>
<linearGradient id="paint11_linear_408_58" x1="45.6671" y1="56.5458" x2="66.5616" y2="86.9082" gradientUnits="userSpaceOnUse">
<stop offset="0.23" stop-color="#E20782" stop-opacity="0.1"/>
<stop offset="1" stop-color="#E20782"/>
</linearGradient>
<linearGradient id="paint12_linear_408_58" x1="-7.51934" y1="-16.3979" x2="21.3574" y2="25.4833" gradientUnits="userSpaceOnUse">
<stop stop-color="#F89E1C" stop-opacity="0.2"/>
<stop offset="0.44" stop-color="#F89E1C"/>
<stop offset="1" stop-color="#F89E1C" stop-opacity="0.15"/>
</linearGradient>
<linearGradient id="paint13_linear_408_58" x1="58.5192" y1="15.9168" x2="87.3945" y2="57.798" gradientUnits="userSpaceOnUse">
<stop stop-color="#F89E1C" stop-opacity="0.2"/>
<stop offset="0.44" stop-color="#F89E1C"/>
<stop offset="1" stop-color="#F89E1C" stop-opacity="0.15"/>
</linearGradient>
<linearGradient id="paint14_linear_408_58" x1="-16.4063" y1="4.69648" x2="12.469" y2="46.5791" gradientUnits="userSpaceOnUse">
<stop stop-color="#F89E1C" stop-opacity="0.2"/>
<stop offset="0.44" stop-color="#F89E1C"/>
<stop offset="1" stop-color="#F89E1C" stop-opacity="0.15"/>
</linearGradient>
<linearGradient id="paint15_linear_408_58" x1="60.6715" y1="26.5404" x2="89.5469" y2="68.4216" gradientUnits="userSpaceOnUse">
<stop stop-color="#F89E1C" stop-opacity="0.2"/>
<stop offset="0.44" stop-color="#F89E1C"/>
<stop offset="1" stop-color="#F89E1C" stop-opacity="0.15"/>
</linearGradient>
<linearGradient id="paint16_linear_408_58" x1="19.633" y1="-26.1319" x2="48.5097" y2="15.7493" gradientUnits="userSpaceOnUse">
<stop stop-color="#F89E1C" stop-opacity="0.2"/>
<stop offset="0.44" stop-color="#F89E1C"/>
<stop offset="1" stop-color="#F89E1C" stop-opacity="0.15"/>
</linearGradient>
<linearGradient id="paint17_linear_408_58" x1="22.8997" y1="49.9517" x2="51.7765" y2="91.8329" gradientUnits="userSpaceOnUse">
<stop stop-color="#F89E1C" stop-opacity="0.1"/>
<stop offset="0.44" stop-color="#F89E1C" stop-opacity="0.5"/>
<stop offset="1" stop-color="#F89E1C" stop-opacity="0.15"/>
</linearGradient>
<linearGradient id="paint18_linear_408_58" x1="8.8911" y1="-26.8035" x2="37.7665" y2="15.0778" gradientUnits="userSpaceOnUse">
<stop stop-color="#EC008C" stop-opacity="0.2"/>
<stop offset="0.44" stop-color="#EC008C"/>
<stop offset="0.94" stop-color="#EC008C" stop-opacity="0"/>
</linearGradient>
<linearGradient id="paint19_linear_408_58" x1="-7.70716" y1="43.2985" x2="15.3906" y2="76.8694" gradientUnits="userSpaceOnUse">
<stop stop-color="#F89E1C" stop-opacity="0"/>
<stop offset="0.85" stop-color="#F05A22"/>
</linearGradient>
<linearGradient id="paint20_linear_408_58" x1="58.7657" y1="19.229" x2="82.9581" y2="54.3831" gradientUnits="userSpaceOnUse">
<stop offset="0.34" stop-color="#E20782" stop-opacity="0.1"/>
<stop offset="1" stop-color="#E20782"/>
</linearGradient>
<linearGradient id="paint21_linear_408_58" x1="16.9657" y1="54.1319" x2="41.1582" y2="89.2847" gradientUnits="userSpaceOnUse">
<stop offset="0.29" stop-color="#F05A22"/>
<stop offset="0.86" stop-color="#E20782" stop-opacity="0.1"/>
</linearGradient>
</defs>
</svg>
