<svg width="219" height="88" viewBox="0 0 219 88" fill="none" xmlns="http://www.w3.org/2000/svg">
<path d="M121.368 65.5632L98.2077 42.4875C95.458 39.7478 97.4029 35.0703 101.293 35.0703H139.342C140.493 35.0703 141.6 35.5269 142.416 36.3399L159.205 53.0008C160.032 53.8138 160.49 54.9275 160.49 56.0746V62.4894C160.49 64.8839 158.534 66.8328 156.131 66.8328H124.464C123.313 66.8328 122.195 66.3762 121.379 65.5632H121.368Z" fill="white"/>
<path d="M173.222 65.4407L150.889 43.1891C147.882 40.1933 150.017 35.0703 154.264 35.0703H191.14C192.403 35.0703 193.61 35.5715 194.504 36.4513L211.048 52.8783C211.942 53.7692 212.456 54.9831 212.456 56.2528V62.0885C212.456 64.7168 210.321 66.844 207.683 66.844H176.598C175.335 66.844 174.116 66.3428 173.222 65.4519V65.4407Z" fill="white"/>
<path d="M160.346 19.9797L141.243 0.935596C140.673 0.367612 139.913 0.0557781 139.108 0.0557781L97.1465 0.0112305C94.4526 0.0112305 93.1113 3.25208 95.0115 5.14535L110.895 20.9709V20.9375H115.523C116.786 20.9375 117.993 21.4164 118.91 22.274L130.859 33.422H158.211C159.876 33.422 161.229 32.0745 161.229 30.415V22.0958C161.229 21.2939 160.916 20.5366 160.346 19.9686V19.9797Z" fill="white"/>
<path d="M211.685 19.4118L193.7 1.50358C192.772 0.579214 191.52 0.0669151 190.212 0.0557781L153.706 0.0112305C149.302 0.0112305 147.088 5.31241 150.207 8.41961L162.76 20.9264H167.13C168.393 20.9264 169.6 21.4053 170.517 22.2628L182.466 33.4109H208.186C210.913 33.4109 213.127 31.2058 213.127 28.4884V22.8865C213.127 21.5835 212.601 20.325 211.674 19.4006L211.685 19.4118Z" fill="white"/>
<path d="M32.0374 78.3146V79.4952C32.0374 83.0256 30.7408 84.5736 27.7004 84.5736C24.6601 84.5736 23.084 82.9365 23.084 78.4037C23.084 73.871 24.6153 72.2339 27.6892 72.2339C30.0254 72.2339 31.6909 73.1248 31.8921 76.1986C31.9144 76.388 31.8362 76.4882 31.6573 76.4882H30.4501C30.2936 76.4882 30.193 76.4214 30.1707 76.2543C29.936 74.3722 28.9635 73.9712 27.6892 73.9712C25.9678 73.9712 24.8612 74.7397 24.8612 78.3926C24.8612 82.0455 25.979 82.814 27.7339 82.814C29.4888 82.814 30.316 82.1792 30.316 79.5174V79.4952H27.3651C27.2086 79.4952 27.0968 79.3949 27.0968 79.2279V78.3035C27.0968 78.1476 27.2086 78.0362 27.3651 78.0362H31.7579C31.9144 78.0362 32.0262 78.1476 32.0262 78.3035L32.0374 78.3146Z" fill="white"/>
<path d="M34.6628 84.3063C34.5063 84.3063 34.3945 84.195 34.3945 84.0391V72.6794C34.3945 72.5235 34.5063 72.4121 34.6628 72.4121H38.7427C41.6824 72.4121 42.912 73.9156 42.912 76.31C42.912 78.0919 42.2301 79.3838 40.6429 79.9295L42.789 83.9945C42.8896 84.1838 42.789 84.3063 42.5878 84.3063H41.28C41.1347 84.3063 41.0453 84.2395 40.9671 84.117L38.9327 80.2191H36.2389V84.0502C36.2389 84.2061 36.1271 84.3175 35.9706 84.3175H34.674L34.6628 84.3063ZM36.2277 78.5597H38.5862C40.1846 78.5597 41.1459 78.014 41.1459 76.31C41.1459 74.6061 40.1958 74.0715 38.5862 74.0715H36.2277V78.5597Z" fill="white"/>
<path d="M45.6198 84.3063C45.4633 84.3063 45.3516 84.195 45.3516 84.0391V72.6794C45.3516 72.5235 45.4633 72.4121 45.6198 72.4121H49.6997C52.6395 72.4121 53.869 73.9156 53.869 76.31C53.869 78.0919 53.1872 79.3838 51.5999 79.9295L53.7461 83.9945C53.8467 84.1838 53.7461 84.3063 53.5449 84.3063H52.2371C52.0918 84.3063 52.0023 84.2395 51.9241 84.117L49.8897 80.2191H47.1959V84.0502C47.1959 84.2061 47.0841 84.3175 46.9276 84.3175H45.631L45.6198 84.3063ZM47.1847 78.5597H49.5432C51.1417 78.5597 52.1029 78.014 52.1029 76.31C52.1029 74.6061 51.1528 74.0715 49.5432 74.0715H47.1847V78.5597Z" fill="white"/>
<path d="M67.5144 84.3063C67.3579 84.3063 67.2461 84.195 67.2461 84.0391V72.6794C67.2461 72.5235 67.3579 72.4121 67.5144 72.4121H71.5942C74.534 72.4121 75.7636 73.9156 75.7636 76.31C75.7636 78.0919 75.0817 79.3838 73.4945 79.9295L75.6406 83.9945C75.7412 84.1838 75.6406 84.3063 75.4394 84.3063H74.1316C73.9863 84.3063 73.8969 84.2395 73.8186 84.117L71.7843 80.2191H69.0904V84.0502C69.0904 84.2061 68.9786 84.3175 68.8222 84.3175H67.5255L67.5144 84.3063ZM69.0792 78.5597H71.4378C73.0362 78.5597 73.9975 78.014 73.9975 76.31C73.9975 74.6061 73.0474 74.0715 71.4378 74.0715H69.0792V78.5597Z" fill="white"/>
<path d="M86.7411 83.6268V83.8384C86.7411 84.295 86.3052 84.4509 85.8916 84.4509C85.1092 84.4509 84.5391 83.9275 84.5391 82.9586V82.6356H84.472C84.092 83.6825 82.9407 84.5289 81.2193 84.5289H80.7834C78.9502 84.5289 77.9219 83.5266 77.9219 81.9451C77.9219 80.5196 78.749 79.5395 80.6269 79.4282L84.3156 79.1943V78.6152C84.3156 77.2453 83.7678 76.811 82.1918 76.811C80.8952 76.811 80.1798 77.1006 80.0792 77.9915C80.0568 78.114 79.9674 78.1808 79.8109 78.1808H78.6484C78.4919 78.1808 78.3802 78.0917 78.3913 77.9135C78.4696 76.0314 79.9451 75.3521 82.2141 75.3521C85.1651 75.3521 86.0481 76.5437 86.0481 78.604V82.0788C86.0481 82.747 86.1375 82.9697 86.3946 83.1145C86.6182 83.2481 86.73 83.3484 86.73 83.6268H86.7411ZM81.6441 83.1256C82.9407 83.1256 84.3267 82.5799 84.3267 81.0653V80.3637L81.1075 80.5975C79.945 80.6755 79.6544 81.2323 79.6544 81.8449C79.6544 82.6022 80.1127 83.1256 81.3423 83.1256H81.6441Z" fill="white"/>
<path d="M97.7523 79.9293C97.7523 82.5688 96.2098 84.5289 93.6948 84.5289C92.197 84.5289 91.2692 83.8384 90.8221 82.9586H90.6209V87.4134C90.6209 87.5693 90.5091 87.6806 90.3526 87.6806H89.1901C89.0337 87.6806 88.9219 87.5693 88.9219 87.4134V75.7975C88.9219 75.6416 89.0337 75.5302 89.1901 75.5302H90.4197C90.5762 75.5302 90.688 75.6416 90.688 75.7975V76.8778H90.8333C91.2916 76.0314 92.2081 75.3521 93.706 75.3521C96.221 75.3521 97.7635 77.301 97.7635 79.9405L97.7523 79.9293ZM96.0309 79.9293C96.0309 78.1251 94.9802 76.9558 93.3036 76.9558C91.6269 76.9558 90.565 78.1251 90.565 79.9293C90.565 81.7335 91.6269 82.914 93.3036 82.914C94.9802 82.914 96.0309 81.7335 96.0309 79.9293Z" fill="white"/>
<path d="M107.956 82.814C108.112 82.814 108.224 82.9254 108.224 83.0813V84.0391C108.224 84.195 108.112 84.3063 107.956 84.3063H105.843C104.222 84.3063 103.362 83.3597 103.362 81.7448V77.0117H100.411C100.254 77.0117 100.143 76.9003 100.143 76.7444V75.7866C100.143 75.6307 100.254 75.5193 100.411 75.5193H104.848C105.005 75.5193 105.117 75.6307 105.117 75.7866V81.4776C105.117 82.3685 105.564 82.814 106.447 82.814H107.945H107.956ZM102.848 72.0334C102.848 71.3652 103.373 70.8418 104.044 70.8418C104.714 70.8418 105.251 71.3652 105.251 72.0334C105.251 72.7017 104.725 73.2362 104.044 73.2362C103.362 73.2362 102.848 72.7017 102.848 72.0334Z" fill="white"/>
<path d="M119.078 71.8887C119.235 71.8887 119.346 72 119.346 72.156V84.0391C119.346 84.195 119.235 84.3063 119.078 84.3063H117.994C117.837 84.3063 117.748 84.195 117.737 84.0391L117.636 82.6469H117.446C116.988 83.7161 115.982 84.5291 114.428 84.5291C112.014 84.5291 110.482 82.569 110.482 79.9629C110.482 77.3569 112.126 75.3523 114.752 75.3523C116.217 75.3523 117.111 75.9759 117.591 76.6219V72.156C117.591 72 117.703 71.8887 117.86 71.8887H119.089H119.078ZM117.681 79.9295C117.681 78.1253 116.608 76.9671 114.942 76.9671C113.277 76.9671 112.204 78.1253 112.204 79.9295C112.204 81.7337 113.277 82.9031 114.942 82.9031C116.608 82.9031 117.681 81.7337 117.681 79.9295Z" fill="white"/>
<path d="M133.208 84.3063C133.051 84.3063 132.939 84.195 132.939 84.0391V72.6794C132.939 72.5235 133.051 72.4121 133.208 72.4121H137.288C140.227 72.4121 141.457 73.9156 141.457 76.31C141.457 78.0919 140.775 79.3838 139.188 79.9295L141.334 83.9945C141.435 84.1838 141.334 84.3063 141.133 84.3063H139.825C139.68 84.3063 139.59 84.2395 139.512 84.117L137.478 80.2191H134.784V84.0502C134.784 84.2061 134.672 84.3175 134.516 84.3175H133.219L133.208 84.3063ZM134.773 78.5597H137.131C138.73 78.5597 139.691 78.014 139.691 76.31C139.691 74.6061 138.741 74.0715 137.131 74.0715H134.773V78.5597Z" fill="white"/>
<path d="M151.572 80.3637H145.302C145.369 82.0565 146.554 83.0699 148.454 83.0699C149.415 83.0699 150.209 82.8138 150.768 82.4797C151.013 82.3238 151.136 82.3683 151.405 82.6801C151.673 83.0031 151.729 83.2147 151.472 83.4597C150.779 84.1168 149.605 84.5289 148.297 84.5289C145.48 84.5289 143.625 82.669 143.625 79.9182C143.625 77.1674 145.413 75.3521 148.096 75.3521C150.779 75.3521 152.299 77.1562 152.299 79.5618C152.299 80.0852 152.21 80.3748 151.584 80.3748L151.572 80.3637ZM145.38 79.0941H150.745C150.611 77.6797 149.627 76.8444 148.096 76.8555C146.598 76.8778 145.626 77.6908 145.38 79.0941Z" fill="white"/>
<path d="M162.94 81.867C162.94 83.493 161.644 84.5288 158.916 84.5288C156.726 84.5288 155.049 83.8494 154.87 82.2457C154.848 82.0675 154.959 81.9784 155.116 81.9784H156.301C156.457 81.9784 156.536 82.0452 156.569 82.1789C156.759 82.836 157.62 83.1255 158.916 83.1255C160.381 83.1255 161.219 82.758 161.219 81.8782C161.219 80.9984 160.358 80.7868 158.782 80.5974C156.96 80.3747 155.038 80.0072 155.038 77.9803C155.038 76.3877 156.267 75.3408 158.86 75.3408C160.906 75.3408 162.572 75.9979 162.75 77.5905C162.773 77.7687 162.65 77.8578 162.493 77.8578H161.32C161.163 77.8578 161.085 77.7909 161.051 77.6573C160.917 77.0559 160.001 76.7329 158.793 76.7329C157.586 76.7329 156.759 77.0782 156.759 77.9357C156.759 78.7933 157.553 79.0606 159.028 79.2387C160.85 79.4615 162.94 79.751 162.94 81.8448V81.867Z" fill="white"/>
<path d="M174.397 79.9293C174.397 82.5688 172.854 84.5289 170.339 84.5289C168.842 84.5289 167.914 83.8384 167.467 82.9586H167.265V87.4134C167.265 87.5693 167.154 87.6806 166.997 87.6806H165.835C165.678 87.6806 165.566 87.5693 165.566 87.4134V75.7975C165.566 75.6416 165.678 75.5302 165.835 75.5302H167.064C167.221 75.5302 167.333 75.6416 167.333 75.7975V76.8778H167.478C167.936 76.0314 168.853 75.3521 170.351 75.3521C172.866 75.3521 174.408 77.301 174.408 79.9405L174.397 79.9293ZM172.675 79.9293C172.675 78.1251 171.625 76.9558 169.948 76.9558C168.271 76.9558 167.21 78.1251 167.21 79.9293C167.21 81.7335 168.271 82.914 169.948 82.914C171.625 82.914 172.675 81.7335 172.675 79.9293Z" fill="white"/>
<path d="M176.32 79.9292C176.32 77.312 178.209 75.3408 180.814 75.3408C183.418 75.3408 185.307 77.312 185.307 79.9292C185.307 82.5464 183.418 84.5288 180.814 84.5288C178.209 84.5288 176.32 82.5464 176.32 79.9292ZM183.597 79.9292C183.597 78.1696 182.435 76.9668 180.814 76.9668C179.193 76.9668 178.031 78.1696 178.031 79.9292C178.031 81.6889 179.193 82.9028 180.814 82.9028C182.435 82.9028 183.597 81.7 183.597 79.9292Z" fill="white"/>
<path d="M195.804 78.9826V84.0388C195.804 84.1947 195.692 84.306 195.536 84.306H194.306C194.15 84.306 194.038 84.1947 194.038 84.0388V79.3056C194.038 77.9023 193.2 76.9668 191.78 76.9668C190.361 76.9668 189.489 77.9023 189.489 79.3056V84.0388C189.489 84.1947 189.377 84.306 189.22 84.306H187.991C187.834 84.306 187.723 84.1947 187.723 84.0388V75.7863C187.723 75.6304 187.834 75.519 187.991 75.519H189.153C189.31 75.519 189.411 75.6304 189.422 75.7863L189.489 77.0448H189.712C190.148 76.0536 191.154 75.3408 192.518 75.3408C194.429 75.3408 195.815 76.6661 195.815 78.9826H195.804Z" fill="white"/>
<path d="M206.747 81.867C206.747 83.493 205.45 84.5288 202.723 84.5288C200.532 84.5288 198.856 83.8494 198.677 82.2457C198.654 82.0675 198.766 81.9784 198.923 81.9784H200.107C200.264 81.9784 200.342 82.0452 200.376 82.1789C200.566 82.836 201.426 83.1255 202.723 83.1255C204.187 83.1255 205.026 82.758 205.026 81.8782C205.026 80.9984 204.165 80.7868 202.589 80.5974C200.767 80.3747 198.844 80.0072 198.844 77.9803C198.844 76.3877 200.074 75.3408 202.667 75.3408C204.713 75.3408 206.378 75.9979 206.557 77.5905C206.579 77.7687 206.456 77.8578 206.3 77.8578H205.126C204.97 77.8578 204.892 77.7909 204.858 77.6573C204.724 77.0559 203.807 76.7329 202.6 76.7329C201.393 76.7329 200.566 77.0782 200.566 77.9357C200.566 78.7933 201.359 79.0606 202.835 79.2387C204.657 79.4615 206.747 79.751 206.747 81.8448V81.867Z" fill="white"/>
<path d="M217.276 80.3637H211.005C211.072 82.0565 212.257 83.0699 214.157 83.0699C215.118 83.0699 215.912 82.8138 216.471 82.4797C216.717 82.3238 216.84 82.3683 217.108 82.6801C217.376 83.0031 217.432 83.2147 217.175 83.4597C216.482 84.1168 215.308 84.5289 214 84.5289C211.184 84.5289 209.328 82.669 209.328 79.9182C209.328 77.1674 211.117 75.3521 213.799 75.3521C216.482 75.3521 218.002 77.1562 218.002 79.5618C218.002 80.0852 217.913 80.3748 217.287 80.3748L217.276 80.3637ZM211.083 79.0941H216.448C216.314 77.6797 215.331 76.8444 213.799 76.8555C212.301 76.8778 211.329 77.6908 211.083 79.0941Z" fill="white"/>
<path d="M85.108 36.7965V36.7742L78.6584 30.3705C76.8477 28.5774 74.3997 27.564 71.84 27.564H53.3296C51.1276 27.564 50.0098 30.1923 51.53 31.7737L54.3356 34.6916L86.6058 66.8439H97.0235C100.176 66.8439 102.735 64.2936 102.735 61.1529V56.6314C102.735 55.1167 102.132 53.6689 101.059 52.5998L85.1192 36.7853L85.108 36.7965Z" fill="white"/>
<path d="M107.653 19.1889L90.1263 1.72622C89.0533 0.657079 87.6113 0.0668215 86.1023 0.0556846H71.3477L71.3812 0H23.7528C22.2661 0 20.8354 0.57912 19.7623 1.61485L1.72138 19.1778C0.625955 20.2469 0 21.717 0 23.2428V43.6233C0 45.1268 0.603599 46.5746 1.67667 47.6438L19.2034 65.1065C20.2765 66.1756 21.7184 66.7659 23.2274 66.777L51.4736 66.8104L51.496 66.8327H85.0069L55.084 37.0191C53.8209 35.7607 52.1219 35.0591 50.3447 35.0591H39.4911L37.8367 33.4108L54.6593 16.6497L54.6816 16.672V16.6386H63.255C64.9652 16.6386 66.6195 17.2845 67.8714 18.4539L83.9115 33.4219H103.629C106.781 33.4219 109.341 30.8716 109.341 27.731V23.2094C109.341 21.7059 108.737 20.2581 107.664 19.1889H107.653Z" fill="white"/>
</svg>
