<svg width="87" height="87" viewBox="0 0 87 87" fill="none" xmlns="http://www.w3.org/2000/svg">
<rect x="32.2778" y="28.3779" width="19.4444" height="29.4444" rx="9.72222" stroke="#13263D" stroke-width="0.555556"/>
<path d="M35.6549 71.0037C36.1506 71.1241 36.5599 71.3228 36.8827 71.5998C37.1989 71.8752 37.4168 72.2047 37.5364 72.5884C37.6494 72.9705 37.6547 73.3868 37.5524 73.8372L36.6682 73.6225C36.7591 73.219 36.7097 72.8381 36.52 72.4799C36.3221 72.1269 35.9719 71.8893 35.4695 71.7673C35.0073 71.6551 34.6255 71.6794 34.3239 71.8403C34.0141 72.0062 33.821 72.2466 33.7445 72.5614C33.6811 72.8227 33.6885 73.055 33.7668 73.2584C33.8434 73.4686 34.0028 73.674 34.2449 73.8746C34.4787 74.0803 34.8054 74.3122 35.2251 74.5701C35.821 74.9205 36.2257 75.299 36.4391 75.7055C36.6525 76.112 36.699 76.563 36.5786 77.0587C36.4973 77.3936 36.337 77.6739 36.0978 77.8996C35.8586 78.1252 35.5562 78.2752 35.1905 78.3496C34.8249 78.4239 34.4076 78.4042 33.9388 78.2903C33.4967 78.183 33.1318 78.0057 32.8443 77.7586C32.5484 77.5165 32.3458 77.2261 32.2365 76.8875C32.1205 76.5472 32.1089 76.1862 32.2016 75.8044L33.0858 76.0191C33.0403 76.2066 33.0458 76.403 33.1023 76.6083C33.1589 76.8135 33.273 77.0008 33.4447 77.1702C33.6163 77.3396 33.8562 77.4617 34.1644 77.5365C34.5328 77.6259 34.8629 77.6103 35.1546 77.4897C35.4447 77.3757 35.6272 77.1646 35.702 76.8565C35.759 76.6221 35.7534 76.4114 35.6852 76.2247C35.6104 76.0363 35.462 75.8442 35.24 75.6484C35.0163 75.4593 34.7047 75.2382 34.3051 74.9851C33.929 74.752 33.6189 74.51 33.3748 74.2592C33.1224 74.0134 32.9508 73.7413 32.8602 73.4426C32.7629 73.1423 32.7614 72.798 32.8557 72.4094C32.9484 72.0276 33.1277 71.713 33.3935 71.4654C33.6594 71.2178 33.9876 71.0493 34.3782 70.9597C34.7671 70.8768 35.1927 70.8915 35.6549 71.0037Z" fill="#13263D"/>
<path d="M30.0158 68.8753C30.432 69.0754 30.7585 69.3508 30.9952 69.7017C31.2257 70.0495 31.3507 70.4499 31.3701 70.9028C31.3865 71.3619 31.2738 71.8431 31.032 72.3463C30.7901 72.8496 30.4863 73.2351 30.1205 73.5028C29.7518 73.7768 29.3565 73.931 28.9346 73.9653C28.5066 73.9967 28.0906 73.9153 27.6868 73.7213C27.1152 73.4466 26.7273 73.0842 26.5229 72.6342C26.3186 72.1842 26.2848 71.6976 26.4215 71.1744L27.2229 71.5596C27.1751 71.8502 27.2209 72.1207 27.3605 72.3714C27.4971 72.6282 27.7269 72.8343 28.05 72.9895C28.286 73.103 28.5396 73.1484 28.8105 73.1256C29.0815 73.1029 29.3419 72.9986 29.5918 72.8128C29.8417 72.627 30.0577 72.3446 30.2398 71.9656C30.422 71.5866 30.509 71.2384 30.501 70.921C30.4899 70.6098 30.4087 70.3413 30.2572 70.1155C30.1056 69.8898 29.9118 69.7201 29.6758 69.6067C29.3341 69.4425 29.0265 69.3902 28.753 69.45C28.4734 69.5068 28.235 69.6446 28.0381 69.8635L27.2366 69.4783C27.5905 69.0443 28.0086 68.771 28.4909 68.6587C28.967 68.5433 29.4753 68.6155 30.0158 68.8753Z" fill="#13263D"/>
<path d="M26.7858 67.1836L26.3334 67.7748L25.2905 66.9769L23.236 69.662C23.1312 69.7989 23.1446 69.9176 23.276 70.0181L24.015 70.5836L23.5626 71.1748L22.569 70.4146C22.3884 70.2763 22.281 70.1161 22.2469 69.9337C22.2128 69.7514 22.2691 69.5645 22.4157 69.3729L22.5476 69.2004L22.5148 69.1753C22.2397 69.3988 21.9552 69.5153 21.6615 69.5248C21.3622 69.5302 21.0484 69.4073 20.7199 69.1559L19.9727 68.5842L20.5319 67.8534L21.3777 68.5005C21.7116 68.756 22.0548 68.8407 22.4072 68.7545C22.7554 68.6737 23.0614 68.4609 23.3253 68.116L24.6008 66.4491L23.3198 65.4689L23.7721 64.8777L26.7858 67.1836Z" fill="#13263D"/>
<path d="M20.79 61.5317C21.1042 61.8979 21.2988 62.294 21.3738 62.7202C21.4489 63.1463 21.4042 63.5706 21.24 63.9931C21.0705 64.4201 20.7792 64.811 20.3659 65.1656C19.9527 65.5202 19.5248 65.7466 19.0823 65.8448C18.6345 65.9475 18.2057 65.9295 17.7959 65.7906C17.3861 65.6518 17.0241 65.3993 16.7098 65.0332C16.3956 64.667 16.201 64.2708 16.126 63.8447C16.051 63.4186 16.0982 62.992 16.2677 62.565C16.4319 62.1425 16.7206 61.7539 17.1339 61.3993C17.5471 61.0447 17.9776 60.816 18.4254 60.7133C18.868 60.6151 19.2941 60.6354 19.7039 60.7743C20.1137 60.9131 20.4757 61.1656 20.79 61.5317ZM20.1623 62.0704C19.9692 61.8455 19.7445 61.6841 19.488 61.5863C19.2315 61.4885 18.9537 61.4771 18.6547 61.5521C18.3512 61.6218 18.0373 61.7958 17.713 62.0741C17.3886 62.3524 17.169 62.6363 17.054 62.9257C16.9346 63.2099 16.9037 63.4861 16.9614 63.7545C17.0192 64.0229 17.1445 64.2695 17.3376 64.4945C17.5261 64.7142 17.7486 64.8729 18.0051 64.9707C18.2616 65.0685 18.5416 65.0825 18.8451 65.0128C19.1486 64.9431 19.4625 64.7691 19.7869 64.4908C20.2733 64.0733 20.5307 63.6481 20.5588 63.2152C20.5817 62.7868 20.4496 62.4052 20.1623 62.0704Z" fill="#13263D"/>
<path d="M18.4807 58.6667L17.8293 59.0272L16.9831 57.4984L11.9986 60.2573C11.8479 60.3408 11.8142 60.4579 11.8977 60.6087L12.5286 61.7485L11.8772 62.109L11.1462 60.7883C11.0027 60.5289 10.9619 60.2915 11.0238 60.0761C11.0857 59.8606 11.2463 59.6811 11.5057 59.5375L16.5625 56.7385L15.7163 55.2097L16.3676 54.8492L18.4807 58.6667Z" fill="#13263D"/>
<path d="M15.7805 53.2896L15.0683 53.5065L14.5591 51.835L9.10931 53.4953C8.94446 53.5455 8.88715 53.6531 8.93737 53.8179L9.31704 55.0641L8.60491 55.2811L8.16497 53.8371C8.07859 53.5535 8.08813 53.3128 8.19358 53.115C8.29904 52.9171 8.49353 52.775 8.77706 52.6886L14.306 51.0042L13.7967 49.3327L14.5089 49.1157L15.7805 53.2896Z" fill="#13263D"/>
<path d="M14.6332 37.5172C14.5456 38.0197 14.3741 38.4411 14.1188 38.7814C13.8647 39.1149 13.5502 39.3539 13.1751 39.4984C12.8012 39.6361 12.3862 39.6686 11.9301 39.5961L12.0864 38.6997C12.495 38.764 12.8718 38.6898 13.2168 38.4771C13.5562 38.2564 13.7703 37.8914 13.8591 37.3821C13.9409 36.9136 13.8916 36.5341 13.7113 36.2438C13.5255 35.9455 13.273 35.7685 12.9538 35.7128C12.689 35.6666 12.4576 35.6892 12.2598 35.7807C12.0551 35.8709 11.8606 36.0434 11.6762 36.2981C11.4862 36.5449 11.2763 36.8861 11.0463 37.3218C10.7357 37.9393 10.3845 38.3679 9.99289 38.6074C9.60125 38.847 9.15418 38.9229 8.65169 38.8353C8.31216 38.776 8.02199 38.6345 7.78117 38.4105C7.54035 38.1866 7.37087 37.8946 7.27273 37.5347C7.17459 37.1747 7.16698 36.757 7.2499 36.2817C7.32807 35.8335 7.48107 35.4579 7.70887 35.1548C7.93107 34.8437 8.20755 34.6225 8.53831 34.4913C8.87026 34.3533 9.22976 34.318 9.61682 34.3855L9.46046 35.2819C9.27033 35.2487 9.0747 35.2671 8.87359 35.3369C8.67248 35.4068 8.49305 35.5329 8.33528 35.7153C8.17752 35.8977 8.07139 36.1451 8.0169 36.4575C7.95175 36.8309 7.98894 37.1593 8.12845 37.4425C8.26118 37.7246 8.48372 37.8928 8.79608 37.9473C9.03375 37.9888 9.24354 37.9694 9.42547 37.8892C9.60858 37.8022 9.79054 37.6415 9.97136 37.4072C10.1454 37.1716 10.3456 36.8462 10.572 36.4309C10.7801 36.0403 11.0012 35.7151 11.2355 35.4551C11.4642 35.1871 11.7245 34.9981 12.0166 34.8881C12.3099 34.7713 12.6534 34.7473 13.0473 34.816C13.4343 34.8835 13.7601 35.0418 14.0245 35.2909C14.2889 35.5399 14.4786 35.8564 14.5936 36.2403C14.7017 36.623 14.715 37.0486 14.6332 37.5172Z" fill="#13263D"/>
<path d="M16.3688 31.7939C16.1976 32.2228 15.945 32.5673 15.6111 32.8274C15.2797 33.0811 14.8888 33.233 14.4383 33.2832C13.9814 33.3309 13.4936 33.2512 12.9751 33.0442C12.4565 32.8372 12.0512 32.5604 11.7591 32.2137C11.4607 31.8645 11.2799 31.4806 11.2169 31.0621C11.1565 30.6372 11.2093 30.2167 11.3754 29.8005C11.6105 29.2116 11.9456 28.7998 12.3806 28.5653C12.8157 28.3307 13.2988 28.2639 13.8301 28.3646L13.5004 29.1904C13.2073 29.1625 12.9404 29.2267 12.6999 29.383C12.453 29.5368 12.2631 29.7801 12.1302 30.113C12.0331 30.3562 12.0051 30.6123 12.0462 30.881C12.0874 31.1498 12.2091 31.4025 12.4115 31.6392C12.6139 31.8758 12.9104 32.0721 13.3009 32.228C13.6914 32.3839 14.0447 32.447 14.3609 32.4174C14.6706 32.3852 14.933 32.2858 15.1479 32.1192C15.3628 31.9527 15.5188 31.7478 15.6159 31.5045C15.7565 31.1524 15.7876 30.842 15.7094 30.5732C15.6337 30.2981 15.4799 30.0697 15.2481 29.8881L15.5778 29.0623C16.035 29.3858 16.336 29.7843 16.481 30.2578C16.6285 30.7249 16.5911 31.2369 16.3688 31.7939Z" fill="#13263D"/>
<path d="M17.8566 28.4266L17.2366 28.0146L17.9633 26.9209L15.1474 25.0496C15.0038 24.9542 14.8863 24.9755 14.7947 25.1132L14.2797 25.8883L13.6597 25.4762L14.3521 24.4343C14.478 24.2448 14.6308 24.127 14.8104 24.0808C14.9901 24.0347 15.1803 24.0784 15.3813 24.2119L15.5621 24.3321L15.585 24.2976C15.3437 24.038 15.2086 23.7619 15.1794 23.4695C15.1542 23.1713 15.256 22.85 15.4849 22.5055L16.0056 21.7219L16.772 22.2312L16.1826 23.1182C15.9499 23.4684 15.8883 23.8164 15.9978 24.1623C16.1015 24.5043 16.3342 24.7955 16.6959 25.0359L18.444 26.1976L19.3367 24.8542L19.9568 25.2662L17.8566 28.4266Z" fill="#13263D"/>
<path d="M23.0693 22.104C22.7258 22.4428 22.344 22.6643 21.9241 22.7686C21.5042 22.8729 21.0778 22.8577 20.645 22.7231C20.2073 22.5835 19.7972 22.3199 19.4149 21.9321C19.0325 21.5444 18.7771 21.1332 18.6485 20.6985C18.5151 20.2589 18.5035 19.8298 18.6137 19.4114C18.7238 18.993 18.9507 18.6144 19.2943 18.2756C19.6378 17.9368 20.0196 17.7153 20.4395 17.611C20.8594 17.5067 21.2882 17.5244 21.7259 17.6639C22.1588 17.7985 22.5664 18.0597 22.9487 18.4475C23.3311 18.8352 23.589 19.2489 23.7224 19.6885C23.8509 20.1232 23.8601 20.5498 23.7499 20.9682C23.6398 21.3866 23.4129 21.7652 23.0693 22.104ZM22.4886 21.515C22.6996 21.3069 22.8451 21.0715 22.9249 20.8089C23.0047 20.5462 22.9969 20.2683 22.9015 19.9752C22.811 19.6772 22.6157 19.3761 22.3156 19.0718C22.0155 18.7675 21.7172 18.568 21.4205 18.4733C21.1287 18.3738 20.851 18.3621 20.5872 18.4382C20.3235 18.5144 20.0861 18.6565 19.8751 18.8646C19.6689 19.0679 19.5259 19.3008 19.4461 19.5635C19.3663 19.8261 19.3716 20.1064 19.4621 20.4044C19.5527 20.7024 19.748 21.0035 20.048 21.3078C20.4981 21.7643 20.9401 21.9916 21.3739 21.9897C21.8029 21.983 22.1744 21.8247 22.4886 21.515Z" fill="#13263D"/>
<path d="M25.7751 19.6065L25.3727 18.9801L26.8428 18.0356L23.7632 13.2426C23.67 13.0976 23.551 13.0717 23.406 13.1649L22.31 13.8691L21.9075 13.2428L23.1776 12.4268C23.4269 12.2666 23.6611 12.2103 23.8802 12.258C24.0993 12.3056 24.2889 12.4542 24.4492 12.7035L27.5735 17.5661L29.0436 16.6215L29.446 17.2478L25.7751 19.6065Z" fill="#13263D"/>
<path d="M30.93 16.5723L30.6635 15.8772L32.2951 15.2516L30.2555 9.93217C30.1938 9.77127 30.0825 9.72166 29.9216 9.78336L28.7052 10.2498L28.4387 9.55465L29.8482 9.01422C30.1249 8.90811 30.3657 8.90069 30.5705 8.99196C30.7753 9.08324 30.9307 9.26725 31.0368 9.54401L33.106 14.9407L34.7376 14.3151L35.0041 15.0103L30.93 16.5723Z" fill="#13263D"/>
<path d="M46.4829 14.3327C45.9755 14.2802 45.5432 14.1383 45.186 13.9073C44.8357 13.677 44.5754 13.3797 44.4052 13.0156C44.2419 12.6522 44.1806 12.2405 44.2214 11.7804L45.1264 11.8741C45.0906 12.2862 45.1908 12.657 45.427 12.9863C45.6707 13.3096 46.0497 13.4978 46.5639 13.5511C47.037 13.6001 47.4121 13.5246 47.6892 13.3246C47.9739 13.1185 48.1329 12.8543 48.1663 12.5321C48.194 12.2647 48.1554 12.0355 48.0504 11.8444C47.9462 11.6465 47.7606 11.4644 47.4937 11.2982C47.2344 11.1258 46.8794 10.94 46.4288 10.7409C45.7912 10.4739 45.3393 10.1533 45.0732 9.77925C44.807 9.40518 44.7002 8.96446 44.7528 8.45709C44.7883 8.11428 44.9094 7.81498 45.1161 7.55919C45.3227 7.30341 45.6022 7.11407 45.9545 6.99118C46.3068 6.86829 46.7229 6.8317 47.2029 6.88143C47.6554 6.92831 48.0408 7.05485 48.359 7.26107C48.6847 7.46113 48.9245 7.72159 49.0784 8.04245C49.2391 8.36402 49.2992 8.72021 49.2588 9.11102L48.3537 9.01726C48.3736 8.82528 48.3417 8.6314 48.2581 8.43563C48.1744 8.23985 48.0361 8.0696 47.8432 7.92488C47.6503 7.78016 47.3962 7.69146 47.0808 7.65878C46.7037 7.61972 46.3787 7.6796 46.1058 7.83844C45.8337 7.99043 45.6813 8.22411 45.6486 8.5395C45.6237 8.77947 45.6576 8.98742 45.7503 9.16333C45.8498 9.33996 46.0227 9.51033 46.269 9.67445C46.5161 9.83171 46.8546 10.0088 47.2847 10.2059C47.6887 10.3863 48.0285 10.5844 48.3042 10.8C48.5874 11.0096 48.794 11.2562 48.924 11.5399C49.0608 11.8244 49.1086 12.1654 49.0674 12.5631C49.027 12.9539 48.8917 13.2898 48.6616 13.5709C48.4315 13.852 48.129 14.0632 47.754 14.2045C47.3797 14.339 46.956 14.3817 46.4829 14.3327Z" fill="#13263D"/>
<path d="M52.3916 15.6793C51.952 15.538 51.591 15.3096 51.3086 14.9944C51.0328 14.6812 50.8544 14.3016 50.7733 13.8556C50.6944 13.403 50.7404 12.911 50.9113 12.3794C51.0823 11.8479 51.3306 11.4246 51.6565 11.1094C51.9844 10.7876 52.355 10.581 52.7682 10.4894C53.1879 10.3999 53.6111 10.4238 54.0376 10.5609C54.6413 10.7551 55.0751 11.0611 55.3389 11.479C55.6028 11.897 55.7027 12.3744 55.6386 12.9113L54.7921 12.6391C54.7999 12.3447 54.7175 12.0829 54.5451 11.8537C54.3747 11.6179 54.1189 11.4451 53.7777 11.3354C53.5284 11.2552 53.271 11.2448 53.0057 11.3043C52.7404 11.3638 52.4966 11.5027 52.2744 11.7208C52.0522 11.939 51.8767 12.2482 51.748 12.6485C51.6193 13.0488 51.5806 13.4056 51.6318 13.719C51.6852 14.0258 51.8024 14.2807 51.9833 14.4837C52.1642 14.6866 52.3793 14.8282 52.6287 14.9084C52.9896 15.0245 53.3014 15.0343 53.5642 14.9377C53.8335 14.8433 54.0507 14.6743 54.216 14.4305L55.0625 14.7028C54.7711 15.1811 54.3942 15.5088 53.9318 15.6859C53.4759 15.8651 52.9625 15.8629 52.3916 15.6793Z" fill="#13263D"/>
<path d="M55.8447 16.9178L56.2142 16.2715L57.3542 16.9233L59.0324 13.9882C59.1179 13.8386 59.0889 13.7228 58.9453 13.6407L58.1375 13.1788L58.507 12.5325L59.5931 13.1535C59.7905 13.2664 59.9183 13.4109 59.9764 13.5871C60.0345 13.7632 60.0037 13.956 59.8839 14.1655L59.7761 14.3539L59.812 14.3745C60.0549 14.1163 60.3213 13.9629 60.6111 13.9143C60.907 13.8691 61.2344 13.9491 61.5934 14.1544L62.4102 14.6214L61.9535 15.4203L61.029 14.8916C60.6639 14.6829 60.3126 14.6448 59.9748 14.7772C59.6405 14.9037 59.3655 15.1554 59.15 15.5324L58.1081 17.3544L59.5084 18.1551L59.1388 18.8013L55.8447 16.9178Z" fill="#13263D"/>
<path d="M62.4982 21.6721C62.1375 21.3515 61.8914 20.9852 61.7597 20.573C61.628 20.1609 61.6152 19.7344 61.721 19.2936C61.8315 18.8477 62.0676 18.4212 62.4294 18.0142C62.7912 17.6072 63.1847 17.3253 63.61 17.1684C64.0399 17.0064 64.4673 16.9666 64.892 17.0491C65.3167 17.1315 65.7094 17.333 66.0701 17.6535C66.4307 17.9741 66.6769 18.3404 66.8085 18.7526C66.9402 19.1647 66.9508 19.5938 66.8403 20.0397C66.7344 20.4805 66.5006 20.9044 66.1388 21.3114C65.7771 21.7184 65.3812 22.0029 64.9513 22.1649C64.526 22.3218 64.101 22.359 63.6762 22.2766C63.2515 22.1941 62.8588 21.9926 62.4982 21.6721ZM63.0477 21.0538C63.2692 21.2508 63.5137 21.3804 63.781 21.4428C64.0483 21.5052 64.3251 21.4791 64.6113 21.3646C64.9027 21.2547 65.1903 21.0401 65.4742 20.7206C65.7582 20.4012 65.9376 20.0904 66.0126 19.7881C66.0927 19.4905 66.0861 19.2126 65.9928 18.9544C65.8995 18.6962 65.7421 18.4687 65.5206 18.2718C65.3042 18.0794 65.0623 17.9521 64.795 17.8897C64.5277 17.8273 64.2483 17.8511 63.9569 17.961C63.6656 18.0709 63.3779 18.2856 63.094 18.605C62.6681 19.0841 62.4704 19.5401 62.5007 19.9728C62.5356 20.4004 62.718 20.7608 63.0477 21.0538Z" fill="#13263D"/>
<path d="M65.2383 24.2545L65.8369 23.812L66.8756 25.2172L71.457 21.8308C71.5955 21.7283 71.6136 21.6078 71.5112 21.4692L70.7368 20.4216L71.3354 19.9791L72.2328 21.193C72.4089 21.4314 72.4804 21.6614 72.4471 21.8832C72.4139 22.1049 72.2781 22.3038 72.0397 22.48L67.3918 25.9156L68.4305 27.3208L67.8319 27.7633L65.2383 24.2545Z" fill="#13263D"/>
<path d="M68.5777 29.1263L69.2536 28.8144L69.9858 30.401L75.1586 28.0138C75.3151 27.9416 75.3572 27.8273 75.285 27.6708L74.7391 26.4879L75.4151 26.176L76.0476 27.5466C76.1718 27.8157 76.1951 28.0555 76.1176 28.2659C76.0401 28.4763 75.8668 28.6435 75.5977 28.7677L70.3497 31.1896L71.0819 32.7762L70.406 33.0881L68.5777 29.1263Z" fill="#13263D"/>
<path d="M71.9018 44.3692C71.9191 43.8594 72.0306 43.4183 72.2363 43.0459C72.4418 42.6805 72.7203 42.4002 73.0717 42.2052C73.423 42.0171 73.8295 41.9274 74.2913 41.9362L74.2605 42.8455C73.8469 42.8384 73.484 42.9641 73.1718 43.2225C72.8662 43.488 72.7047 43.8791 72.6871 44.3958C72.671 44.8711 72.7723 45.2401 72.991 45.5027C73.2164 45.7724 73.491 45.9128 73.8148 45.9237C74.0834 45.9328 74.3094 45.8784 74.4927 45.7605C74.6829 45.6428 74.8517 45.445 74.9991 45.1673C75.1531 44.8966 75.3138 44.5296 75.4812 44.0663C75.7034 43.4117 75.9919 42.9387 76.3466 42.6473C76.7013 42.3558 77.1336 42.2187 77.6434 42.236C77.9878 42.2477 78.2948 42.3477 78.5643 42.5362C78.8338 42.7246 79.042 42.9903 79.1891 43.3333C79.3361 43.6762 79.4014 44.0888 79.3851 44.571C79.3697 45.0257 79.2701 45.4189 79.0865 45.7506C78.9094 46.0895 78.6662 46.3468 78.3568 46.5225C78.0472 46.7051 77.696 46.7898 77.3033 46.7765L77.3341 45.8671C77.527 45.8737 77.7182 45.8284 77.9077 45.7314C78.0972 45.6343 78.2575 45.4846 78.3885 45.2821C78.5195 45.0796 78.5904 44.82 78.6011 44.5031C78.6139 44.1242 78.5317 43.8041 78.3543 43.5429C78.1838 43.282 77.9402 43.1461 77.6233 43.1354C77.3821 43.1272 77.177 43.1754 77.008 43.28C76.8387 43.3916 76.6807 43.5759 76.534 43.833C76.3943 44.0903 76.241 44.4403 76.0743 44.883C75.9223 45.2986 75.7482 45.6513 75.5522 45.9412C75.3628 46.2383 75.1311 46.4615 74.8571 46.6108C74.5828 46.767 74.2459 46.8384 73.8463 46.8249C73.4536 46.8116 73.1091 46.6999 72.8128 46.4898C72.5164 46.2798 72.2847 45.9926 72.1178 45.6283C71.9577 45.2642 71.8857 44.8445 71.9018 44.3692Z" fill="#13263D"/>
<path d="M70.9806 50.391C71.0914 49.9426 71.2942 49.5667 71.5892 49.2632C71.8826 48.9664 72.249 48.7623 72.6883 48.6506C73.1344 48.5407 73.6284 48.5526 74.1705 48.6864C74.7126 48.8203 75.152 49.0388 75.489 49.3421C75.8326 49.647 76.0643 50.0025 76.1842 50.4084C76.3024 50.821 76.3078 51.2447 76.2005 51.6797C76.0484 52.2954 75.7731 52.7493 75.3744 53.0413C74.9757 53.3334 74.5063 53.466 73.9662 53.4391L74.1793 52.5759C74.4735 52.5633 74.729 52.4631 74.9458 52.2752C75.1693 52.089 75.324 51.8219 75.4099 51.4739C75.4727 51.2196 75.4653 50.9622 75.3876 50.7016C75.3099 50.441 75.1546 50.2074 74.9216 50.0008C74.6886 49.7942 74.368 49.6405 73.9598 49.5397C73.5516 49.4389 73.193 49.4249 72.8839 49.4977C72.5815 49.5721 72.3353 49.7066 72.1453 49.9011C71.9553 50.0955 71.8289 50.3199 71.7661 50.5742C71.6752 50.9423 71.687 51.2541 71.8014 51.5095C71.9142 51.7717 72.0979 51.9767 72.3524 52.1248L72.1393 52.9881C71.642 52.7304 71.289 52.377 71.0804 51.9279C70.8702 51.4855 70.8369 50.9732 70.9806 50.391Z" fill="#13263D"/>
<path d="M69.9539 54.0523L70.6236 54.3773L70.0504 55.5587L73.0922 57.0347C73.2472 57.11 73.3608 57.0732 73.4331 56.9243L73.8393 56.0871L74.5091 56.4121L73.9629 57.5377C73.8636 57.7424 73.728 57.8796 73.5562 57.9495C73.3844 58.0193 73.19 58.0016 72.9729 57.8963L72.7776 57.8015L72.7595 57.8387C73.0335 58.0636 73.2045 58.319 73.2727 58.6049C73.3378 58.897 73.2801 59.2291 73.0995 59.6011L72.6887 60.4476L71.8608 60.0459L72.3258 59.0878C72.5093 58.7095 72.5237 58.3563 72.3687 58.0283C72.2199 57.7033 71.9502 57.446 71.5595 57.2564L69.6712 56.3401L68.967 57.7912L68.2973 57.4662L69.9539 54.0523Z" fill="#13263D"/>
<path d="M65.6251 61.0716C65.9211 60.6905 66.2704 60.4207 66.673 60.2621C67.0755 60.1035 67.5002 60.0624 67.947 60.139C68.3993 60.2198 68.8404 60.4272 69.2704 60.7613C69.7004 61.0954 70.0078 61.4694 70.1924 61.8834C70.3824 62.3017 70.4504 62.7254 70.3962 63.1547C70.342 63.584 70.1669 63.9891 69.8709 64.3701C69.5749 64.7512 69.2256 65.021 68.823 65.1796C68.4205 65.3382 67.9931 65.3771 67.5408 65.2964C67.094 65.2198 66.6556 65.0145 66.2256 64.6804C65.7955 64.3464 65.4855 63.9702 65.2955 63.5519C65.1108 63.1379 65.0456 62.7163 65.0998 62.287C65.154 61.8577 65.3291 61.4526 65.6251 61.0716ZM66.2783 61.579C66.0965 61.8131 65.9832 62.0656 65.9386 62.3364C65.8941 62.6073 65.9383 62.8817 66.0715 63.1598C66.2004 63.4432 66.4336 63.7161 66.7711 63.9783C67.1086 64.2405 67.4306 64.399 67.7371 64.4538C68.0395 64.5141 68.3163 64.4892 68.5678 64.379C68.8192 64.2689 69.0358 64.0967 69.2177 63.8627C69.3953 63.6341 69.5064 63.3843 69.551 63.1134C69.5956 62.8426 69.5534 62.5654 69.4245 62.2819C69.2956 61.9985 69.0624 61.7256 68.7249 61.4635C68.2187 61.0702 67.7506 60.903 67.3208 60.9618C66.8965 61.0249 66.549 61.2307 66.2783 61.579Z" fill="#13263D"/>
<path d="M63.3456 63.8629L63.8284 64.4296L62.4982 65.5627L66.1926 69.8995C66.3044 70.0307 66.4258 70.0404 66.557 69.9287L67.5487 69.0839L68.0315 69.6506L66.8823 70.6295C66.6567 70.8217 66.4321 70.9089 66.2087 70.891C65.9852 70.8731 65.7773 70.7513 65.5851 70.5257L61.8371 66.1259L60.5069 67.2591L60.0241 66.6924L63.3456 63.8629Z" fill="#13263D"/>
<path d="M58.5501 67.6428L58.9059 68.2967L57.3709 69.1317L60.0934 74.1362C60.1758 74.2876 60.2926 74.3221 60.444 74.2397L61.5884 73.6172L61.9441 74.2711L60.6181 74.9925C60.3577 75.1341 60.12 75.1732 59.905 75.1097C59.69 75.0462 59.5116 74.8843 59.37 74.6239L56.608 69.5468L55.0731 70.3818L54.7173 69.7278L58.5501 67.6428Z" fill="#13263D"/>
<circle cx="42" cy="50.5527" r="2" fill="#13263D"/>
</svg>
