<svg width="1920" height="1242" viewBox="0 0 1920 1242" fill="none" xmlns="http://www.w3.org/2000/svg">
<mask id="mask0_399_218" style="mask-type:alpha" maskUnits="userSpaceOnUse" x="0" y="0" width="1920" height="1242">
<rect width="1920" height="1242" fill="#D13C3E"/>
</mask>
<g mask="url(#mask0_399_218)">
<path d="M1522.12 1346.32L1977.19 816.699C2038.46 745.394 1994.96 623.459 1908.41 623.459H1157.01C1131.28 623.459 1106.68 635.387 1088.46 656.328L751.367 1047.32C733.146 1068.52 722.668 1097.42 722.668 1127.63V1266.53C722.668 1329.09 766.171 1379.72 819.924 1379.72H1453.33C1479.07 1379.72 1503.9 1367.79 1522.12 1346.59V1346.32Z" fill="#FF7172"/>
<path d="M738.611 250.762L1104.86 -175.48C1123.76 -197.481 1149.27 -209.675 1175.92 -209.94L1919.79 -211C2009.53 -211 2054.63 -84.5587 1991.08 -10.6025L1735.3 287.078H1646.25C1620.51 287.078 1595.91 298.476 1577.24 318.887L1333.76 584.228H809.673C754.099 584.228 709.002 531.743 709.002 467.065V333.731C709.002 302.717 719.707 272.764 738.611 250.762Z" fill="#FF7172"/>
</g>
</svg>
