<svg width="1920" height="1424" viewBox="0 0 1920 1424" fill="none" xmlns="http://www.w3.org/2000/svg">
<path d="M663.584 697.342L663.584 697.343L1005.69 1093.9L1005.69 1093.9C1022.45 1113.15 1031.76 1139.54 1031.76 1166.73V1319.41C1031.76 1376.2 992.053 1422.29 943.429 1422.29H298.174C274.872 1422.29 252.231 1411.5 235.691 1392.25L-236.236 843.012C-264.116 810.564 -268.208 766.624 -255.447 730.782C-242.685 694.939 -213.116 667.298 -173.752 667.298H601.328C624.628 667.298 647.043 678.091 663.584 697.342Z" stroke="#F2F2F2"/>
<path d="M1652.38 1389.66V1389.47L1652.26 1389.33L1197.19 859.712C1166.69 824.216 1162.26 776.101 1176.24 736.846C1190.23 697.59 1222.59 667.298 1265.6 667.298H2016.99C2042.57 667.298 2067.03 679.152 2085.17 699.995L2422.26 1090.98C2440.4 1112.09 2450.84 1140.87 2450.84 1170.97V1309.87C2450.84 1372.23 2407.49 1422.56 2354.08 1422.56H1720.67C1695.15 1422.56 1670.51 1410.76 1652.38 1389.74V1389.66Z" stroke="#F2F2F2"/>
<path d="M-301.376 -45.7874L-301.377 -45.7885C-320.715 -68.1633 -323.554 -98.5176 -314.722 -123.292C-305.89 -148.068 -285.431 -167.162 -258.253 -167.162L596.544 -166.101C612.785 -166.101 628.139 -158.753 639.668 -145.334L1029.14 307.681C1040.68 321.101 1047.02 339.008 1047.02 357.984V555.996C1047.02 595.29 1019.61 627.067 986.02 627.067H428.903L185.572 361.888C185.572 361.888 185.572 361.888 185.572 361.887C166.809 341.383 142.081 329.916 116.191 329.916H21.8968H21.4431L-301.376 -45.7874Z" stroke="#F2F2F2"/>
<path d="M2068.77 -131.816L2435.01 294.427C2453.83 316.331 2464.5 346.167 2464.5 377.07V510.403C2464.5 574.879 2419.56 627.067 2364.33 627.067H1840.46L1597.13 361.888C1597.13 361.888 1597.13 361.888 1597.13 361.887C1578.37 341.383 1553.64 329.916 1527.75 329.916H1438.92L1183.3 32.41C1151.66 -4.41136 1147.05 -54.3157 1161.55 -95.0287C1176.05 -135.743 1209.6 -167.162 1254.21 -167.162L1998.08 -166.101C2024.57 -165.838 2049.95 -153.716 2068.77 -131.816Z" stroke="#F2F2F2"/>
</svg>
