<svg width="1920" height="1193" viewBox="0 0 1920 1193" fill="none" xmlns="http://www.w3.org/2000/svg">
<mask id="mask0_399_212" style="mask-type:alpha" maskUnits="userSpaceOnUse" x="0" y="0" width="1920" height="1193">
<rect width="1920" height="1193" fill="#FF5F61"/>
</mask>
<g mask="url(#mask0_399_212)">
<path d="M197.694 1560.32L-257.378 1030.7C-318.647 959.394 -275.144 837.459 -188.593 837.459H562.799C588.536 837.459 613.134 849.388 631.356 870.329L968.446 1261.32C986.667 1282.52 997.144 1311.42 997.144 1341.63V1480.53C997.144 1543.09 953.641 1593.72 899.889 1593.72H266.478C240.741 1593.72 215.915 1581.79 197.694 1560.59V1560.32Z" fill="#35198F"/>
<path d="M981.202 464.762L614.957 38.5202C596.053 16.5189 570.544 4.32538 543.895 4.0603L-199.981 3C-289.72 3 -334.817 129.441 -271.271 203.397L-15.4924 501.078H73.5632C99.3004 501.078 123.899 512.476 142.576 532.887L386.055 798.228H910.139C965.714 798.228 1010.81 745.743 1010.81 681.065V547.731C1010.81 516.717 1000.11 486.764 981.202 464.762Z" fill="#35198F"/>
</g>
</svg>
